<?xml version="1.0" encoding="UTF-8"?>
<svg xmlns="http://www.w3.org/2000/svg" version="1.1" width="300" height="300" viewBox="0 0 300 300"><rect x="0" y="0" width="300" height="300" fill="#ffffff"/><g transform="scale(5.882)"><g transform="translate(1,1)"><path fill-rule="evenodd" d="M8 0L8 3L9 3L9 4L10 4L10 8L9 8L9 5L8 5L8 9L7 9L7 8L6 8L6 9L5 9L5 8L2 8L2 11L0 11L0 14L1 14L1 17L2 17L2 19L3 19L3 21L2 21L2 20L1 20L1 21L0 21L0 22L4 22L4 23L2 23L2 24L4 24L4 26L2 26L2 25L1 25L1 26L2 26L2 27L5 27L5 28L6 28L6 29L4 29L4 32L6 32L6 33L3 33L3 31L2 31L2 30L0 30L0 31L2 31L2 32L0 32L0 34L1 34L1 33L3 33L3 34L2 34L2 36L1 36L1 35L0 35L0 36L1 36L1 40L0 40L0 41L3 41L3 40L4 40L4 39L2 39L2 38L5 38L5 39L7 39L7 40L6 40L6 41L7 41L7 40L8 40L8 42L10 42L10 43L9 43L9 44L8 44L8 47L9 47L9 48L10 48L10 49L18 49L18 48L19 48L19 46L20 46L20 45L21 45L21 46L24 46L24 47L23 47L23 48L22 48L22 47L21 47L21 48L20 48L20 49L24 49L24 48L25 48L25 47L26 47L26 49L27 49L27 46L28 46L28 44L27 44L27 42L29 42L29 46L34 46L34 45L35 45L35 46L36 46L36 47L35 47L35 48L33 48L33 47L32 47L32 48L31 48L31 49L35 49L35 48L36 48L36 49L40 49L40 48L36 48L36 47L40 47L40 46L39 46L39 45L41 45L41 46L43 46L43 47L41 47L41 49L44 49L44 48L46 48L46 49L49 49L49 48L48 48L48 47L49 47L49 44L47 44L47 43L48 43L48 42L49 42L49 40L48 40L48 39L49 39L49 36L48 36L48 35L49 35L49 34L48 34L48 33L49 33L49 32L47 32L47 34L46 34L46 32L44 32L44 33L45 33L45 34L37 34L37 33L39 33L39 32L40 32L40 33L43 33L43 32L40 32L40 31L41 31L41 30L42 30L42 29L44 29L44 27L45 27L45 28L46 28L46 29L45 29L45 30L46 30L46 31L49 31L49 30L46 30L46 29L48 29L48 28L46 28L46 27L48 27L48 26L49 26L49 25L48 25L48 26L46 26L46 25L47 25L47 23L49 23L49 20L47 20L47 18L46 18L46 17L44 17L44 16L43 16L43 18L42 18L42 17L40 17L40 15L41 15L41 16L42 16L42 15L43 15L43 14L46 14L46 13L47 13L47 15L48 15L48 13L49 13L49 12L48 12L48 13L47 13L47 12L46 12L46 11L48 11L48 10L49 10L49 8L46 8L46 9L47 9L47 10L45 10L45 9L44 9L44 8L41 8L41 10L40 10L40 9L39 9L39 8L40 8L40 7L41 7L41 6L40 6L40 7L39 7L39 5L35 5L35 6L34 6L34 5L33 5L33 4L36 4L36 2L39 2L39 4L40 4L40 3L41 3L41 0L40 0L40 1L38 1L38 0L37 0L37 1L35 1L35 0L34 0L34 1L35 1L35 3L32 3L32 1L31 1L31 0L29 0L29 1L28 1L28 2L26 2L26 1L27 1L27 0L26 0L26 1L25 1L25 0L23 0L23 1L24 1L24 2L23 2L23 3L22 3L22 2L21 2L21 1L22 1L22 0L20 0L20 1L19 1L19 0L18 0L18 1L17 1L17 3L15 3L15 5L14 5L14 3L13 3L13 2L14 2L14 1L16 1L16 0L13 0L13 2L12 2L12 1L11 1L11 0L10 0L10 1L9 1L9 0ZM10 1L10 2L9 2L9 3L10 3L10 2L11 2L11 1ZM18 1L18 2L19 2L19 1ZM29 1L29 2L28 2L28 3L27 3L27 7L28 7L28 4L29 4L29 5L30 5L30 4L29 4L29 2L30 2L30 1ZM11 3L11 4L12 4L12 5L11 5L11 7L12 7L12 6L13 6L13 7L14 7L14 6L13 6L13 4L12 4L12 3ZM18 3L18 5L17 5L17 7L18 7L18 9L17 9L17 8L16 8L16 6L15 6L15 8L16 8L16 9L17 9L17 10L15 10L15 9L14 9L14 8L13 8L13 9L12 9L12 8L11 8L11 9L10 9L10 11L9 11L9 12L8 12L8 11L6 11L6 10L7 10L7 9L6 9L6 10L5 10L5 11L6 11L6 12L4 12L4 9L3 9L3 11L2 11L2 13L1 13L1 14L2 14L2 13L5 13L5 16L4 16L4 15L3 15L3 16L2 16L2 17L3 17L3 18L5 18L5 19L4 19L4 22L5 22L5 20L7 20L7 21L6 21L6 22L7 22L7 21L8 21L8 22L9 22L9 25L10 25L10 26L11 26L11 25L10 25L10 23L11 23L11 24L12 24L12 25L13 25L13 26L12 26L12 27L11 27L11 30L12 30L12 32L13 32L13 33L11 33L11 34L12 34L12 36L13 36L13 37L15 37L15 35L16 35L16 38L17 38L17 39L15 39L15 41L14 41L14 42L13 42L13 39L12 39L12 38L9 38L9 37L11 37L11 35L10 35L10 36L9 36L9 35L8 35L8 34L7 34L7 33L6 33L6 34L7 34L7 35L6 35L6 36L9 36L9 37L8 37L8 38L9 38L9 39L8 39L8 40L9 40L9 41L10 41L10 42L11 42L11 41L10 41L10 40L11 40L11 39L12 39L12 42L13 42L13 44L12 44L12 45L11 45L11 43L10 43L10 44L9 44L9 45L10 45L10 46L9 46L9 47L11 47L11 48L15 48L15 47L16 47L16 48L17 48L17 47L18 47L18 46L16 46L16 44L17 44L17 45L20 45L20 44L17 44L17 43L18 43L18 42L19 42L19 43L21 43L21 45L22 45L22 41L21 41L21 42L20 42L20 38L21 38L21 39L22 39L22 40L25 40L25 39L26 39L26 40L27 40L27 41L29 41L29 40L31 40L31 41L30 41L30 43L33 43L33 44L30 44L30 45L33 45L33 44L35 44L35 45L36 45L36 46L37 46L37 45L38 45L38 44L40 44L40 41L39 41L39 42L37 42L37 41L38 41L38 40L37 40L37 39L35 39L35 38L40 38L40 40L42 40L42 39L43 39L43 40L46 40L46 41L45 41L45 42L48 42L48 41L47 41L47 40L46 40L46 39L43 39L43 38L46 38L46 37L48 37L48 36L46 36L46 37L45 37L45 35L46 35L46 34L45 34L45 35L43 35L43 36L44 36L44 37L42 37L42 36L41 36L41 37L35 37L35 36L39 36L39 35L36 35L36 34L35 34L35 33L36 33L36 32L35 32L35 30L37 30L37 32L39 32L39 30L41 30L41 29L42 29L42 27L41 27L41 28L39 28L39 27L40 27L40 26L39 26L39 25L38 25L38 26L39 26L39 27L37 27L37 28L36 28L36 26L37 26L37 24L40 24L40 22L41 22L41 20L40 20L40 19L39 19L39 18L40 18L40 17L39 17L39 15L40 15L40 14L39 14L39 13L38 13L38 12L39 12L39 11L40 11L40 12L41 12L41 13L43 13L43 12L41 12L41 11L43 11L43 10L44 10L44 13L46 13L46 12L45 12L45 10L44 10L44 9L43 9L43 10L41 10L41 11L40 11L40 10L38 10L38 9L37 9L37 8L39 8L39 7L38 7L38 6L37 6L37 8L36 8L36 6L35 6L35 7L34 7L34 6L33 6L33 7L32 7L32 4L31 4L31 7L30 7L30 6L29 6L29 8L28 8L28 9L27 9L27 10L26 10L26 9L25 9L25 10L24 10L24 9L22 9L22 6L21 6L21 7L20 7L20 6L19 6L19 4L21 4L21 3ZM23 3L23 4L25 4L25 3ZM23 5L23 8L26 8L26 5ZM18 6L18 7L19 7L19 6ZM24 6L24 7L25 7L25 6ZM33 7L33 9L32 9L32 8L31 8L31 11L30 11L30 9L28 9L28 10L27 10L27 11L26 11L26 10L25 10L25 12L26 12L26 13L24 13L24 16L25 16L25 17L26 17L26 16L27 16L27 15L26 15L26 16L25 16L25 14L26 14L26 13L27 13L27 14L29 14L29 15L30 15L30 14L29 14L29 13L31 13L31 14L32 14L32 15L31 15L31 17L30 17L30 16L28 16L28 17L29 17L29 18L27 18L27 20L26 20L26 19L25 19L25 18L24 18L24 17L23 17L23 14L22 14L22 15L21 15L21 14L20 14L20 15L19 15L19 16L16 16L16 17L15 17L15 16L14 16L14 18L16 18L16 19L17 19L17 20L16 20L16 21L15 21L15 19L14 19L14 20L10 20L10 19L11 19L11 18L10 18L10 16L11 16L11 17L12 17L12 16L11 16L11 13L10 13L10 12L9 12L9 13L8 13L8 12L6 12L6 13L8 13L8 15L10 15L10 16L9 16L9 17L8 17L8 16L5 16L5 17L7 17L7 18L6 18L6 19L7 19L7 20L8 20L8 18L10 18L10 19L9 19L9 20L10 20L10 21L9 21L9 22L10 22L10 21L11 21L11 22L12 22L12 21L14 21L14 22L13 22L13 25L14 25L14 29L13 29L13 28L12 28L12 30L13 30L13 32L14 32L14 31L17 31L17 29L19 29L19 28L20 28L20 30L18 30L18 32L19 32L19 31L20 31L20 32L22 32L22 33L21 33L21 36L20 36L20 37L23 37L23 38L22 38L22 39L23 39L23 38L24 38L24 39L25 39L25 38L26 38L26 39L27 39L27 40L28 40L28 39L31 39L31 40L32 40L32 41L31 41L31 42L33 42L33 43L34 43L34 42L36 42L36 44L37 44L37 42L36 42L36 41L37 41L37 40L36 40L36 41L35 41L35 39L34 39L34 40L32 40L32 39L33 39L33 38L34 38L34 37L33 37L33 36L34 36L34 35L35 35L35 34L34 34L34 35L33 35L33 36L30 36L30 37L29 37L29 35L30 35L30 34L32 34L32 33L30 33L30 32L29 32L29 34L28 34L28 33L27 33L27 32L28 32L28 31L31 31L31 32L32 32L32 31L31 31L31 30L32 30L32 29L31 29L31 28L32 28L32 27L33 27L33 28L34 28L34 29L33 29L33 32L34 32L34 33L35 33L35 32L34 32L34 30L35 30L35 29L36 29L36 28L34 28L34 27L33 27L33 25L36 25L36 23L39 23L39 20L38 20L38 21L37 21L37 22L36 22L36 23L35 23L35 22L34 22L34 21L36 21L36 20L37 20L37 19L38 19L38 18L35 18L35 20L33 20L33 18L34 18L34 17L33 17L33 16L34 16L34 14L35 14L35 11L36 11L36 16L35 16L35 17L38 17L38 16L37 16L37 15L39 15L39 14L37 14L37 12L38 12L38 11L36 11L36 10L35 10L35 9L36 9L36 8L34 8L34 7ZM19 8L19 9L18 9L18 10L21 10L21 11L18 11L18 14L19 14L19 12L20 12L20 13L22 13L22 9L21 9L21 8ZM11 9L11 10L12 10L12 9ZM33 9L33 11L32 11L32 12L31 12L31 13L32 13L32 14L34 14L34 13L32 13L32 12L34 12L34 11L35 11L35 10L34 10L34 9ZM14 10L14 11L12 11L12 13L13 13L13 14L12 14L12 15L13 15L13 14L14 14L14 13L15 13L15 12L17 12L17 11L15 11L15 10ZM23 11L23 12L24 12L24 11ZM29 11L29 12L30 12L30 11ZM9 13L9 14L10 14L10 13ZM16 13L16 14L17 14L17 13ZM6 14L6 15L7 15L7 14ZM41 14L41 15L42 15L42 14ZM45 15L45 16L46 16L46 15ZM19 16L19 17L16 17L16 18L18 18L18 19L20 19L20 20L18 20L18 21L16 21L16 24L14 24L14 25L15 25L15 26L19 26L19 27L20 27L20 26L21 26L21 27L22 27L22 28L21 28L21 29L23 29L23 31L22 31L22 32L23 32L23 31L24 31L24 30L25 30L25 31L26 31L26 32L24 32L24 33L23 33L23 36L24 36L24 35L25 35L25 36L26 36L26 37L27 37L27 39L28 39L28 36L27 36L27 35L28 35L28 34L27 34L27 33L26 33L26 32L27 32L27 31L26 31L26 29L25 29L25 28L28 28L28 30L30 30L30 29L29 29L29 28L28 28L28 26L29 26L29 27L30 27L30 28L31 28L31 26L32 26L32 25L27 25L27 27L25 27L25 28L24 28L24 27L22 27L22 26L21 26L21 25L22 25L22 21L23 21L23 22L26 22L26 21L25 21L25 20L24 20L24 19L23 19L23 17L22 17L22 16ZM48 16L48 18L49 18L49 16ZM20 17L20 18L22 18L22 17ZM32 17L32 18L33 18L33 17ZM0 18L0 19L1 19L1 18ZM41 18L41 19L42 19L42 18ZM44 18L44 19L43 19L43 20L42 20L42 21L43 21L43 20L44 20L44 21L45 21L45 22L48 22L48 21L46 21L46 18ZM31 19L31 20L29 20L29 21L27 21L27 24L29 24L29 23L28 23L28 22L30 22L30 24L35 24L35 23L34 23L34 22L32 22L32 23L31 23L31 22L30 22L30 21L31 21L31 20L32 20L32 21L33 21L33 20L32 20L32 19ZM21 20L21 21L18 21L18 22L17 22L17 24L16 24L16 25L21 25L21 24L19 24L19 23L20 23L20 22L21 22L21 21L22 21L22 20ZM14 22L14 23L15 23L15 22ZM18 22L18 23L19 23L19 22ZM5 23L5 26L8 26L8 23ZM23 23L23 26L26 26L26 23ZM41 23L41 26L44 26L44 23ZM45 23L45 25L46 25L46 23ZM6 24L6 25L7 25L7 24ZM24 24L24 25L25 25L25 24ZM42 24L42 25L43 25L43 24ZM45 26L45 27L46 27L46 26ZM0 27L0 29L1 29L1 27ZM6 27L6 28L8 28L8 30L7 30L7 29L6 29L6 30L5 30L5 31L6 31L6 32L8 32L8 30L10 30L10 29L9 29L9 28L8 28L8 27ZM16 28L16 29L17 29L17 28ZM37 28L37 29L39 29L39 28ZM6 30L6 31L7 31L7 30ZM20 30L20 31L21 31L21 30ZM43 30L43 31L44 31L44 30ZM9 31L9 34L10 34L10 31ZM16 32L16 33L14 33L14 34L13 34L13 36L14 36L14 35L15 35L15 34L16 34L16 35L17 35L17 36L18 36L18 34L20 34L20 33L18 33L18 34L17 34L17 32ZM24 33L24 34L25 34L25 35L27 35L27 34L25 34L25 33ZM3 34L3 35L4 35L4 34ZM2 36L2 37L4 37L4 36ZM6 37L6 38L7 38L7 37ZM18 37L18 38L19 38L19 37ZM24 37L24 38L25 38L25 37ZM30 37L30 38L32 38L32 37ZM41 37L41 38L42 38L42 37ZM9 39L9 40L10 40L10 39ZM18 39L18 40L17 40L17 41L16 41L16 42L15 42L15 43L14 43L14 44L15 44L15 43L16 43L16 42L17 42L17 41L18 41L18 40L19 40L19 39ZM23 41L23 44L26 44L26 41ZM33 41L33 42L34 42L34 41ZM41 41L41 44L44 44L44 41ZM24 42L24 43L25 43L25 42ZM42 42L42 43L43 43L43 42ZM46 44L46 45L45 45L45 46L44 46L44 45L43 45L43 46L44 46L44 47L43 47L43 48L44 48L44 47L46 47L46 48L47 48L47 47L48 47L48 46L47 46L47 44ZM25 45L25 46L26 46L26 45ZM12 46L12 47L15 47L15 46ZM46 46L46 47L47 47L47 46ZM0 0L0 7L7 7L7 0ZM1 1L1 6L6 6L6 1ZM2 2L2 5L5 5L5 2ZM42 0L42 7L49 7L49 0ZM43 1L43 6L48 6L48 1ZM44 2L44 5L47 5L47 2ZM0 42L0 49L7 49L7 42ZM1 43L1 48L6 48L6 43ZM2 44L2 47L5 47L5 44Z" fill="#000000"/></g></g></svg>
