<?xml version="1.0" encoding="UTF-8"?>
<svg xmlns="http://www.w3.org/2000/svg" version="1.1" width="300" height="300" viewBox="0 0 300 300"><rect x="0" y="0" width="300" height="300" fill="#ffffff"/><g transform="scale(5.882)"><g transform="translate(1,1)"><path fill-rule="evenodd" d="M8 0L8 3L9 3L9 1L11 1L11 2L12 2L12 1L13 1L13 3L12 3L12 4L11 4L11 3L10 3L10 4L9 4L9 5L8 5L8 9L7 9L7 8L6 8L6 9L5 9L5 8L2 8L2 9L3 9L3 11L0 11L0 14L1 14L1 17L2 17L2 16L3 16L3 17L4 17L4 16L5 16L5 17L7 17L7 18L6 18L6 19L7 19L7 20L5 20L5 22L4 22L4 19L5 19L5 18L2 18L2 20L1 20L1 21L0 21L0 23L1 23L1 25L0 25L0 26L1 26L1 27L0 27L0 31L1 31L1 30L2 30L2 27L5 27L5 28L6 28L6 29L4 29L4 32L6 32L6 33L7 33L7 34L5 34L5 35L4 35L4 36L5 36L5 37L7 37L7 36L5 36L5 35L8 35L8 36L10 36L10 35L11 35L11 37L8 37L8 38L5 38L5 39L8 39L8 38L12 38L12 39L11 39L11 40L10 40L10 39L9 39L9 40L10 40L10 41L8 41L8 40L6 40L6 41L8 41L8 42L10 42L10 43L9 43L9 44L8 44L8 47L9 47L9 46L10 46L10 47L11 47L11 48L9 48L9 49L12 49L12 46L13 46L13 48L14 48L14 49L15 49L15 46L13 46L13 42L14 42L14 41L15 41L15 39L17 39L17 38L16 38L16 35L17 35L17 36L18 36L18 34L20 34L20 33L19 33L19 31L20 31L20 32L22 32L22 33L21 33L21 36L20 36L20 37L23 37L23 38L22 38L22 39L21 39L21 38L20 38L20 40L19 40L19 39L18 39L18 40L16 40L16 41L18 41L18 40L19 40L19 42L18 42L18 43L17 43L17 44L15 44L15 43L14 43L14 44L15 44L15 45L16 45L16 46L17 46L17 47L18 47L18 48L17 48L17 49L19 49L19 48L20 48L20 49L21 49L21 48L22 48L22 49L23 49L23 47L26 47L26 49L27 49L27 46L28 46L28 44L27 44L27 42L33 42L33 43L32 43L32 44L33 44L33 45L31 45L31 44L30 44L30 45L29 45L29 47L31 47L31 46L34 46L34 45L35 45L35 46L36 46L36 47L35 47L35 48L33 48L33 47L32 47L32 48L31 48L31 49L35 49L35 48L36 48L36 49L40 49L40 48L36 48L36 47L40 47L40 46L39 46L39 45L42 45L42 46L41 46L41 47L42 47L42 48L41 48L41 49L44 49L44 48L46 48L46 49L49 49L49 48L48 48L48 47L49 47L49 44L47 44L47 43L48 43L48 42L49 42L49 40L48 40L48 39L49 39L49 36L48 36L48 35L49 35L49 34L48 34L48 35L47 35L47 34L46 34L46 32L44 32L44 33L45 33L45 34L38 34L38 35L39 35L39 36L36 36L36 37L41 37L41 40L40 40L40 38L39 38L39 39L37 39L37 38L35 38L35 39L34 39L34 40L33 40L33 38L34 38L34 37L33 37L33 36L34 36L34 35L33 35L33 36L31 36L31 35L30 35L30 34L32 34L32 33L30 33L30 32L29 32L29 31L31 31L31 32L32 32L32 31L31 31L31 30L32 30L32 29L31 29L31 28L32 28L32 27L33 27L33 28L34 28L34 29L33 29L33 32L34 32L34 33L35 33L35 34L36 34L36 35L37 35L37 32L38 32L38 33L43 33L43 32L40 32L40 31L41 31L41 30L42 30L42 29L44 29L44 27L45 27L45 30L46 30L46 31L47 31L47 32L48 32L48 33L49 33L49 32L48 32L48 31L49 31L49 30L48 30L48 31L47 31L47 30L46 30L46 27L48 27L48 26L49 26L49 25L48 25L48 26L46 26L46 25L47 25L47 23L49 23L49 20L47 20L47 18L46 18L46 17L44 17L44 16L43 16L43 18L42 18L42 17L40 17L40 15L41 15L41 16L42 16L42 15L43 15L43 14L46 14L46 11L48 11L48 10L49 10L49 8L46 8L46 9L44 9L44 8L41 8L41 9L42 9L42 10L46 10L46 11L44 11L44 12L43 12L43 11L42 11L42 12L40 12L40 11L41 11L41 10L40 10L40 9L39 9L39 8L40 8L40 7L41 7L41 6L40 6L40 7L39 7L39 5L38 5L38 7L37 7L37 5L34 5L34 4L36 4L36 2L37 2L37 3L38 3L38 2L39 2L39 4L40 4L40 3L41 3L41 0L40 0L40 1L38 1L38 0L37 0L37 1L35 1L35 0L34 0L34 1L35 1L35 3L34 3L34 2L32 2L32 1L31 1L31 0L29 0L29 1L28 1L28 2L26 2L26 1L27 1L27 0L26 0L26 1L25 1L25 0L24 0L24 2L23 2L23 0L21 0L21 1L22 1L22 2L20 2L20 1L18 1L18 2L17 2L17 1L16 1L16 0L12 0L12 1L11 1L11 0ZM14 1L14 2L15 2L15 3L14 3L14 4L12 4L12 5L11 5L11 4L10 4L10 5L11 5L11 7L10 7L10 6L9 6L9 8L10 8L10 9L8 9L8 11L3 11L3 12L2 12L2 13L1 13L1 14L2 14L2 15L3 15L3 16L4 16L4 15L3 15L3 14L2 14L2 13L4 13L4 14L5 14L5 13L6 13L6 14L8 14L8 11L9 11L9 12L10 12L10 13L9 13L9 14L10 14L10 13L11 13L11 16L10 16L10 15L5 15L5 16L8 16L8 17L9 17L9 16L10 16L10 18L8 18L8 20L7 20L7 21L6 21L6 22L7 22L7 21L8 21L8 22L9 22L9 21L10 21L10 23L9 23L9 26L10 26L10 28L11 28L11 29L10 29L10 30L12 30L12 32L13 32L13 33L11 33L11 32L9 32L9 34L12 34L12 36L13 36L13 37L15 37L15 35L16 35L16 34L15 34L15 35L14 35L14 36L13 36L13 33L16 33L16 32L17 32L17 31L14 31L14 30L15 30L15 28L16 28L16 29L17 29L17 30L18 30L18 31L19 31L19 30L20 30L20 31L22 31L22 32L23 32L23 37L24 37L24 38L25 38L25 39L26 39L26 40L27 40L27 41L29 41L29 39L28 39L28 40L27 40L27 39L26 39L26 38L25 38L25 37L24 37L24 36L26 36L26 37L27 37L27 38L29 38L29 37L28 37L28 35L25 35L25 34L29 34L29 33L28 33L28 32L27 32L27 33L26 33L26 31L25 31L25 34L24 34L24 32L23 32L23 31L24 31L24 30L25 30L25 28L24 28L24 27L22 27L22 29L23 29L23 31L22 31L22 30L20 30L20 28L19 28L19 29L17 29L17 28L16 28L16 26L18 26L18 27L19 27L19 25L20 25L20 24L21 24L21 26L22 26L22 24L21 24L21 23L22 23L22 22L25 22L25 20L24 20L24 19L23 19L23 18L22 18L22 16L21 16L21 19L20 19L20 18L19 18L19 17L15 17L15 18L14 18L14 16L19 16L19 15L20 15L20 14L21 14L21 15L22 15L22 14L23 14L23 11L25 11L25 10L26 10L26 11L27 11L27 10L28 10L28 8L29 8L29 9L30 9L30 11L28 11L28 12L27 12L27 13L26 13L26 12L25 12L25 13L26 13L26 14L25 14L25 16L24 16L24 15L23 15L23 17L24 17L24 18L25 18L25 16L26 16L26 20L27 20L27 18L29 18L29 20L30 20L30 21L31 21L31 20L32 20L32 21L33 21L33 20L35 20L35 19L36 19L36 18L38 18L38 19L37 19L37 20L36 20L36 21L34 21L34 22L32 22L32 23L31 23L31 22L29 22L29 21L26 21L26 22L27 22L27 24L29 24L29 23L30 23L30 24L35 24L35 23L36 23L36 25L33 25L33 27L34 27L34 28L36 28L36 29L34 29L34 30L41 30L41 29L42 29L42 27L41 27L41 28L39 28L39 27L40 27L40 26L39 26L39 25L38 25L38 26L39 26L39 27L38 27L38 28L36 28L36 26L37 26L37 24L40 24L40 22L41 22L41 21L39 21L39 23L36 23L36 22L37 22L37 21L38 21L38 20L40 20L40 19L39 19L39 18L40 18L40 17L39 17L39 15L40 15L40 14L39 14L39 13L37 13L37 15L36 15L36 11L37 11L37 12L39 12L39 11L40 11L40 10L39 10L39 9L38 9L38 8L39 8L39 7L38 7L38 8L36 8L36 6L35 6L35 7L34 7L34 6L33 6L33 7L32 7L32 6L31 6L31 7L30 7L30 6L29 6L29 5L30 5L30 4L29 4L29 2L30 2L30 1L29 1L29 2L28 2L28 4L29 4L29 5L28 5L28 6L27 6L27 10L26 10L26 9L25 9L25 10L24 10L24 9L22 9L22 6L21 6L21 7L20 7L20 6L19 6L19 7L18 7L18 4L17 4L17 7L18 7L18 9L17 9L17 8L16 8L16 6L15 6L15 5L14 5L14 4L15 4L15 3L16 3L16 1ZM18 2L18 3L19 3L19 4L21 4L21 3L20 3L20 2ZM22 2L22 3L23 3L23 2ZM31 2L31 5L32 5L32 2ZM33 3L33 4L34 4L34 3ZM13 5L13 6L12 6L12 7L11 7L11 8L12 8L12 9L11 9L11 10L12 10L12 9L14 9L14 8L15 8L15 10L14 10L14 11L12 11L12 13L13 13L13 14L12 14L12 15L13 15L13 14L14 14L14 13L15 13L15 12L17 12L17 11L15 11L15 10L17 10L17 9L16 9L16 8L15 8L15 6L14 6L14 5ZM23 5L23 8L26 8L26 5ZM13 6L13 7L14 7L14 6ZM24 6L24 7L25 7L25 6ZM28 6L28 7L29 7L29 6ZM31 7L31 10L32 10L32 7ZM33 7L33 9L34 9L34 10L35 10L35 11L34 11L34 12L33 12L33 11L30 11L30 12L28 12L28 13L27 13L27 15L26 15L26 16L27 16L27 15L28 15L28 14L29 14L29 13L30 13L30 12L32 12L32 13L31 13L31 14L33 14L33 15L31 15L31 17L30 17L30 15L29 15L29 16L28 16L28 17L30 17L30 18L31 18L31 19L32 19L32 20L33 20L33 18L34 18L34 17L33 17L33 16L34 16L34 14L35 14L35 11L36 11L36 10L35 10L35 9L36 9L36 8L34 8L34 7ZM19 8L19 9L18 9L18 10L21 10L21 11L18 11L18 14L19 14L19 12L20 12L20 13L22 13L22 9L21 9L21 8ZM0 9L0 10L1 10L1 9ZM4 9L4 10L5 10L5 9ZM6 9L6 10L7 10L7 9ZM46 9L46 10L47 10L47 9ZM9 10L9 11L10 11L10 10ZM38 10L38 11L39 11L39 10ZM6 12L6 13L7 13L7 12ZM42 12L42 13L43 13L43 12ZM44 12L44 13L45 13L45 12ZM48 12L48 13L47 13L47 15L48 15L48 13L49 13L49 12ZM16 13L16 14L17 14L17 13ZM33 13L33 14L34 14L34 13ZM41 14L41 15L42 15L42 14ZM45 15L45 16L46 16L46 15ZM11 16L11 18L10 18L10 19L9 19L9 20L10 20L10 21L11 21L11 23L12 23L12 25L13 25L13 27L12 27L12 26L11 26L11 24L10 24L10 26L11 26L11 28L12 28L12 30L13 30L13 29L14 29L14 26L15 26L15 24L14 24L14 23L15 23L15 22L16 22L16 21L18 21L18 22L19 22L19 24L17 24L17 23L16 23L16 25L19 25L19 24L20 24L20 21L18 21L18 20L19 20L19 19L18 19L18 18L17 18L17 20L16 20L16 18L15 18L15 19L14 19L14 20L12 20L12 19L13 19L13 18L12 18L12 17L13 17L13 16ZM36 16L36 17L35 17L35 18L36 18L36 17L38 17L38 16ZM48 16L48 18L49 18L49 16ZM32 17L32 18L33 18L33 17ZM0 18L0 19L1 19L1 18ZM41 18L41 19L42 19L42 18ZM44 18L44 19L43 19L43 20L42 20L42 21L43 21L43 20L44 20L44 21L45 21L45 22L48 22L48 21L46 21L46 18ZM10 19L10 20L11 20L11 19ZM21 19L21 22L22 22L22 21L23 21L23 20L22 20L22 19ZM2 20L2 21L3 21L3 20ZM15 20L15 21L16 21L16 20ZM13 21L13 23L14 23L14 21ZM2 22L2 23L4 23L4 22ZM28 22L28 23L29 23L29 22ZM34 22L34 23L35 23L35 22ZM5 23L5 26L8 26L8 23ZM23 23L23 26L26 26L26 23ZM41 23L41 26L44 26L44 23ZM45 23L45 25L46 25L46 23ZM2 24L2 25L1 25L1 26L4 26L4 24ZM6 24L6 25L7 25L7 24ZM13 24L13 25L14 25L14 24ZM24 24L24 25L25 25L25 24ZM42 24L42 25L43 25L43 24ZM27 25L27 27L26 27L26 29L27 29L27 31L28 31L28 29L27 29L27 27L28 27L28 28L29 28L29 27L30 27L30 28L31 28L31 26L32 26L32 25ZM28 26L28 27L29 27L29 26ZM45 26L45 27L46 27L46 26ZM6 27L6 28L8 28L8 30L7 30L7 29L6 29L6 30L5 30L5 31L6 31L6 32L8 32L8 30L9 30L9 28L8 28L8 27ZM38 28L38 29L39 29L39 28ZM47 28L47 29L48 29L48 28ZM29 29L29 30L30 30L30 29ZM6 30L6 31L7 31L7 30ZM43 30L43 31L44 31L44 30ZM2 31L2 32L3 32L3 31ZM13 31L13 32L14 32L14 31ZM34 31L34 32L35 32L35 33L36 33L36 32L35 32L35 31ZM38 31L38 32L39 32L39 31ZM0 32L0 33L1 33L1 32ZM2 33L2 36L1 36L1 35L0 35L0 36L1 36L1 40L0 40L0 41L3 41L3 40L4 40L4 39L2 39L2 37L3 37L3 38L4 38L4 37L3 37L3 34L4 34L4 33ZM45 34L45 35L41 35L41 37L42 37L42 38L43 38L43 37L44 37L44 38L46 38L46 37L48 37L48 36L47 36L47 35L46 35L46 34ZM42 36L42 37L43 37L43 36ZM18 37L18 38L19 38L19 37ZM31 37L31 38L30 38L30 40L31 40L31 41L33 41L33 42L34 42L34 43L33 43L33 44L35 44L35 45L36 45L36 46L37 46L37 45L38 45L38 44L40 44L40 41L39 41L39 42L37 42L37 41L38 41L38 40L37 40L37 41L35 41L35 42L34 42L34 41L33 41L33 40L32 40L32 39L31 39L31 38L32 38L32 37ZM12 39L12 41L10 41L10 42L11 42L11 43L10 43L10 44L9 44L9 45L10 45L10 46L12 46L12 44L11 44L11 43L12 43L12 42L13 42L13 39ZM22 39L22 40L24 40L24 39ZM43 39L43 40L46 40L46 41L45 41L45 42L48 42L48 41L47 41L47 40L46 40L46 39ZM20 41L20 43L21 43L21 45L22 45L22 41ZM23 41L23 44L26 44L26 41ZM41 41L41 44L44 44L44 41ZM24 42L24 43L25 43L25 42ZM35 42L35 44L36 44L36 45L37 45L37 44L36 44L36 43L37 43L37 42ZM42 42L42 43L43 43L43 42ZM17 44L17 45L20 45L20 44ZM46 44L46 45L44 45L44 46L42 46L42 47L43 47L43 48L44 48L44 47L46 47L46 48L47 48L47 47L48 47L48 46L47 46L47 44ZM23 45L23 46L22 46L22 47L23 47L23 46L24 46L24 45ZM25 45L25 46L26 46L26 45ZM18 46L18 47L19 47L19 46ZM20 46L20 47L21 47L21 46ZM46 46L46 47L47 47L47 46ZM0 0L0 7L7 7L7 0ZM1 1L1 6L6 6L6 1ZM2 2L2 5L5 5L5 2ZM42 0L42 7L49 7L49 0ZM43 1L43 6L48 6L48 1ZM44 2L44 5L47 5L47 2ZM0 42L0 49L7 49L7 42ZM1 43L1 48L6 48L6 43ZM2 44L2 47L5 47L5 44Z" fill="#000000"/></g></g></svg>
