<?xml version="1.0" encoding="UTF-8"?>
<svg xmlns="http://www.w3.org/2000/svg" version="1.1" width="300" height="300" viewBox="0 0 300 300"><rect x="0" y="0" width="300" height="300" fill="#ffffff"/><g transform="scale(5.882)"><g transform="translate(1,1)"><path fill-rule="evenodd" d="M8 0L8 2L9 2L9 3L8 3L8 7L9 7L9 8L10 8L10 9L8 9L8 11L7 11L7 10L5 10L5 9L4 9L4 8L3 8L3 9L0 9L0 10L1 10L1 11L2 11L2 12L0 12L0 13L3 13L3 11L4 11L4 10L5 10L5 14L4 14L4 15L2 15L2 14L1 14L1 15L0 15L0 16L1 16L1 15L2 15L2 16L3 16L3 17L0 17L0 20L1 20L1 21L2 21L2 23L3 23L3 24L2 24L2 25L4 25L4 27L7 27L7 28L6 28L6 29L4 29L4 28L0 28L0 29L1 29L1 31L2 31L2 32L3 32L3 33L2 33L2 34L1 34L1 33L0 33L0 34L1 34L1 37L0 37L0 38L1 38L1 40L0 40L0 41L3 41L3 40L4 40L4 39L2 39L2 37L3 37L3 38L5 38L5 39L7 39L7 40L6 40L6 41L7 41L7 40L8 40L8 42L9 42L9 45L8 45L8 46L10 46L10 45L12 45L12 44L13 44L13 43L10 43L10 41L11 41L11 42L13 42L13 41L11 41L11 40L10 40L10 39L12 39L12 40L13 40L13 39L14 39L14 40L15 40L15 41L14 41L14 44L16 44L16 45L15 45L15 46L14 46L14 45L13 45L13 46L14 46L14 47L13 47L13 49L17 49L17 47L15 47L15 46L17 46L17 45L18 45L18 44L16 44L16 43L17 43L17 41L18 41L18 43L19 43L19 46L18 46L18 48L19 48L19 49L20 49L20 46L21 46L21 47L22 47L22 46L23 46L23 47L24 47L24 49L25 49L25 48L26 48L26 47L24 47L24 45L25 45L25 46L27 46L27 47L28 47L28 45L29 45L29 46L30 46L30 45L29 45L29 41L28 41L28 39L29 39L29 40L30 40L30 43L31 43L31 44L32 44L32 46L31 46L31 47L30 47L30 48L31 48L31 49L32 49L32 47L34 47L34 45L33 45L33 44L32 44L32 43L33 43L33 42L32 42L32 43L31 43L31 41L33 41L33 40L32 40L32 39L34 39L34 44L35 44L35 45L36 45L36 47L35 47L35 48L36 48L36 49L38 49L38 48L39 48L39 47L37 47L37 41L38 41L38 40L40 40L40 42L38 42L38 43L40 43L40 45L41 45L41 47L42 47L42 45L45 45L45 44L46 44L46 45L47 45L47 44L48 44L48 45L49 45L49 43L48 43L48 42L47 42L47 44L46 44L46 43L45 43L45 40L44 40L44 39L45 39L45 35L47 35L47 34L46 34L46 33L47 33L47 32L48 32L48 33L49 33L49 30L47 30L47 31L46 31L46 28L44 28L44 29L43 29L43 28L42 28L42 27L46 27L46 26L48 26L48 25L46 25L46 24L47 24L47 23L48 23L48 24L49 24L49 22L48 22L48 21L49 21L49 19L47 19L47 20L48 20L48 21L47 21L47 22L46 22L46 24L45 24L45 21L46 21L46 20L45 20L45 21L44 21L44 20L43 20L43 21L44 21L44 22L40 22L40 24L39 24L39 23L37 23L37 21L35 21L35 22L34 22L34 21L32 21L32 20L33 20L33 19L34 19L34 20L35 20L35 18L36 18L36 19L39 19L39 16L40 16L40 13L39 13L39 14L38 14L38 13L37 13L37 12L36 12L36 13L35 13L35 14L34 14L34 15L32 15L32 14L31 14L31 12L30 12L30 10L31 10L31 11L34 11L34 12L35 12L35 11L36 11L36 10L38 10L38 12L40 12L40 11L41 11L41 12L42 12L42 11L43 11L43 12L44 12L44 13L43 13L43 14L45 14L45 16L44 16L44 15L42 15L42 16L44 16L44 17L45 17L45 18L43 18L43 17L40 17L40 18L42 18L42 19L46 19L46 15L47 15L47 16L48 16L48 17L49 17L49 15L47 15L47 13L46 13L46 12L44 12L44 11L48 11L48 14L49 14L49 11L48 11L48 10L46 10L46 8L43 8L43 10L42 10L42 9L41 9L41 6L40 6L40 7L39 7L39 5L38 5L38 3L36 3L36 4L37 4L37 6L36 6L36 5L35 5L35 6L34 6L34 4L35 4L35 1L34 1L34 0L32 0L32 1L31 1L31 0L27 0L27 1L29 1L29 2L30 2L30 3L31 3L31 2L32 2L32 1L34 1L34 4L30 4L30 5L29 5L29 6L28 6L28 7L27 7L27 5L28 5L28 3L27 3L27 2L26 2L26 1L23 1L23 0L19 0L19 2L20 2L20 3L18 3L18 5L19 5L19 4L20 4L20 3L21 3L21 4L22 4L22 5L21 5L21 6L20 6L20 7L21 7L21 6L22 6L22 8L19 8L19 6L18 6L18 7L17 7L17 1L16 1L16 0L14 0L14 1L15 1L15 3L14 3L14 2L13 2L13 1L12 1L12 2L13 2L13 3L14 3L14 7L13 7L13 5L12 5L12 3L11 3L11 4L10 4L10 1L11 1L11 0ZM37 0L37 2L39 2L39 4L40 4L40 3L41 3L41 0L40 0L40 1L38 1L38 0ZM21 1L21 3L22 3L22 1ZM30 1L30 2L31 2L31 1ZM23 2L23 3L24 3L24 4L26 4L26 3L25 3L25 2ZM9 4L9 7L10 7L10 4ZM15 4L15 5L16 5L16 4ZM11 5L11 8L13 8L13 9L14 9L14 11L13 11L13 10L12 10L12 9L10 9L10 10L9 10L9 11L8 11L8 12L9 12L9 15L8 15L8 16L7 16L7 15L6 15L6 16L7 16L7 17L5 17L5 16L4 16L4 17L3 17L3 18L1 18L1 20L2 20L2 21L4 21L4 22L9 22L9 24L10 24L10 25L11 25L11 26L10 26L10 27L9 27L9 30L8 30L8 28L7 28L7 29L6 29L6 30L4 30L4 29L3 29L3 30L4 30L4 31L3 31L3 32L5 32L5 33L6 33L6 34L7 34L7 35L6 35L6 36L7 36L7 37L5 37L5 35L4 35L4 34L2 34L2 36L3 36L3 37L5 37L5 38L7 38L7 39L8 39L8 37L9 37L9 36L7 36L7 35L10 35L10 36L11 36L11 35L10 35L10 34L11 34L11 33L12 33L12 31L13 31L13 30L14 30L14 31L15 31L15 32L16 32L16 33L17 33L17 32L16 32L16 31L17 31L17 30L18 30L18 32L19 32L19 33L18 33L18 35L19 35L19 34L21 34L21 35L22 35L22 34L21 34L21 32L20 32L20 31L19 31L19 28L16 28L16 27L19 27L19 26L20 26L20 27L22 27L22 25L21 25L21 26L20 26L20 24L21 24L21 23L20 23L20 21L19 21L19 20L20 20L20 19L19 19L19 18L18 18L18 17L17 17L17 15L15 15L15 14L17 14L17 13L18 13L18 15L19 15L19 16L20 16L20 17L21 17L21 19L23 19L23 18L22 18L22 17L21 17L21 16L20 16L20 14L22 14L22 15L24 15L24 16L23 16L23 17L25 17L25 16L31 16L31 17L27 17L27 18L25 18L25 19L24 19L24 21L25 21L25 22L26 22L26 21L25 21L25 20L26 20L26 19L28 19L28 20L27 20L27 22L29 22L29 21L31 21L31 22L30 22L30 23L32 23L32 21L31 21L31 20L32 20L32 19L33 19L33 18L32 18L32 17L33 17L33 16L32 16L32 15L30 15L30 13L29 13L29 14L28 14L28 13L27 13L27 11L26 11L26 10L25 10L25 13L23 13L23 14L22 14L22 12L24 12L24 9L22 9L22 10L21 10L21 11L19 11L19 10L20 10L20 9L18 9L18 8L17 8L17 7L16 7L16 6L15 6L15 7L14 7L14 8L13 8L13 7L12 7L12 5ZM23 5L23 8L26 8L26 5ZM30 5L30 6L29 6L29 7L28 7L28 8L27 8L27 9L28 9L28 10L30 10L30 9L31 9L31 8L30 8L30 9L29 9L29 7L30 7L30 6L31 6L31 7L32 7L32 9L33 9L33 10L34 10L34 11L35 11L35 10L34 10L34 9L37 9L37 8L39 8L39 7L38 7L38 6L37 6L37 7L36 7L36 6L35 6L35 7L36 7L36 8L33 8L33 7L34 7L34 6L33 6L33 7L32 7L32 5ZM24 6L24 7L25 7L25 6ZM6 8L6 9L7 9L7 8ZM16 8L16 9L15 9L15 13L17 13L17 11L16 11L16 10L18 10L18 9L17 9L17 8ZM47 8L47 9L49 9L49 8ZM3 9L3 10L2 10L2 11L3 11L3 10L4 10L4 9ZM40 9L40 10L41 10L41 9ZM43 10L43 11L44 11L44 10ZM6 11L6 12L7 12L7 11ZM21 11L21 12L22 12L22 11ZM28 11L28 12L29 12L29 11ZM10 12L10 13L11 13L11 15L10 15L10 16L13 16L13 18L14 18L14 20L13 20L13 19L12 19L12 18L11 18L11 19L10 19L10 17L9 17L9 16L8 16L8 17L9 17L9 18L6 18L6 19L2 19L2 20L4 20L4 21L5 21L5 20L6 20L6 21L7 21L7 20L8 20L8 19L9 19L9 22L10 22L10 24L11 24L11 25L12 25L12 26L11 26L11 27L10 27L10 28L11 28L11 27L13 27L13 28L12 28L12 29L13 29L13 28L14 28L14 30L17 30L17 29L15 29L15 26L16 26L16 25L17 25L17 24L18 24L18 21L16 21L16 20L15 20L15 18L14 18L14 15L13 15L13 14L14 14L14 12L12 12L12 13L11 13L11 12ZM18 12L18 13L19 13L19 12ZM32 12L32 13L33 13L33 12ZM6 13L6 14L8 14L8 13ZM25 13L25 14L26 14L26 13ZM36 13L36 14L37 14L37 15L34 15L34 18L35 18L35 17L36 17L36 16L37 16L37 17L38 17L38 16L39 16L39 15L38 15L38 14L37 14L37 13ZM41 13L41 14L42 14L42 13ZM37 15L37 16L38 16L38 15ZM17 18L17 19L18 19L18 18ZM30 18L30 19L32 19L32 18ZM6 19L6 20L7 20L7 19ZM11 19L11 20L10 20L10 22L11 22L11 20L12 20L12 21L13 21L13 20L12 20L12 19ZM21 20L21 22L23 22L23 21L22 21L22 20ZM38 20L38 22L39 22L39 20ZM40 20L40 21L41 21L41 20ZM15 21L15 22L13 22L13 23L12 23L12 25L13 25L13 27L14 27L14 25L13 25L13 23L14 23L14 24L17 24L17 23L16 23L16 21ZM35 22L35 23L33 23L33 24L32 24L32 25L31 25L31 26L30 26L30 27L29 27L29 26L28 26L28 25L29 25L29 23L27 23L27 26L28 26L28 27L29 27L29 28L30 28L30 27L31 27L31 28L33 28L33 29L34 29L34 30L36 30L36 29L37 29L37 31L35 31L35 32L34 32L34 31L32 31L32 29L26 29L26 28L27 28L27 27L26 27L26 28L25 28L25 27L24 27L24 28L22 28L22 29L23 29L23 31L22 31L22 33L23 33L23 34L24 34L24 33L26 33L26 34L25 34L25 35L27 35L27 33L29 33L29 34L30 34L30 35L29 35L29 36L27 36L27 38L29 38L29 37L30 37L30 39L31 39L31 38L32 38L32 37L33 37L33 36L32 36L32 37L31 37L31 36L30 36L30 35L31 35L31 34L33 34L33 35L34 35L34 36L35 36L35 38L36 38L36 37L37 37L37 40L38 40L38 38L39 38L39 39L40 39L40 40L41 40L41 39L42 39L42 40L43 40L43 39L42 39L42 38L41 38L41 39L40 39L40 37L41 37L41 36L38 36L38 34L39 34L39 35L40 35L40 34L41 34L41 35L42 35L42 36L43 36L43 38L44 38L44 35L45 35L45 33L46 33L46 31L43 31L43 30L41 30L41 29L42 29L42 28L40 28L40 29L39 29L39 27L36 27L36 29L34 29L34 28L35 28L35 27L31 27L31 26L32 26L32 25L33 25L33 26L34 26L34 25L35 25L35 23L36 23L36 22ZM5 23L5 26L8 26L8 23ZM23 23L23 26L26 26L26 23ZM41 23L41 26L44 26L44 23ZM6 24L6 25L7 25L7 24ZM24 24L24 25L25 25L25 24ZM36 24L36 25L37 25L37 24ZM38 24L38 26L39 26L39 24ZM42 24L42 25L43 25L43 24ZM18 25L18 26L19 26L19 25ZM1 26L1 27L3 27L3 26ZM47 27L47 29L48 29L48 28L49 28L49 27ZM20 28L20 30L21 30L21 28ZM37 28L37 29L38 29L38 31L39 31L39 29L38 29L38 28ZM24 29L24 31L26 31L26 33L27 33L27 32L28 32L28 31L26 31L26 30L25 30L25 29ZM6 30L6 31L7 31L7 30ZM9 30L9 31L8 31L8 32L9 32L9 31L10 31L10 33L8 33L8 34L10 34L10 33L11 33L11 31L12 31L12 30ZM29 30L29 32L32 32L32 31L31 31L31 30ZM41 31L41 33L42 33L42 34L43 34L43 35L44 35L44 34L43 34L43 33L44 33L44 32L43 32L43 31ZM6 32L6 33L7 33L7 32ZM35 32L35 33L37 33L37 34L36 34L36 35L35 35L35 34L34 34L34 33L33 33L33 34L34 34L34 35L35 35L35 36L36 36L36 35L37 35L37 34L38 34L38 33L39 33L39 32ZM13 33L13 34L12 34L12 35L13 35L13 37L10 37L10 38L13 38L13 37L14 37L14 35L15 35L15 33ZM48 34L48 36L47 36L47 37L49 37L49 34ZM3 35L3 36L4 36L4 35ZM16 35L16 36L15 36L15 37L16 37L16 36L17 36L17 37L18 37L18 41L19 41L19 42L20 42L20 44L22 44L22 43L21 43L21 42L22 42L22 40L27 40L27 39L26 39L26 38L24 38L24 37L25 37L25 36L24 36L24 37L23 37L23 36L17 36L17 35ZM22 37L22 38L20 38L20 39L19 39L19 40L20 40L20 42L21 42L21 40L22 40L22 38L23 38L23 39L24 39L24 38L23 38L23 37ZM15 38L15 40L17 40L17 38ZM48 38L48 40L47 40L47 39L46 39L46 40L47 40L47 41L49 41L49 38ZM35 40L35 41L36 41L36 40ZM15 41L15 42L16 42L16 41ZM23 41L23 44L26 44L26 41ZM41 41L41 44L44 44L44 41ZM24 42L24 43L25 43L25 42ZM35 42L35 44L36 44L36 42ZM42 42L42 43L43 43L43 42ZM27 43L27 45L28 45L28 43ZM38 44L38 46L39 46L39 44ZM11 46L11 48L10 48L10 47L9 47L9 48L10 48L10 49L11 49L11 48L12 48L12 46ZM43 46L43 47L44 47L44 46ZM45 46L45 48L44 48L44 49L46 49L46 47L47 47L47 49L49 49L49 46L48 46L48 47L47 47L47 46ZM22 48L22 49L23 49L23 48ZM27 48L27 49L29 49L29 48ZM40 48L40 49L43 49L43 48ZM0 0L0 7L7 7L7 0ZM1 1L1 6L6 6L6 1ZM2 2L2 5L5 5L5 2ZM42 0L42 7L49 7L49 0ZM43 1L43 6L48 6L48 1ZM44 2L44 5L47 5L47 2ZM0 42L0 49L7 49L7 42ZM1 43L1 48L6 48L6 43ZM2 44L2 47L5 47L5 44Z" fill="#000000"/></g></g></svg>
