<?xml version="1.0" encoding="UTF-8"?>
<svg xmlns="http://www.w3.org/2000/svg" version="1.1" width="300" height="300" viewBox="0 0 300 300"><rect x="0" y="0" width="300" height="300" fill="#ffffff"/><g transform="scale(5.882)"><g transform="translate(1,1)"><path fill-rule="evenodd" d="M8 0L8 2L9 2L9 3L8 3L8 7L9 7L9 6L10 6L10 8L11 8L11 9L12 9L12 10L13 10L13 11L14 11L14 9L15 9L15 13L17 13L17 14L15 14L15 15L17 15L17 17L15 17L15 18L14 18L14 15L13 15L13 14L14 14L14 12L12 12L12 13L11 13L11 12L10 12L10 13L11 13L11 15L10 15L10 16L11 16L11 18L14 18L14 20L13 20L13 21L11 21L11 22L10 22L10 20L12 20L12 19L10 19L10 17L9 17L9 16L8 16L8 15L9 15L9 14L8 14L8 15L7 15L7 14L6 14L6 13L9 13L9 11L8 11L8 9L7 9L7 8L6 8L6 9L5 9L5 10L6 10L6 11L3 11L3 9L4 9L4 8L3 8L3 9L2 9L2 10L1 10L1 11L2 11L2 12L0 12L0 13L2 13L2 14L1 14L1 15L0 15L0 16L1 16L1 15L2 15L2 16L3 16L3 17L4 17L4 16L5 16L5 17L7 17L7 16L8 16L8 17L9 17L9 18L6 18L6 19L3 19L3 20L4 20L4 21L2 21L2 20L1 20L1 18L2 18L2 17L0 17L0 20L1 20L1 21L2 21L2 23L3 23L3 24L2 24L2 25L4 25L4 27L7 27L7 28L6 28L6 29L4 29L4 28L2 28L2 30L1 30L1 31L0 31L0 32L1 32L1 31L2 31L2 32L3 32L3 31L4 31L4 30L6 30L6 31L7 31L7 30L6 30L6 29L7 29L7 28L8 28L8 30L10 30L10 29L11 29L11 28L12 28L12 29L14 29L14 30L13 30L13 31L12 31L12 30L11 30L11 31L12 31L12 33L11 33L11 32L10 32L10 35L7 35L7 34L9 34L9 33L7 33L7 32L6 32L6 33L7 33L7 34L6 34L6 35L5 35L5 34L4 34L4 33L5 33L5 32L4 32L4 33L0 33L0 34L1 34L1 37L0 37L0 38L1 38L1 40L0 40L0 41L3 41L3 40L4 40L4 39L2 39L2 38L3 38L3 35L4 35L4 36L5 36L5 37L4 37L4 38L5 38L5 39L7 39L7 40L6 40L6 41L7 41L7 40L9 40L9 41L8 41L8 42L9 42L9 45L8 45L8 46L9 46L9 47L11 47L11 46L13 46L13 47L12 47L12 48L13 48L13 49L14 49L14 48L15 48L15 47L14 47L14 45L11 45L11 44L13 44L13 43L12 43L12 41L11 41L11 40L10 40L10 39L12 39L12 40L13 40L13 39L14 39L14 40L15 40L15 41L14 41L14 44L15 44L15 45L16 45L16 43L17 43L17 42L16 42L16 41L18 41L18 43L22 43L22 44L19 44L19 45L21 45L21 47L20 47L20 46L16 46L16 47L18 47L18 49L22 49L22 48L26 48L26 47L25 47L25 46L27 46L27 47L28 47L28 45L29 45L29 46L32 46L32 47L30 47L30 48L31 48L31 49L32 49L32 47L34 47L34 45L32 45L32 44L31 44L31 45L30 45L30 44L29 44L29 43L30 43L30 42L29 42L29 41L31 41L31 43L33 43L33 42L32 42L32 41L33 41L33 39L34 39L34 44L35 44L35 48L36 48L36 49L38 49L38 48L39 48L39 47L37 47L37 41L38 41L38 40L40 40L40 42L38 42L38 43L40 43L40 45L41 45L41 47L42 47L42 45L43 45L43 47L44 47L44 45L45 45L45 44L46 44L46 45L47 45L47 44L48 44L48 45L49 45L49 43L48 43L48 42L47 42L47 44L46 44L46 43L45 43L45 40L44 40L44 39L45 39L45 38L44 38L44 36L45 36L45 37L49 37L49 30L48 30L48 28L49 28L49 27L47 27L47 30L48 30L48 31L46 31L46 28L44 28L44 29L43 29L43 28L42 28L42 27L45 27L45 25L46 25L46 26L48 26L48 25L46 25L46 24L47 24L47 23L48 23L48 24L49 24L49 22L48 22L48 21L49 21L49 19L47 19L47 20L48 20L48 21L47 21L47 22L46 22L46 24L45 24L45 21L46 21L46 20L45 20L45 21L44 21L44 20L43 20L43 21L44 21L44 22L40 22L40 20L38 20L38 22L39 22L39 23L37 23L37 21L35 21L35 22L34 22L34 21L32 21L32 20L33 20L33 19L34 19L34 20L35 20L35 19L39 19L39 16L40 16L40 13L39 13L39 16L38 16L38 14L36 14L36 13L38 13L38 12L40 12L40 11L42 11L42 10L40 10L40 9L41 9L41 6L40 6L40 7L39 7L39 5L38 5L38 3L36 3L36 4L37 4L37 6L36 6L36 5L33 5L33 4L35 4L35 1L34 1L34 0L32 0L32 1L31 1L31 0L27 0L27 1L29 1L29 2L30 2L30 3L31 3L31 2L32 2L32 3L33 3L33 4L32 4L32 5L33 5L33 6L32 6L32 7L31 7L31 6L30 6L30 5L31 5L31 4L30 4L30 5L29 5L29 3L28 3L28 5L29 5L29 6L28 6L28 8L29 8L29 9L27 9L27 2L26 2L26 1L25 1L25 0L23 0L23 1L25 1L25 3L26 3L26 4L23 4L23 2L22 2L22 0L20 0L20 1L21 1L21 2L20 2L20 3L19 3L19 0L16 0L16 1L18 1L18 2L14 2L14 1L15 1L15 0L14 0L14 1L13 1L13 4L14 4L14 3L15 3L15 4L16 4L16 5L14 5L14 8L11 8L11 6L10 6L10 5L9 5L9 3L11 3L11 5L12 5L12 7L13 7L13 5L12 5L12 1L11 1L11 2L9 2L9 0ZM37 0L37 2L39 2L39 4L40 4L40 3L41 3L41 0L40 0L40 1L38 1L38 0ZM30 1L30 2L31 2L31 1ZM32 1L32 2L34 2L34 1ZM21 2L21 3L20 3L20 4L19 4L19 3L18 3L18 4L19 4L19 5L18 5L18 6L17 6L17 7L16 7L16 6L15 6L15 9L16 9L16 8L22 8L22 6L21 6L21 5L22 5L22 4L21 4L21 3L22 3L22 2ZM23 5L23 8L26 8L26 5ZM18 6L18 7L19 7L19 6ZM20 6L20 7L21 7L21 6ZM24 6L24 7L25 7L25 6ZM29 6L29 7L30 7L30 6ZM33 6L33 7L32 7L32 9L33 9L33 10L34 10L34 11L32 11L32 10L30 10L30 9L31 9L31 8L30 8L30 9L29 9L29 10L30 10L30 11L29 11L29 15L28 15L28 12L27 12L27 11L28 11L28 10L27 10L27 11L26 11L26 10L25 10L25 9L24 9L24 10L25 10L25 11L23 11L23 9L22 9L22 10L21 10L21 11L19 11L19 10L20 10L20 9L18 9L18 10L16 10L16 11L17 11L17 13L18 13L18 15L19 15L19 18L18 18L18 17L17 17L17 18L18 18L18 19L16 19L16 18L15 18L15 19L16 19L16 21L18 21L18 22L13 22L13 23L11 23L11 24L13 24L13 23L15 23L15 24L14 24L14 25L13 25L13 26L10 26L10 23L9 23L9 27L10 27L10 28L9 28L9 29L10 29L10 28L11 28L11 27L12 27L12 28L14 28L14 29L17 29L17 30L14 30L14 31L15 31L15 32L13 32L13 33L14 33L14 34L12 34L12 35L13 35L13 37L10 37L10 38L13 38L13 37L14 37L14 35L15 35L15 32L16 32L16 33L17 33L17 34L18 34L18 35L19 35L19 34L21 34L21 35L22 35L22 34L21 34L21 32L20 32L20 31L17 31L17 30L19 30L19 28L20 28L20 30L21 30L21 31L23 31L23 32L22 32L22 33L23 33L23 36L17 36L17 35L16 35L16 36L15 36L15 37L16 37L16 36L17 36L17 37L18 37L18 41L20 41L20 40L19 40L19 39L20 39L20 38L22 38L22 40L21 40L21 42L22 42L22 40L23 40L23 38L24 38L24 37L25 37L25 35L27 35L27 34L28 34L28 33L29 33L29 34L30 34L30 35L29 35L29 36L28 36L28 38L27 38L27 39L26 39L26 38L25 38L25 39L24 39L24 40L27 40L27 39L28 39L28 41L29 41L29 40L30 40L30 39L31 39L31 40L32 40L32 39L31 39L31 38L32 38L32 37L33 37L33 36L32 36L32 37L29 37L29 36L31 36L31 34L33 34L33 35L34 35L34 36L35 36L35 38L36 38L36 36L37 36L37 35L40 35L40 34L41 34L41 35L42 35L42 36L38 36L38 37L37 37L37 38L38 38L38 39L37 39L37 40L38 40L38 39L40 39L40 40L41 40L41 39L40 39L40 37L41 37L41 38L42 38L42 40L43 40L43 38L42 38L42 36L44 36L44 35L45 35L45 33L46 33L46 34L47 34L47 33L48 33L48 32L47 32L47 33L46 33L46 31L43 31L43 30L41 30L41 29L42 29L42 28L40 28L40 29L39 29L39 27L38 27L38 28L37 28L37 27L36 27L36 29L34 29L34 30L36 30L36 29L39 29L39 30L38 30L38 32L37 32L37 31L35 31L35 32L34 32L34 33L33 33L33 31L32 31L32 29L29 29L29 30L31 30L31 31L32 31L32 32L27 32L27 33L26 33L26 32L25 32L25 31L28 31L28 30L25 30L25 31L24 31L24 29L25 29L25 28L26 28L26 27L24 27L24 28L23 28L23 27L21 27L21 26L22 26L22 23L21 23L21 21L20 21L20 20L21 20L21 18L22 18L22 19L23 19L23 17L25 17L25 15L26 15L26 16L29 16L29 15L31 15L31 18L29 18L29 17L26 17L26 21L25 21L25 19L24 19L24 21L25 21L25 22L29 22L29 23L27 23L27 26L28 26L28 27L29 27L29 28L30 28L30 27L31 27L31 28L33 28L33 27L31 27L31 26L32 26L32 25L33 25L33 26L34 26L34 25L35 25L35 23L36 23L36 22L35 22L35 23L33 23L33 24L32 24L32 25L31 25L31 26L30 26L30 27L29 27L29 26L28 26L28 25L29 25L29 23L32 23L32 21L31 21L31 20L32 20L32 19L33 19L33 18L32 18L32 17L33 17L33 16L32 16L32 15L34 15L34 18L36 18L36 17L35 17L35 15L34 15L34 14L35 14L35 13L36 13L36 12L37 12L37 11L38 11L38 10L39 10L39 9L38 9L38 8L39 8L39 7L38 7L38 6L37 6L37 7L36 7L36 6L35 6L35 7L36 7L36 8L33 8L33 7L34 7L34 6ZM37 7L37 8L38 8L38 7ZM43 8L43 9L44 9L44 10L43 10L43 14L45 14L45 16L44 16L44 15L42 15L42 16L44 16L44 17L45 17L45 18L43 18L43 17L40 17L40 18L42 18L42 19L46 19L46 15L47 15L47 16L48 16L48 17L49 17L49 15L47 15L47 13L46 13L46 11L48 11L48 14L49 14L49 11L48 11L48 10L46 10L46 11L45 11L45 9L46 9L46 8ZM47 8L47 9L49 9L49 8ZM6 9L6 10L7 10L7 9ZM34 9L34 10L35 10L35 11L34 11L34 12L35 12L35 11L36 11L36 10L38 10L38 9ZM6 11L6 12L8 12L8 11ZM21 11L21 12L22 12L22 14L20 14L20 18L19 18L19 20L20 20L20 18L21 18L21 17L23 17L23 16L24 16L24 15L25 15L25 14L26 14L26 13L25 13L25 14L24 14L24 13L23 13L23 12L22 12L22 11ZM30 11L30 12L31 12L31 13L30 13L30 14L31 14L31 13L32 13L32 14L33 14L33 12L32 12L32 11ZM44 11L44 12L45 12L45 11ZM2 12L2 13L3 13L3 14L4 14L4 15L3 15L3 16L4 16L4 15L5 15L5 13L4 13L4 12ZM18 12L18 13L19 13L19 12ZM41 12L41 14L42 14L42 12ZM22 14L22 15L24 15L24 14ZM6 15L6 16L7 16L7 15ZM37 16L37 17L38 17L38 16ZM31 18L31 19L32 19L32 18ZM6 19L6 20L5 20L5 21L4 21L4 22L9 22L9 19L8 19L8 20L7 20L7 19ZM27 19L27 20L28 20L28 19ZM6 20L6 21L7 21L7 20ZM22 20L22 21L23 21L23 20ZM29 20L29 21L30 21L30 22L31 22L31 21L30 21L30 20ZM19 21L19 22L18 22L18 23L16 23L16 24L18 24L18 25L19 25L19 22L20 22L20 21ZM0 22L0 23L1 23L1 22ZM5 23L5 26L8 26L8 23ZM23 23L23 26L26 26L26 23ZM39 23L39 24L38 24L38 26L39 26L39 25L40 25L40 23ZM41 23L41 26L44 26L44 23ZM0 24L0 28L1 28L1 27L3 27L3 26L1 26L1 24ZM6 24L6 25L7 25L7 24ZM20 24L20 25L21 25L21 24ZM24 24L24 25L25 25L25 24ZM36 24L36 25L37 25L37 24ZM42 24L42 25L43 25L43 24ZM15 25L15 26L17 26L17 25ZM13 26L13 27L14 27L14 26ZM18 26L18 28L17 28L17 29L18 29L18 28L19 28L19 27L20 27L20 26ZM34 27L34 28L35 28L35 27ZM22 28L22 29L21 29L21 30L22 30L22 29L23 29L23 28ZM27 28L27 29L28 29L28 28ZM3 29L3 30L4 30L4 29ZM40 30L40 31L39 31L39 32L38 32L38 33L37 33L37 32L35 32L35 33L37 33L37 34L36 34L36 35L35 35L35 34L34 34L34 35L35 35L35 36L36 36L36 35L37 35L37 34L38 34L38 33L39 33L39 32L40 32L40 31L41 31L41 32L42 32L42 33L41 33L41 34L42 34L42 35L44 35L44 32L43 32L43 31L41 31L41 30ZM8 31L8 32L9 32L9 31ZM16 31L16 32L17 32L17 33L18 33L18 34L19 34L19 33L18 33L18 32L17 32L17 31ZM23 32L23 33L24 33L24 34L26 34L26 33L24 33L24 32ZM2 34L2 35L3 35L3 34ZM6 35L6 36L7 36L7 35ZM10 35L10 36L11 36L11 35ZM47 35L47 36L48 36L48 35ZM23 36L23 37L22 37L22 38L23 38L23 37L24 37L24 36ZM6 37L6 38L7 38L7 39L9 39L9 38L8 38L8 37ZM38 37L38 38L39 38L39 37ZM15 38L15 40L17 40L17 38ZM29 38L29 39L30 39L30 38ZM48 38L48 40L47 40L47 39L46 39L46 40L47 40L47 41L49 41L49 38ZM35 40L35 42L36 42L36 40ZM10 41L10 43L11 43L11 41ZM23 41L23 44L26 44L26 41ZM41 41L41 44L44 44L44 41ZM15 42L15 43L16 43L16 42ZM24 42L24 43L25 43L25 42ZM42 42L42 43L43 43L43 42ZM27 43L27 45L28 45L28 43ZM17 44L17 45L18 45L18 44ZM38 44L38 46L39 46L39 44ZM10 45L10 46L11 46L11 45ZM22 46L22 47L24 47L24 46ZM45 46L45 48L44 48L44 49L46 49L46 47L47 47L47 49L49 49L49 46L48 46L48 47L47 47L47 46ZM19 47L19 48L20 48L20 47ZM9 48L9 49L10 49L10 48ZM27 48L27 49L29 49L29 48ZM40 48L40 49L43 49L43 48ZM0 0L0 7L7 7L7 0ZM1 1L1 6L6 6L6 1ZM2 2L2 5L5 5L5 2ZM42 0L42 7L49 7L49 0ZM43 1L43 6L48 6L48 1ZM44 2L44 5L47 5L47 2ZM0 42L0 49L7 49L7 42ZM1 43L1 48L6 48L6 43ZM2 44L2 47L5 47L5 44Z" fill="#000000"/></g></g></svg>
