<?xml version="1.0" encoding="UTF-8"?>
<svg xmlns="http://www.w3.org/2000/svg" version="1.1" width="300" height="300" viewBox="0 0 300 300"><rect x="0" y="0" width="300" height="300" fill="#ffffff"/><g transform="scale(5.882)"><g transform="translate(1,1)"><path fill-rule="evenodd" d="M8 0L8 3L9 3L9 1L10 1L10 4L9 4L9 5L8 5L8 9L7 9L7 8L6 8L6 9L5 9L5 8L2 8L2 9L1 9L1 10L2 10L2 9L4 9L4 11L3 11L3 13L2 13L2 11L0 11L0 14L1 14L1 17L2 17L2 15L3 15L3 16L5 16L5 17L7 17L7 18L6 18L6 19L7 19L7 20L5 20L5 22L4 22L4 20L3 20L3 21L2 21L2 20L1 20L1 21L0 21L0 23L1 23L1 22L4 22L4 23L2 23L2 24L4 24L4 26L2 26L2 25L1 25L1 26L0 26L0 27L5 27L5 28L6 28L6 29L4 29L4 32L3 32L3 31L2 31L2 32L1 32L1 31L0 31L0 32L1 32L1 34L2 34L2 36L1 36L1 35L0 35L0 36L1 36L1 40L0 40L0 41L3 41L3 40L4 40L4 39L2 39L2 38L3 38L3 37L4 37L4 36L6 36L6 37L7 37L7 38L5 38L5 39L7 39L7 40L6 40L6 41L7 41L7 40L8 40L8 42L10 42L10 43L9 43L9 44L8 44L8 47L9 47L9 48L11 48L11 49L12 49L12 48L13 48L13 49L15 49L15 48L19 48L19 49L20 49L20 47L21 47L21 48L22 48L22 49L23 49L23 48L24 48L24 46L23 46L23 45L26 45L26 46L25 46L25 47L26 47L26 49L27 49L27 46L28 46L28 44L27 44L27 42L29 42L29 43L32 43L32 42L33 42L33 43L34 43L34 42L36 42L36 43L35 43L35 44L33 44L33 45L32 45L32 44L29 44L29 45L30 45L30 46L34 46L34 45L37 45L37 46L35 46L35 48L33 48L33 47L32 47L32 48L31 48L31 49L35 49L35 48L36 48L36 49L40 49L40 48L36 48L36 47L40 47L40 46L39 46L39 45L42 45L42 46L41 46L41 47L42 47L42 48L41 48L41 49L42 49L42 48L43 48L43 49L44 49L44 48L46 48L46 49L49 49L49 48L48 48L48 47L49 47L49 44L47 44L47 43L48 43L48 42L49 42L49 40L48 40L48 39L49 39L49 36L48 36L48 35L47 35L47 34L49 34L49 32L48 32L48 31L49 31L49 30L48 30L48 28L46 28L46 27L48 27L48 26L49 26L49 25L48 25L48 26L46 26L46 25L47 25L47 23L49 23L49 20L47 20L47 18L46 18L46 17L44 17L44 16L43 16L43 18L42 18L42 17L40 17L40 15L41 15L41 16L42 16L42 15L43 15L43 14L46 14L46 13L44 13L44 12L43 12L43 11L44 11L44 10L45 10L45 11L48 11L48 10L49 10L49 8L46 8L46 9L47 9L47 10L45 10L45 9L44 9L44 8L41 8L41 9L42 9L42 10L43 10L43 11L42 11L42 12L40 12L40 11L41 11L41 10L40 10L40 9L39 9L39 8L40 8L40 7L41 7L41 6L40 6L40 7L39 7L39 5L38 5L38 7L39 7L39 8L37 8L37 5L35 5L35 4L36 4L36 2L37 2L37 3L38 3L38 2L39 2L39 4L40 4L40 3L41 3L41 0L40 0L40 1L38 1L38 0L37 0L37 1L35 1L35 0L34 0L34 1L35 1L35 3L34 3L34 2L33 2L33 3L32 3L32 4L31 4L31 2L32 2L32 1L31 1L31 0L29 0L29 1L28 1L28 2L29 2L29 3L27 3L27 2L26 2L26 1L27 1L27 0L26 0L26 1L25 1L25 0L23 0L23 1L25 1L25 4L24 4L24 2L23 2L23 3L22 3L22 1L21 1L21 4L19 4L19 3L18 3L18 5L19 5L19 6L18 6L18 7L19 7L19 6L20 6L20 7L21 7L21 6L22 6L22 9L21 9L21 8L18 8L18 9L16 9L16 8L17 8L17 3L16 3L16 2L15 2L15 3L14 3L14 2L12 2L12 0ZM13 0L13 1L14 1L14 0ZM17 0L17 1L18 1L18 2L20 2L20 1L18 1L18 0ZM29 1L29 2L30 2L30 1ZM11 2L11 4L12 4L12 5L9 5L9 7L10 7L10 8L11 8L11 9L12 9L12 10L10 10L10 11L9 11L9 10L7 10L7 9L6 9L6 10L5 10L5 11L6 11L6 12L7 12L7 13L5 13L5 12L4 12L4 13L3 13L3 15L4 15L4 14L5 14L5 16L8 16L8 17L9 17L9 16L10 16L10 18L8 18L8 20L7 20L7 21L6 21L6 22L7 22L7 21L8 21L8 22L9 22L9 24L11 24L11 25L9 25L9 28L8 28L8 27L6 27L6 28L8 28L8 30L7 30L7 29L6 29L6 30L5 30L5 31L6 31L6 32L5 32L5 33L6 33L6 34L7 34L7 33L6 33L6 32L8 32L8 33L9 33L9 34L8 34L8 35L9 35L9 34L12 34L12 36L13 36L13 37L15 37L15 35L16 35L16 38L17 38L17 39L15 39L15 41L14 41L14 42L13 42L13 45L12 45L12 44L11 44L11 43L12 43L12 42L11 42L11 41L10 41L10 40L11 40L11 39L12 39L12 40L13 40L13 39L12 39L12 38L9 38L9 39L10 39L10 40L9 40L9 41L10 41L10 42L11 42L11 43L10 43L10 44L9 44L9 45L10 45L10 46L9 46L9 47L13 47L13 48L14 48L14 46L15 46L15 47L17 47L17 45L19 45L19 46L21 46L21 47L22 47L22 48L23 48L23 47L22 47L22 46L21 46L21 45L22 45L22 41L21 41L21 45L19 45L19 44L17 44L17 43L18 43L18 42L20 42L20 41L19 41L19 40L20 40L20 38L21 38L21 39L22 39L22 40L25 40L25 39L26 39L26 40L27 40L27 41L29 41L29 42L32 42L32 41L33 41L33 42L34 42L34 41L33 41L33 40L34 40L34 39L35 39L35 38L37 38L37 39L38 39L38 38L40 38L40 40L41 40L41 39L42 39L42 40L43 40L43 39L44 39L44 40L46 40L46 41L45 41L45 42L48 42L48 41L47 41L47 40L46 40L46 39L44 39L44 38L46 38L46 37L48 37L48 36L47 36L47 35L44 35L44 34L47 34L47 33L48 33L48 32L47 32L47 31L46 31L46 30L47 30L47 29L46 29L46 30L45 30L45 27L46 27L46 26L45 26L45 27L44 27L44 29L42 29L42 27L41 27L41 28L39 28L39 27L40 27L40 26L39 26L39 25L38 25L38 26L39 26L39 27L38 27L38 28L36 28L36 26L37 26L37 24L40 24L40 22L41 22L41 21L40 21L40 19L39 19L39 18L40 18L40 17L39 17L39 15L40 15L40 14L39 14L39 13L38 13L38 12L39 12L39 11L40 11L40 10L38 10L38 9L37 9L37 8L36 8L36 6L35 6L35 5L33 5L33 4L34 4L34 3L33 3L33 4L32 4L32 6L31 6L31 7L30 7L30 6L29 6L29 9L28 9L28 6L27 6L27 9L28 9L28 10L26 10L26 9L25 9L25 10L26 10L26 11L27 11L27 12L28 12L28 10L29 10L29 9L30 9L30 11L31 11L31 12L32 12L32 13L33 13L33 14L32 14L32 15L33 15L33 14L34 14L34 16L33 16L33 17L32 17L32 18L33 18L33 20L32 20L32 19L31 19L31 20L30 20L30 18L31 18L31 17L30 17L30 15L31 15L31 14L30 14L30 12L29 12L29 13L28 13L28 14L27 14L27 13L26 13L26 12L25 12L25 11L24 11L24 10L23 10L23 9L22 9L22 13L20 13L20 12L19 12L19 14L18 14L18 11L21 11L21 10L19 10L19 9L18 9L18 10L15 10L15 11L17 11L17 12L15 12L15 13L14 13L14 14L13 14L13 13L12 13L12 11L14 11L14 10L13 10L13 9L14 9L14 8L16 8L16 6L15 6L15 7L14 7L14 6L13 6L13 4L12 4L12 2ZM27 4L27 5L28 5L28 4ZM29 4L29 5L30 5L30 4ZM23 5L23 8L26 8L26 5ZM10 6L10 7L11 7L11 8L12 8L12 9L13 9L13 8L14 8L14 7L13 7L13 6L12 6L12 7L11 7L11 6ZM24 6L24 7L25 7L25 6ZM32 6L32 7L33 7L33 9L32 9L32 8L31 8L31 9L32 9L32 10L31 10L31 11L32 11L32 12L33 12L33 13L34 13L34 14L35 14L35 11L36 11L36 15L38 15L38 13L37 13L37 12L38 12L38 11L36 11L36 10L35 10L35 9L36 9L36 8L34 8L34 7L35 7L35 6L34 6L34 7L33 7L33 6ZM33 9L33 10L32 10L32 11L33 11L33 12L34 12L34 11L35 11L35 10L34 10L34 9ZM43 9L43 10L44 10L44 9ZM6 10L6 11L7 11L7 12L8 12L8 13L7 13L7 14L6 14L6 15L10 15L10 16L11 16L11 13L10 13L10 12L9 12L9 11L7 11L7 10ZM23 12L23 14L22 14L22 15L21 15L21 14L20 14L20 15L19 15L19 16L14 16L14 18L16 18L16 17L20 17L20 16L22 16L22 17L21 17L21 18L20 18L20 19L18 19L18 18L17 18L17 21L16 21L16 19L14 19L14 20L13 20L13 18L12 18L12 17L13 17L13 16L12 16L12 17L11 17L11 18L10 18L10 19L9 19L9 20L10 20L10 21L9 21L9 22L10 22L10 21L11 21L11 22L12 22L12 21L14 21L14 23L15 23L15 22L17 22L17 21L18 21L18 23L19 23L19 24L18 24L18 25L17 25L17 23L16 23L16 24L13 24L13 23L11 23L11 24L12 24L12 25L11 25L11 27L13 27L13 28L12 28L12 30L10 30L10 29L11 29L11 28L9 28L9 30L8 30L8 32L9 32L9 31L11 31L11 33L13 33L13 36L14 36L14 35L15 35L15 34L16 34L16 35L17 35L17 36L18 36L18 34L20 34L20 33L19 33L19 31L20 31L20 32L22 32L22 33L21 33L21 36L20 36L20 37L25 37L25 38L22 38L22 39L25 39L25 38L26 38L26 39L27 39L27 40L28 40L28 39L27 39L27 38L29 38L29 40L30 40L30 41L31 41L31 39L32 39L32 40L33 40L33 38L34 38L34 37L33 37L33 36L34 36L34 34L36 34L36 35L37 35L37 36L35 36L35 37L37 37L37 36L38 36L38 37L41 37L41 38L42 38L42 39L43 39L43 38L44 38L44 35L43 35L43 34L42 34L42 33L44 33L44 32L42 32L42 33L41 33L41 32L38 32L38 31L40 31L40 30L35 30L35 29L36 29L36 28L34 28L34 27L33 27L33 25L36 25L36 23L39 23L39 20L38 20L38 21L37 21L37 22L36 22L36 23L35 23L35 22L34 22L34 21L36 21L36 20L37 20L37 19L38 19L38 18L36 18L36 17L38 17L38 16L35 16L35 18L36 18L36 19L35 19L35 20L33 20L33 21L32 21L32 20L31 20L31 23L32 23L32 22L34 22L34 23L35 23L35 24L30 24L30 20L29 20L29 18L30 18L30 17L29 17L29 16L28 16L28 17L29 17L29 18L27 18L27 17L26 17L26 15L25 15L25 14L26 14L26 13L25 13L25 14L24 14L24 12ZM42 12L42 13L43 13L43 12ZM48 12L48 13L47 13L47 15L48 15L48 13L49 13L49 12ZM1 13L1 14L2 14L2 13ZM9 13L9 14L10 14L10 13ZM16 13L16 14L17 14L17 13ZM12 14L12 15L13 15L13 14ZM29 14L29 15L30 15L30 14ZM41 14L41 15L42 15L42 14ZM23 15L23 17L24 17L24 18L25 18L25 16L24 16L24 15ZM45 15L45 16L46 16L46 15ZM48 16L48 18L49 18L49 16ZM33 17L33 18L34 18L34 17ZM0 18L0 19L1 19L1 18ZM4 18L4 19L5 19L5 18ZM22 18L22 20L21 20L21 19L20 19L20 20L18 20L18 21L21 21L21 22L25 22L25 20L24 20L24 19L23 19L23 18ZM26 18L26 19L27 19L27 18ZM41 18L41 19L42 19L42 18ZM44 18L44 19L43 19L43 20L42 20L42 21L43 21L43 20L44 20L44 21L45 21L45 22L48 22L48 21L46 21L46 18ZM10 19L10 20L11 20L11 19ZM22 20L22 21L23 21L23 20ZM26 20L26 22L27 22L27 24L29 24L29 23L28 23L28 22L29 22L29 21L27 21L27 20ZM19 22L19 23L20 23L20 22ZM5 23L5 26L8 26L8 23ZM23 23L23 26L26 26L26 23ZM41 23L41 26L44 26L44 23ZM45 23L45 25L46 25L46 23ZM6 24L6 25L7 25L7 24ZM20 24L20 27L17 27L17 26L16 26L16 25L14 25L14 26L15 26L15 27L14 27L14 28L16 28L16 29L19 29L19 30L18 30L18 31L15 31L15 33L14 33L14 32L13 32L13 31L14 31L14 30L15 30L15 29L14 29L14 30L12 30L12 32L13 32L13 33L14 33L14 34L15 34L15 33L16 33L16 32L17 32L17 33L18 33L18 31L19 31L19 30L20 30L20 31L21 31L21 30L20 30L20 27L21 27L21 29L22 29L22 30L23 30L23 31L24 31L24 30L25 30L25 28L24 28L24 27L21 27L21 26L22 26L22 24ZM24 24L24 25L25 25L25 24ZM42 24L42 25L43 25L43 24ZM27 25L27 27L28 27L28 28L26 28L26 29L27 29L27 30L26 30L26 31L25 31L25 32L24 32L24 33L23 33L23 36L26 36L26 37L30 37L30 38L32 38L32 37L31 37L31 36L33 36L33 33L34 33L34 32L35 32L35 33L36 33L36 32L35 32L35 30L33 30L33 29L34 29L34 28L33 28L33 27L32 27L32 28L31 28L31 26L32 26L32 25ZM28 26L28 27L29 27L29 29L28 29L28 30L29 30L29 31L31 31L31 32L32 32L32 31L31 31L31 30L32 30L32 29L31 29L31 28L30 28L30 27L29 27L29 26ZM38 28L38 29L39 29L39 28ZM0 29L0 30L1 30L1 29ZM29 29L29 30L30 30L30 29ZM41 29L41 30L42 30L42 29ZM6 30L6 31L7 31L7 30ZM43 30L43 31L44 31L44 30ZM26 31L26 33L27 33L27 31ZM33 31L33 32L34 32L34 31ZM28 32L28 34L29 34L29 36L30 36L30 34L32 34L32 33L30 33L30 32ZM37 32L37 34L41 34L41 33L38 33L38 32ZM45 32L45 33L46 33L46 32ZM24 34L24 35L27 35L27 36L28 36L28 35L27 35L27 34ZM3 35L3 36L4 36L4 35ZM6 35L6 36L7 36L7 37L8 37L8 36L7 36L7 35ZM10 35L10 36L9 36L9 37L11 37L11 35ZM38 35L38 36L39 36L39 35ZM41 36L41 37L42 37L42 38L43 38L43 37L42 37L42 36ZM45 36L45 37L46 37L46 36ZM18 37L18 38L19 38L19 37ZM18 39L18 40L17 40L17 41L18 41L18 40L19 40L19 39ZM37 40L37 41L36 41L36 42L37 42L37 45L38 45L38 44L40 44L40 41L39 41L39 42L37 42L37 41L38 41L38 40ZM15 41L15 42L16 42L16 43L14 43L14 44L16 44L16 43L17 43L17 42L16 42L16 41ZM23 41L23 44L26 44L26 41ZM41 41L41 44L44 44L44 41ZM24 42L24 43L25 43L25 42ZM42 42L42 43L43 43L43 42ZM46 44L46 45L45 45L45 46L42 46L42 47L43 47L43 48L44 48L44 47L46 47L46 48L47 48L47 47L48 47L48 46L47 46L47 44ZM11 45L11 46L12 46L12 45ZM46 46L46 47L47 47L47 46ZM0 0L0 7L7 7L7 0ZM1 1L1 6L6 6L6 1ZM2 2L2 5L5 5L5 2ZM42 0L42 7L49 7L49 0ZM43 1L43 6L48 6L48 1ZM44 2L44 5L47 5L47 2ZM0 42L0 49L7 49L7 42ZM1 43L1 48L6 48L6 43ZM2 44L2 47L5 47L5 44Z" fill="#000000"/></g></g></svg>
