<?xml version="1.0" encoding="UTF-8"?>
<svg xmlns="http://www.w3.org/2000/svg" version="1.1" width="300" height="300" viewBox="0 0 300 300"><rect x="0" y="0" width="300" height="300" fill="#ffffff"/><g transform="scale(5.882)"><g transform="translate(1,1)"><path fill-rule="evenodd" d="M8 0L8 3L9 3L9 5L8 5L8 9L7 9L7 8L6 8L6 9L5 9L5 8L2 8L2 9L0 9L0 10L2 10L2 11L0 11L0 14L1 14L1 17L2 17L2 16L5 16L5 17L7 17L7 18L6 18L6 19L7 19L7 20L5 20L5 22L4 22L4 19L5 19L5 18L4 18L4 17L3 17L3 18L4 18L4 19L2 19L2 20L1 20L1 21L0 21L0 22L1 22L1 23L2 23L2 24L4 24L4 26L2 26L2 25L1 25L1 24L0 24L0 25L1 25L1 26L2 26L2 27L1 27L1 29L0 29L0 30L1 30L1 31L0 31L0 33L1 33L1 32L3 32L3 33L2 33L2 34L3 34L3 35L2 35L2 36L1 36L1 35L0 35L0 36L1 36L1 40L0 40L0 41L3 41L3 40L4 40L4 39L2 39L2 38L3 38L3 37L4 37L4 36L5 36L5 39L7 39L7 38L6 38L6 37L8 37L8 40L6 40L6 41L8 41L8 42L10 42L10 43L9 43L9 44L8 44L8 47L9 47L9 48L10 48L10 45L9 45L9 44L10 44L10 43L11 43L11 42L10 42L10 41L11 41L11 40L12 40L12 41L13 41L13 42L12 42L12 44L11 44L11 47L12 47L12 48L11 48L11 49L12 49L12 48L13 48L13 49L15 49L15 47L16 47L16 46L17 46L17 48L18 48L18 49L22 49L22 48L25 48L25 47L26 47L26 49L27 49L27 46L28 46L28 44L27 44L27 42L29 42L29 44L30 44L30 45L29 45L29 46L31 46L31 47L32 47L32 48L31 48L31 49L35 49L35 48L36 48L36 49L40 49L40 48L36 48L36 47L40 47L40 46L39 46L39 45L41 45L41 46L43 46L43 45L44 45L44 46L45 46L45 45L46 45L46 44L47 44L47 46L46 46L46 47L42 47L42 48L41 48L41 49L42 49L42 48L46 48L46 49L49 49L49 48L48 48L48 47L49 47L49 44L47 44L47 43L48 43L48 42L49 42L49 40L48 40L48 39L49 39L49 36L45 36L45 37L44 37L44 36L42 36L42 37L41 37L41 34L42 34L42 35L45 35L45 34L46 34L46 35L47 35L47 34L48 34L48 35L49 35L49 34L48 34L48 33L49 33L49 32L48 32L48 31L49 31L49 30L48 30L48 28L47 28L47 30L46 30L46 28L45 28L45 30L46 30L46 31L47 31L47 32L48 32L48 33L47 33L47 34L46 34L46 32L45 32L45 34L44 34L44 32L42 32L42 33L41 33L41 32L37 32L37 31L41 31L41 30L42 30L42 29L44 29L44 27L45 27L45 26L46 26L46 27L48 27L48 26L49 26L49 25L48 25L48 26L46 26L46 25L47 25L47 23L49 23L49 20L47 20L47 18L46 18L46 17L44 17L44 16L43 16L43 18L42 18L42 17L40 17L40 15L41 15L41 16L42 16L42 15L43 15L43 14L46 14L46 13L47 13L47 15L48 15L48 13L49 13L49 12L48 12L48 13L47 13L47 12L46 12L46 11L48 11L48 10L49 10L49 8L46 8L46 9L47 9L47 10L45 10L45 9L44 9L44 8L41 8L41 9L42 9L42 10L45 10L45 11L44 11L44 12L43 12L43 11L42 11L42 12L40 12L40 11L41 11L41 10L40 10L40 9L39 9L39 8L37 8L37 5L35 5L35 6L34 6L34 4L36 4L36 2L37 2L37 1L38 1L38 2L39 2L39 4L40 4L40 3L41 3L41 0L40 0L40 1L38 1L38 0L37 0L37 1L35 1L35 0L34 0L34 1L35 1L35 3L34 3L34 2L33 2L33 3L32 3L32 4L31 4L31 2L32 2L32 1L31 1L31 0L29 0L29 1L28 1L28 2L29 2L29 4L28 4L28 3L27 3L27 2L26 2L26 1L27 1L27 0L26 0L26 1L25 1L25 2L23 2L23 3L22 3L22 1L24 1L24 0L22 0L22 1L21 1L21 2L20 2L20 3L21 3L21 4L19 4L19 6L18 6L18 5L17 5L17 1L15 1L15 0L14 0L14 1L12 1L12 0ZM10 1L10 5L9 5L9 7L10 7L10 6L11 6L11 7L12 7L12 6L13 6L13 7L14 7L14 6L13 6L13 4L14 4L14 5L15 5L15 3L14 3L14 2L13 2L13 4L12 4L12 3L11 3L11 1ZM18 1L18 3L19 3L19 1ZM29 1L29 2L30 2L30 1ZM23 3L23 4L24 4L24 3ZM33 3L33 4L32 4L32 5L31 5L31 7L30 7L30 6L29 6L29 5L30 5L30 4L29 4L29 5L28 5L28 6L27 6L27 10L26 10L26 9L25 9L25 10L26 10L26 11L27 11L27 12L28 12L28 13L26 13L26 12L25 12L25 13L26 13L26 14L24 14L24 15L23 15L23 17L24 17L24 18L25 18L25 16L27 16L27 18L26 18L26 19L25 19L25 20L24 20L24 19L21 19L21 18L22 18L22 16L21 16L21 17L20 17L20 16L19 16L19 15L20 15L20 14L21 14L21 15L22 15L22 14L23 14L23 12L24 12L24 10L23 10L23 9L22 9L22 6L21 6L21 7L20 7L20 6L19 6L19 8L18 8L18 9L17 9L17 8L16 8L16 6L15 6L15 8L16 8L16 9L17 9L17 10L15 10L15 11L17 11L17 12L15 12L15 13L14 13L14 14L13 14L13 13L12 13L12 11L14 11L14 10L13 10L13 9L12 9L12 8L11 8L11 9L9 9L9 10L7 10L7 9L6 9L6 10L7 10L7 11L6 11L6 12L8 12L8 11L9 11L9 12L10 12L10 13L9 13L9 14L8 14L8 13L4 13L4 11L5 11L5 9L4 9L4 10L3 10L3 11L2 11L2 13L1 13L1 14L2 14L2 15L3 15L3 14L4 14L4 15L5 15L5 16L8 16L8 17L9 17L9 16L10 16L10 18L8 18L8 20L7 20L7 21L6 21L6 22L7 22L7 21L8 21L8 22L9 22L9 21L10 21L10 22L11 22L11 23L9 23L9 24L10 24L10 26L11 26L11 23L12 23L12 22L14 22L14 21L13 21L13 20L14 20L14 19L15 19L15 20L17 20L17 19L16 19L16 17L17 17L17 18L18 18L18 19L19 19L19 20L18 20L18 21L17 21L17 22L18 22L18 24L16 24L16 22L15 22L15 25L14 25L14 26L15 26L15 27L16 27L16 29L19 29L19 30L18 30L18 31L19 31L19 33L17 33L17 34L18 34L18 36L17 36L17 35L16 35L16 34L15 34L15 35L14 35L14 36L13 36L13 33L6 33L6 32L8 32L8 30L9 30L9 32L11 32L11 30L12 30L12 32L14 32L14 33L16 33L16 32L17 32L17 31L15 31L15 32L14 32L14 29L15 29L15 28L14 28L14 27L13 27L13 28L14 28L14 29L13 29L13 30L12 30L12 27L10 27L10 28L11 28L11 30L9 30L9 28L8 28L8 27L6 27L6 28L5 28L5 27L2 27L2 29L1 29L1 30L2 30L2 31L3 31L3 32L4 32L4 29L6 29L6 30L5 30L5 31L6 31L6 32L5 32L5 33L3 33L3 34L4 34L4 35L6 35L6 36L8 36L8 35L9 35L9 34L12 34L12 36L13 36L13 37L15 37L15 35L16 35L16 38L17 38L17 39L15 39L15 41L14 41L14 42L13 42L13 45L12 45L12 46L13 46L13 48L14 48L14 46L15 46L15 45L16 45L16 43L18 43L18 42L19 42L19 44L17 44L17 45L19 45L19 44L20 44L20 47L21 47L21 45L22 45L22 41L21 41L21 43L20 43L20 41L19 41L19 40L20 40L20 38L21 38L21 39L22 39L22 40L25 40L25 39L26 39L26 40L27 40L27 41L29 41L29 42L30 42L30 44L31 44L31 46L32 46L32 47L33 47L33 48L35 48L35 47L36 47L36 46L37 46L37 45L38 45L38 44L40 44L40 41L39 41L39 42L37 42L37 41L38 41L38 40L37 40L37 41L36 41L36 40L35 40L35 42L34 42L34 41L33 41L33 40L34 40L34 39L36 39L36 38L38 38L38 39L39 39L39 38L40 38L40 40L41 40L41 39L42 39L42 40L46 40L46 41L45 41L45 42L48 42L48 41L47 41L47 40L46 40L46 39L42 39L42 38L44 38L44 37L42 37L42 38L41 38L41 37L39 37L39 38L38 38L38 37L36 37L36 38L35 38L35 35L36 35L36 36L39 36L39 34L41 34L41 33L37 33L37 34L38 34L38 35L36 35L36 34L35 34L35 33L36 33L36 32L35 32L35 31L33 31L33 29L34 29L34 30L41 30L41 29L42 29L42 27L41 27L41 28L39 28L39 27L40 27L40 26L39 26L39 25L40 25L40 23L36 23L36 22L37 22L37 21L38 21L38 20L39 20L39 21L40 21L40 22L41 22L41 21L40 21L40 19L39 19L39 18L40 18L40 17L39 17L39 15L40 15L40 14L39 14L39 13L38 13L38 15L37 15L37 16L38 16L38 17L35 17L35 15L36 15L36 11L37 11L37 12L39 12L39 11L40 11L40 10L38 10L38 9L37 9L37 8L36 8L36 6L35 6L35 7L34 7L34 6L33 6L33 4L34 4L34 3ZM37 3L37 4L38 4L38 3ZM11 4L11 5L12 5L12 4ZM23 5L23 8L26 8L26 5ZM38 5L38 7L39 7L39 5ZM17 6L17 7L18 7L18 6ZM24 6L24 7L25 7L25 6ZM28 6L28 7L29 7L29 6ZM32 6L32 7L31 7L31 9L34 9L34 10L35 10L35 11L34 11L34 12L33 12L33 13L34 13L34 14L33 14L33 15L32 15L32 12L30 12L30 9L29 9L29 8L28 8L28 11L29 11L29 12L30 12L30 14L31 14L31 15L30 15L30 16L28 16L28 17L29 17L29 18L27 18L27 21L25 21L25 22L21 22L21 23L19 23L19 26L20 26L20 25L21 25L21 26L22 26L22 27L20 27L20 30L19 30L19 31L20 31L20 32L22 32L22 33L21 33L21 36L20 36L20 37L23 37L23 38L22 38L22 39L23 39L23 38L26 38L26 39L27 39L27 40L28 40L28 39L29 39L29 38L30 38L30 39L31 39L31 40L30 40L30 41L31 41L31 42L33 42L33 43L34 43L34 42L33 42L33 41L31 41L31 40L32 40L32 39L33 39L33 38L34 38L34 37L33 37L33 36L34 36L34 35L35 35L35 34L33 34L33 36L31 36L31 35L30 35L30 34L32 34L32 33L30 33L30 32L29 32L29 31L31 31L31 32L32 32L32 31L31 31L31 30L32 30L32 29L31 29L31 28L32 28L32 27L33 27L33 28L34 28L34 29L36 29L36 28L37 28L37 29L39 29L39 28L37 28L37 27L39 27L39 26L38 26L38 25L39 25L39 24L37 24L37 26L36 26L36 28L34 28L34 27L33 27L33 25L36 25L36 23L35 23L35 22L34 22L34 21L36 21L36 20L37 20L37 19L38 19L38 18L35 18L35 20L33 20L33 18L34 18L34 17L33 17L33 16L34 16L34 14L35 14L35 11L36 11L36 10L35 10L35 9L36 9L36 8L34 8L34 7L33 7L33 6ZM40 6L40 7L41 7L41 6ZM19 8L19 9L18 9L18 10L21 10L21 11L18 11L18 14L19 14L19 12L20 12L20 13L22 13L22 9L21 9L21 8ZM11 9L11 10L12 10L12 9ZM9 10L9 11L10 11L10 10ZM31 10L31 11L33 11L33 10ZM37 10L37 11L38 11L38 10ZM42 12L42 13L41 13L41 15L42 15L42 14L43 14L43 12ZM44 12L44 13L46 13L46 12ZM10 13L10 14L9 14L9 15L10 15L10 16L11 16L11 17L12 17L12 18L10 18L10 19L9 19L9 20L10 20L10 21L12 21L12 18L13 18L13 16L11 16L11 13ZM16 13L16 14L17 14L17 13ZM28 13L28 14L27 14L27 15L28 15L28 14L29 14L29 13ZM5 14L5 15L8 15L8 14ZM12 14L12 15L13 15L13 14ZM24 15L24 16L25 16L25 15ZM45 15L45 16L46 16L46 15ZM14 16L14 18L15 18L15 17L16 17L16 16ZM17 16L17 17L19 17L19 19L20 19L20 20L19 20L19 21L18 21L18 22L19 22L19 21L20 21L20 20L21 20L21 21L22 21L22 20L21 20L21 19L20 19L20 17L19 17L19 16ZM48 16L48 18L49 18L49 16ZM32 17L32 18L33 18L33 17ZM0 18L0 19L1 19L1 18ZM41 18L41 19L42 19L42 18ZM44 18L44 19L43 19L43 20L42 20L42 21L43 21L43 20L44 20L44 21L45 21L45 22L48 22L48 21L46 21L46 18ZM10 19L10 20L11 20L11 19ZM30 19L30 20L29 20L29 21L27 21L27 24L29 24L29 23L30 23L30 24L35 24L35 23L34 23L34 22L32 22L32 23L31 23L31 22L30 22L30 20L32 20L32 21L33 21L33 20L32 20L32 19ZM2 20L2 21L3 21L3 20ZM2 22L2 23L4 23L4 22ZM28 22L28 23L29 23L29 22ZM5 23L5 26L8 26L8 23ZM13 23L13 24L12 24L12 26L13 26L13 24L14 24L14 23ZM23 23L23 26L26 26L26 23ZM41 23L41 26L44 26L44 23ZM45 23L45 25L46 25L46 23ZM6 24L6 25L7 25L7 24ZM21 24L21 25L22 25L22 24ZM24 24L24 25L25 25L25 24ZM42 24L42 25L43 25L43 24ZM16 25L16 26L17 26L17 25ZM27 25L27 27L25 27L25 28L24 28L24 27L22 27L22 28L23 28L23 29L21 29L21 30L20 30L20 31L22 31L22 32L23 32L23 31L24 31L24 30L25 30L25 31L26 31L26 32L24 32L24 33L23 33L23 35L25 35L25 36L24 36L24 37L25 37L25 36L26 36L26 37L27 37L27 36L29 36L29 37L28 37L28 38L27 38L27 39L28 39L28 38L29 38L29 37L30 37L30 38L32 38L32 37L30 37L30 35L25 35L25 34L29 34L29 32L28 32L28 30L30 30L30 29L29 29L29 27L30 27L30 28L31 28L31 26L32 26L32 25ZM28 26L28 27L27 27L27 28L25 28L25 29L28 29L28 27L29 27L29 26ZM6 28L6 29L7 29L7 30L6 30L6 31L7 31L7 30L8 30L8 28ZM26 30L26 31L27 31L27 30ZM43 30L43 31L44 31L44 30ZM47 30L47 31L48 31L48 30ZM26 32L26 33L28 33L28 32ZM33 32L33 33L35 33L35 32ZM19 33L19 34L20 34L20 33ZM42 33L42 34L43 34L43 33ZM6 34L6 35L8 35L8 34ZM10 35L10 36L9 36L9 37L11 37L11 35ZM2 36L2 37L3 37L3 36ZM18 37L18 38L19 38L19 37ZM45 37L45 38L46 38L46 37ZM9 38L9 39L10 39L10 40L8 40L8 41L10 41L10 40L11 40L11 39L12 39L12 40L13 40L13 39L12 39L12 38ZM18 39L18 40L17 40L17 41L15 41L15 43L14 43L14 44L15 44L15 43L16 43L16 42L17 42L17 41L18 41L18 40L19 40L19 39ZM23 41L23 44L26 44L26 41ZM41 41L41 44L44 44L44 41ZM24 42L24 43L25 43L25 42ZM35 42L35 44L33 44L33 45L32 45L32 46L34 46L34 45L35 45L35 46L36 46L36 45L37 45L37 44L36 44L36 43L37 43L37 42ZM42 42L42 43L43 43L43 42ZM31 43L31 44L32 44L32 43ZM35 44L35 45L36 45L36 44ZM23 45L23 47L24 47L24 46L26 46L26 45ZM47 46L47 47L46 47L46 48L47 48L47 47L48 47L48 46ZM0 0L0 7L7 7L7 0ZM1 1L1 6L6 6L6 1ZM2 2L2 5L5 5L5 2ZM42 0L42 7L49 7L49 0ZM43 1L43 6L48 6L48 1ZM44 2L44 5L47 5L47 2ZM0 42L0 49L7 49L7 42ZM1 43L1 48L6 48L6 43ZM2 44L2 47L5 47L5 44Z" fill="#000000"/></g></g></svg>
