<?xml version="1.0" encoding="UTF-8"?>
<svg xmlns="http://www.w3.org/2000/svg" version="1.1" width="300" height="300" viewBox="0 0 300 300"><rect x="0" y="0" width="300" height="300" fill="#ffffff"/><g transform="scale(5.882)"><g transform="translate(1,1)"><path fill-rule="evenodd" d="M8 0L8 3L9 3L9 2L10 2L10 4L9 4L9 5L8 5L8 9L7 9L7 8L6 8L6 9L5 9L5 8L2 8L2 10L3 10L3 11L4 11L4 10L6 10L6 11L5 11L5 12L6 12L6 13L5 13L5 15L4 15L4 13L3 13L3 14L1 14L1 13L2 13L2 11L0 11L0 14L1 14L1 17L3 17L3 18L4 18L4 19L1 19L1 20L3 20L3 22L4 22L4 23L3 23L3 24L4 24L4 26L2 26L2 25L1 25L1 26L0 26L0 27L1 27L1 26L2 26L2 27L5 27L5 28L4 28L4 31L5 31L5 32L4 32L4 33L3 33L3 31L2 31L2 32L1 32L1 33L3 33L3 35L2 35L2 36L1 36L1 35L0 35L0 36L1 36L1 40L0 40L0 41L3 41L3 40L4 40L4 39L2 39L2 38L5 38L5 39L7 39L7 38L12 38L12 39L11 39L11 40L10 40L10 39L8 39L8 40L6 40L6 41L8 41L8 42L10 42L10 43L12 43L12 45L11 45L11 44L10 44L10 45L9 45L9 44L8 44L8 47L9 47L9 49L10 49L10 45L11 45L11 46L12 46L12 47L11 47L11 48L12 48L12 49L14 49L14 48L13 48L13 46L12 46L12 45L13 45L13 43L12 43L12 42L10 42L10 41L11 41L11 40L12 40L12 41L13 41L13 42L14 42L14 43L15 43L15 44L18 44L18 45L20 45L20 46L21 46L21 47L17 47L17 45L15 45L15 48L16 48L16 49L17 49L17 48L18 48L18 49L22 49L22 48L23 48L23 49L24 49L24 48L25 48L25 49L26 49L26 48L25 48L25 47L26 47L26 45L27 45L27 46L28 46L28 44L27 44L27 42L28 42L28 43L29 43L29 45L30 45L30 46L29 46L29 47L30 47L30 46L34 46L34 45L37 45L37 46L35 46L35 47L36 47L36 49L40 49L40 48L37 48L37 47L40 47L40 46L39 46L39 45L41 45L41 46L43 46L43 47L41 47L41 48L46 48L46 49L49 49L49 48L48 48L48 47L49 47L49 44L47 44L47 43L48 43L48 42L49 42L49 40L48 40L48 39L49 39L49 36L47 36L47 37L46 37L46 38L44 38L44 37L45 37L45 36L44 36L44 37L43 37L43 35L45 35L45 34L46 34L46 35L49 35L49 32L48 32L48 31L47 31L47 30L49 30L49 29L48 29L48 28L46 28L46 27L48 27L48 26L49 26L49 25L48 25L48 26L46 26L46 25L47 25L47 23L49 23L49 20L47 20L47 18L46 18L46 17L44 17L44 16L43 16L43 18L42 18L42 17L40 17L40 15L41 15L41 16L42 16L42 15L43 15L43 14L46 14L46 13L44 13L44 10L46 10L46 11L45 11L45 12L47 12L47 11L48 11L48 10L49 10L49 8L46 8L46 9L44 9L44 8L41 8L41 10L40 10L40 8L38 8L38 7L39 7L39 5L38 5L38 3L37 3L37 5L34 5L34 4L36 4L36 2L37 2L37 1L38 1L38 2L39 2L39 4L40 4L40 3L41 3L41 0L40 0L40 1L38 1L38 0L37 0L37 1L35 1L35 0L34 0L34 1L35 1L35 3L33 3L33 2L32 2L32 1L31 1L31 0L29 0L29 1L28 1L28 2L26 2L26 1L27 1L27 0L26 0L26 1L25 1L25 2L24 2L24 0L22 0L22 1L20 1L20 0L18 0L18 2L17 2L17 1L16 1L16 0L15 0L15 1L14 1L14 0ZM10 1L10 2L12 2L12 3L11 3L11 4L10 4L10 5L9 5L9 9L10 9L10 11L6 11L6 12L7 12L7 13L6 13L6 14L8 14L8 15L5 15L5 16L4 16L4 18L5 18L5 19L4 19L4 22L5 22L5 20L7 20L7 21L6 21L6 22L7 22L7 21L8 21L8 22L9 22L9 21L10 21L10 22L11 22L11 23L10 23L10 24L11 24L11 23L12 23L12 27L11 27L11 25L10 25L10 27L9 27L9 28L8 28L8 27L6 27L6 28L8 28L8 30L7 30L7 29L5 29L5 30L7 30L7 31L6 31L6 32L5 32L5 33L4 33L4 35L3 35L3 36L4 36L4 37L5 37L5 36L4 36L4 35L5 35L5 34L7 34L7 33L6 33L6 32L8 32L8 30L9 30L9 28L11 28L11 31L10 31L10 32L12 32L12 31L13 31L13 33L10 33L10 34L12 34L12 36L13 36L13 37L15 37L15 35L16 35L16 38L17 38L17 39L15 39L15 41L14 41L14 42L19 42L19 43L18 43L18 44L19 44L19 43L21 43L21 46L22 46L22 40L23 40L23 39L22 39L22 38L25 38L25 39L24 39L24 40L25 40L25 39L26 39L26 40L27 40L27 39L29 39L29 38L30 38L30 36L33 36L33 37L34 37L34 38L33 38L33 40L32 40L32 39L31 39L31 40L30 40L30 42L31 42L31 43L30 43L30 45L33 45L33 44L36 44L36 43L35 43L35 42L37 42L37 45L38 45L38 44L40 44L40 41L39 41L39 42L37 42L37 41L38 41L38 40L37 40L37 41L35 41L35 42L34 42L34 41L33 41L33 40L34 40L34 39L35 39L35 38L40 38L40 40L41 40L41 38L43 38L43 37L40 37L40 36L41 36L41 34L43 34L43 33L38 33L38 34L40 34L40 36L39 36L39 35L36 35L36 34L35 34L35 33L36 33L36 32L35 32L35 30L38 30L38 31L37 31L37 32L39 32L39 30L40 30L40 31L41 31L41 32L46 32L46 34L48 34L48 32L47 32L47 31L46 31L46 30L47 30L47 29L46 29L46 28L45 28L45 27L46 27L46 26L45 26L45 27L44 27L44 29L42 29L42 27L41 27L41 28L39 28L39 27L40 27L40 26L39 26L39 25L40 25L40 23L36 23L36 22L37 22L37 21L38 21L38 20L40 20L40 19L39 19L39 18L40 18L40 17L39 17L39 15L40 15L40 14L39 14L39 13L38 13L38 14L39 14L39 15L37 15L37 16L36 16L36 11L37 11L37 12L39 12L39 11L40 11L40 12L41 12L41 13L43 13L43 12L41 12L41 11L42 11L42 10L41 10L41 11L40 11L40 10L39 10L39 9L38 9L38 8L36 8L36 6L35 6L35 7L34 7L34 5L33 5L33 4L32 4L32 5L31 5L31 8L30 8L30 6L29 6L29 5L30 5L30 4L29 4L29 3L27 3L27 7L28 7L28 6L29 6L29 8L30 8L30 9L29 9L29 10L28 10L28 11L31 11L31 12L34 12L34 11L35 11L35 14L34 14L34 13L32 13L32 14L34 14L34 16L33 16L33 15L30 15L30 14L28 14L28 13L30 13L30 12L27 12L27 10L26 10L26 9L22 9L22 6L21 6L21 9L22 9L22 13L20 13L20 12L19 12L19 14L18 14L18 11L21 11L21 10L19 10L19 9L18 9L18 8L19 8L19 7L20 7L20 6L19 6L19 4L20 4L20 3L21 3L21 2L20 2L20 3L18 3L18 4L17 4L17 2L16 2L16 1L15 1L15 2L14 2L14 1ZM29 1L29 2L30 2L30 1ZM13 2L13 3L12 3L12 4L11 4L11 5L10 5L10 9L11 9L11 10L12 10L12 9L13 9L13 10L14 10L14 11L12 11L12 13L13 13L13 14L12 14L12 15L13 15L13 14L14 14L14 13L15 13L15 12L17 12L17 11L15 11L15 10L17 10L17 9L16 9L16 8L15 8L15 6L16 6L16 7L17 7L17 8L18 8L18 7L19 7L19 6L18 6L18 7L17 7L17 5L15 5L15 3L16 3L16 2L15 2L15 3L14 3L14 2ZM22 2L22 3L23 3L23 2ZM24 3L24 4L25 4L25 3ZM12 4L12 5L11 5L11 9L12 9L12 5L13 5L13 9L14 9L14 10L15 10L15 8L14 8L14 6L15 6L15 5L13 5L13 4ZM23 5L23 8L26 8L26 5ZM32 5L32 7L33 7L33 8L31 8L31 9L34 9L34 10L35 10L35 11L36 11L36 10L35 10L35 9L36 9L36 8L34 8L34 7L33 7L33 5ZM37 5L37 7L38 7L38 5ZM24 6L24 7L25 7L25 6ZM40 6L40 7L41 7L41 6ZM0 9L0 10L1 10L1 9ZM6 9L6 10L7 10L7 9ZM43 9L43 10L44 10L44 9ZM46 9L46 10L47 10L47 9ZM25 10L25 11L24 11L24 13L25 13L25 11L26 11L26 10ZM32 10L32 11L33 11L33 10ZM38 10L38 11L39 11L39 10ZM9 12L9 13L10 13L10 14L9 14L9 15L8 15L8 16L5 16L5 17L9 17L9 18L8 18L8 19L7 19L7 18L6 18L6 19L7 19L7 20L8 20L8 19L9 19L9 20L10 20L10 19L11 19L11 18L12 18L12 17L13 17L13 16L11 16L11 13L10 13L10 12ZM48 12L48 13L47 13L47 15L48 15L48 13L49 13L49 12ZM16 13L16 14L17 14L17 13ZM26 13L26 14L22 14L22 15L21 15L21 14L20 14L20 15L19 15L19 16L14 16L14 18L13 18L13 19L15 19L15 20L14 20L14 21L13 21L13 20L11 20L11 21L12 21L12 23L13 23L13 26L14 26L14 27L12 27L12 28L13 28L13 29L14 29L14 30L13 30L13 31L14 31L14 30L15 30L15 29L14 29L14 27L15 27L15 28L16 28L16 29L18 29L18 30L16 30L16 31L15 31L15 32L14 32L14 34L13 34L13 36L14 36L14 35L15 35L15 34L16 34L16 35L17 35L17 36L18 36L18 34L17 34L17 33L19 33L19 34L20 34L20 33L19 33L19 31L18 31L18 30L19 30L19 29L20 29L20 32L22 32L22 33L21 33L21 36L20 36L20 37L24 37L24 36L25 36L25 38L26 38L26 39L27 39L27 38L28 38L28 37L26 37L26 36L25 36L25 35L27 35L27 36L29 36L29 35L27 35L27 34L25 34L25 35L24 35L24 34L23 34L23 33L24 33L24 32L25 32L25 31L26 31L26 33L28 33L28 34L32 34L32 33L31 33L31 32L32 32L32 31L31 31L31 30L32 30L32 29L31 29L31 28L32 28L32 27L33 27L33 28L34 28L34 29L33 29L33 32L34 32L34 33L33 33L33 34L34 34L34 33L35 33L35 32L34 32L34 29L36 29L36 28L38 28L38 29L39 29L39 28L38 28L38 27L37 27L37 26L36 26L36 28L34 28L34 27L33 27L33 25L36 25L36 23L35 23L35 22L34 22L34 21L36 21L36 20L37 20L37 19L38 19L38 18L36 18L36 17L35 17L35 18L36 18L36 19L35 19L35 20L33 20L33 18L34 18L34 17L33 17L33 16L31 16L31 17L30 17L30 15L28 15L28 14L27 14L27 13ZM9 15L9 16L10 16L10 18L11 18L11 16L10 16L10 15ZM25 15L25 16L26 16L26 19L31 19L31 20L29 20L29 21L27 21L27 24L29 24L29 23L28 23L28 22L29 22L29 21L30 21L30 24L35 24L35 23L34 23L34 22L32 22L32 23L31 23L31 20L32 20L32 21L33 21L33 20L32 20L32 19L31 19L31 18L27 18L27 16L28 16L28 15ZM45 15L45 16L46 16L46 15ZM19 16L19 17L17 17L17 21L16 21L16 20L15 20L15 21L14 21L14 22L13 22L13 23L14 23L14 26L17 26L17 25L15 25L15 23L16 23L16 22L18 22L18 20L21 20L21 21L23 21L23 22L25 22L25 20L24 20L24 19L25 19L25 17L24 17L24 18L23 18L23 17L21 17L21 16ZM37 16L37 17L38 17L38 16ZM48 16L48 18L49 18L49 16ZM19 17L19 19L21 19L21 18L20 18L20 17ZM15 18L15 19L16 19L16 18ZM41 18L41 19L42 19L42 18ZM44 18L44 19L43 19L43 20L42 20L42 21L43 21L43 20L44 20L44 21L45 21L45 22L48 22L48 21L46 21L46 18ZM22 19L22 20L23 20L23 19ZM0 21L0 23L1 23L1 24L2 24L2 23L1 23L1 21ZM15 21L15 22L16 22L16 21ZM19 21L19 24L18 24L18 23L17 23L17 24L18 24L18 27L19 27L19 28L18 28L18 29L19 29L19 28L20 28L20 29L22 29L22 24L21 24L21 26L19 26L19 24L20 24L20 23L22 23L22 22L20 22L20 21ZM40 21L40 22L41 22L41 21ZM5 23L5 26L8 26L8 23ZM23 23L23 26L26 26L26 23ZM41 23L41 26L44 26L44 23ZM45 23L45 25L46 25L46 23ZM6 24L6 25L7 25L7 24ZM24 24L24 25L25 25L25 24ZM37 24L37 25L39 25L39 24ZM42 24L42 25L43 25L43 24ZM27 25L27 28L24 28L24 27L23 27L23 30L21 30L21 31L24 31L24 30L26 30L26 31L27 31L27 30L26 30L26 29L27 29L27 28L28 28L28 26L29 26L29 27L30 27L30 28L31 28L31 26L32 26L32 25ZM16 27L16 28L17 28L17 27ZM20 27L20 28L21 28L21 27ZM1 28L1 29L2 29L2 28ZM29 29L29 30L30 30L30 29ZM41 29L41 30L42 30L42 29ZM45 29L45 30L46 30L46 29ZM0 30L0 31L1 31L1 30ZM43 30L43 31L44 31L44 30ZM16 31L16 32L15 32L15 33L16 33L16 32L17 32L17 31ZM30 31L30 32L31 32L31 31ZM44 33L44 34L45 34L45 33ZM6 35L6 36L7 36L7 37L6 37L6 38L7 38L7 37L11 37L11 35L10 35L10 36L9 36L9 35ZM23 35L23 36L24 36L24 35ZM33 35L33 36L34 36L34 35ZM35 36L35 37L39 37L39 36ZM18 37L18 38L19 38L19 37ZM31 37L31 38L32 38L32 37ZM20 38L20 40L19 40L19 39L18 39L18 40L16 40L16 41L18 41L18 40L19 40L19 42L20 42L20 41L21 41L21 38ZM12 39L12 40L13 40L13 39ZM43 39L43 40L46 40L46 41L45 41L45 42L48 42L48 41L47 41L47 40L46 40L46 39ZM8 40L8 41L10 41L10 40ZM28 40L28 41L29 41L29 40ZM23 41L23 44L26 44L26 41ZM31 41L31 42L33 42L33 43L34 43L34 42L33 42L33 41ZM41 41L41 44L44 44L44 41ZM24 42L24 43L25 43L25 42ZM42 42L42 43L43 43L43 42ZM31 43L31 44L32 44L32 43ZM46 44L46 45L45 45L45 46L44 46L44 45L43 45L43 46L44 46L44 47L46 47L46 48L47 48L47 47L48 47L48 46L47 46L47 44ZM23 46L23 47L25 47L25 46ZM46 46L46 47L47 47L47 46ZM16 47L16 48L17 48L17 47ZM32 47L32 48L31 48L31 49L35 49L35 48L33 48L33 47ZM0 0L0 7L7 7L7 0ZM1 1L1 6L6 6L6 1ZM2 2L2 5L5 5L5 2ZM42 0L42 7L49 7L49 0ZM43 1L43 6L48 6L48 1ZM44 2L44 5L47 5L47 2ZM0 42L0 49L7 49L7 42ZM1 43L1 48L6 48L6 43ZM2 44L2 47L5 47L5 44Z" fill="#000000"/></g></g></svg>
