<?xml version="1.0" encoding="UTF-8"?>
<svg xmlns="http://www.w3.org/2000/svg" version="1.1" width="300" height="300" viewBox="0 0 300 300"><rect x="0" y="0" width="300" height="300" fill="#ffffff"/><g transform="scale(5.882)"><g transform="translate(1,1)"><path fill-rule="evenodd" d="M8 0L8 2L10 2L10 3L8 3L8 7L9 7L9 5L10 5L10 8L9 8L9 9L7 9L7 8L6 8L6 9L7 9L7 10L6 10L6 11L7 11L7 12L4 12L4 11L5 11L5 10L4 10L4 8L3 8L3 9L0 9L0 10L1 10L1 11L2 11L2 12L0 12L0 13L4 13L4 14L1 14L1 15L0 15L0 16L1 16L1 15L3 15L3 16L2 16L2 17L0 17L0 20L1 20L1 21L2 21L2 22L1 22L1 23L3 23L3 24L2 24L2 25L0 25L0 26L2 26L2 27L3 27L3 26L2 26L2 25L4 25L4 27L7 27L7 28L6 28L6 29L4 29L4 28L1 28L1 27L0 27L0 28L1 28L1 29L0 29L0 30L1 30L1 31L2 31L2 32L0 32L0 34L1 34L1 37L0 37L0 38L1 38L1 40L0 40L0 41L3 41L3 40L4 40L4 39L2 39L2 38L3 38L3 37L4 37L4 38L5 38L5 39L7 39L7 40L6 40L6 41L8 41L8 42L9 42L9 45L8 45L8 46L10 46L10 45L11 45L11 47L9 47L9 48L11 48L11 49L12 49L12 48L13 48L13 49L15 49L15 47L14 47L14 45L13 45L13 44L11 44L11 43L10 43L10 41L11 41L11 40L10 40L10 39L12 39L12 43L13 43L13 39L14 39L14 40L15 40L15 38L17 38L17 40L16 40L16 41L14 41L14 44L15 44L15 42L17 42L17 41L18 41L18 43L19 43L19 46L18 46L18 48L17 48L17 47L16 47L16 48L17 48L17 49L18 49L18 48L19 48L19 49L20 49L20 48L22 48L22 49L24 49L24 48L23 48L23 45L24 45L24 46L27 46L27 47L28 47L28 45L29 45L29 47L30 47L30 48L31 48L31 49L32 49L32 47L34 47L34 45L32 45L32 44L33 44L33 42L32 42L32 44L29 44L29 41L28 41L28 39L30 39L30 37L32 37L32 38L31 38L31 41L32 41L32 39L34 39L34 44L35 44L35 45L36 45L36 47L35 47L35 48L36 48L36 49L38 49L38 48L39 48L39 47L37 47L37 44L35 44L35 42L36 42L36 43L37 43L37 41L38 41L38 40L40 40L40 42L38 42L38 43L40 43L40 45L41 45L41 47L42 47L42 48L40 48L40 49L46 49L46 47L47 47L47 49L49 49L49 46L48 46L48 47L47 47L47 46L44 46L44 47L42 47L42 45L45 45L45 44L46 44L46 45L47 45L47 44L48 44L48 45L49 45L49 43L48 43L48 42L47 42L47 44L46 44L46 43L45 43L45 40L44 40L44 39L45 39L45 38L43 38L43 37L44 37L44 36L45 36L45 35L44 35L44 34L43 34L43 33L44 33L44 32L43 32L43 31L46 31L46 33L48 33L48 35L47 35L47 34L46 34L46 35L47 35L47 36L46 36L46 37L47 37L47 36L48 36L48 37L49 37L49 30L48 30L48 32L47 32L47 31L46 31L46 29L48 29L48 28L49 28L49 27L47 27L47 28L46 28L46 27L45 27L45 25L46 25L46 26L48 26L48 25L46 25L46 24L47 24L47 23L48 23L48 24L49 24L49 22L48 22L48 21L49 21L49 19L47 19L47 20L48 20L48 21L47 21L47 22L46 22L46 24L45 24L45 21L46 21L46 20L45 20L45 21L44 21L44 20L43 20L43 21L44 21L44 22L40 22L40 24L39 24L39 23L37 23L37 21L35 21L35 22L34 22L34 21L32 21L32 20L33 20L33 19L34 19L34 20L35 20L35 19L39 19L39 16L40 16L40 13L38 13L38 12L40 12L40 11L41 11L41 12L42 12L42 11L43 11L43 10L44 10L44 11L45 11L45 12L44 12L44 14L43 14L43 15L42 15L42 16L44 16L44 17L45 17L45 18L43 18L43 17L40 17L40 18L42 18L42 19L46 19L46 15L47 15L47 16L48 16L48 17L49 17L49 15L47 15L47 11L48 11L48 14L49 14L49 11L48 11L48 10L46 10L46 8L43 8L43 10L42 10L42 11L41 11L41 10L40 10L40 9L41 9L41 6L40 6L40 7L39 7L39 5L38 5L38 4L37 4L37 3L36 3L36 4L37 4L37 5L38 5L38 7L39 7L39 8L37 8L37 9L34 9L34 10L33 10L33 11L32 11L32 10L31 10L31 9L30 9L30 8L32 8L32 7L33 7L33 8L36 8L36 7L37 7L37 6L36 6L36 5L34 5L34 7L33 7L33 6L32 6L32 5L33 5L33 4L35 4L35 1L34 1L34 0L32 0L32 1L31 1L31 0L27 0L27 1L29 1L29 2L30 2L30 3L31 3L31 2L32 2L32 1L34 1L34 2L33 2L33 4L32 4L32 5L31 5L31 4L30 4L30 5L29 5L29 4L28 4L28 2L26 2L26 1L25 1L25 3L26 3L26 4L23 4L23 3L24 3L24 2L22 2L22 1L21 1L21 0L20 0L20 1L21 1L21 2L22 2L22 3L21 3L21 4L22 4L22 5L21 5L21 6L20 6L20 7L21 7L21 6L22 6L22 8L18 8L18 7L19 7L19 6L18 6L18 7L17 7L17 5L19 5L19 4L20 4L20 3L19 3L19 0L18 0L18 1L17 1L17 0L15 0L15 1L16 1L16 2L15 2L15 4L16 4L16 5L12 5L12 1L13 1L13 2L14 2L14 0L11 0L11 1L9 1L9 0ZM37 0L37 2L39 2L39 4L40 4L40 3L41 3L41 0L40 0L40 1L38 1L38 0ZM30 1L30 2L31 2L31 1ZM13 3L13 4L14 4L14 3ZM18 3L18 4L19 4L19 3ZM10 4L10 5L11 5L11 8L10 8L10 10L9 10L9 11L8 11L8 10L7 10L7 11L8 11L8 12L9 12L9 15L8 15L8 14L7 14L7 13L6 13L6 14L5 14L5 15L6 15L6 16L7 16L7 17L5 17L5 16L3 16L3 17L2 17L2 18L1 18L1 20L2 20L2 21L4 21L4 22L9 22L9 19L8 19L8 20L7 20L7 19L6 19L6 18L9 18L9 17L10 17L10 19L11 19L11 17L12 17L12 19L13 19L13 20L14 20L14 18L15 18L15 19L17 19L17 20L16 20L16 21L18 21L18 22L16 22L16 23L15 23L15 24L14 24L14 22L13 22L13 21L12 21L12 22L11 22L11 20L10 20L10 22L11 22L11 23L9 23L9 25L10 25L10 24L12 24L12 26L10 26L10 27L9 27L9 28L10 28L10 31L9 31L9 30L8 30L8 28L7 28L7 29L6 29L6 30L4 30L4 29L3 29L3 30L4 30L4 31L3 31L3 32L4 32L4 34L3 34L3 33L1 33L1 34L3 34L3 35L2 35L2 36L5 36L5 38L8 38L8 39L9 39L9 38L8 38L8 37L9 37L9 35L10 35L10 36L11 36L11 35L10 35L10 34L11 34L11 33L12 33L12 31L13 31L13 32L14 32L14 30L15 30L15 32L16 32L16 33L18 33L18 35L19 35L19 34L21 34L21 35L22 35L22 34L21 34L21 32L20 32L20 31L19 31L19 30L18 30L18 29L19 29L19 28L20 28L20 30L21 30L21 31L23 31L23 32L22 32L22 33L23 33L23 32L25 32L25 33L26 33L26 34L23 34L23 36L17 36L17 35L16 35L16 36L15 36L15 37L16 37L16 36L17 36L17 37L18 37L18 41L21 41L21 42L19 42L19 43L20 43L20 45L21 45L21 44L22 44L22 43L21 43L21 42L22 42L22 40L23 40L23 38L22 38L22 37L24 37L24 39L25 39L25 40L27 40L27 39L28 39L28 38L29 38L29 37L28 37L28 36L27 36L27 39L26 39L26 38L25 38L25 36L24 36L24 35L27 35L27 33L28 33L28 32L29 32L29 34L30 34L30 36L31 36L31 34L33 34L33 35L34 35L34 36L35 36L35 35L36 35L36 36L37 36L37 38L38 38L38 39L35 39L35 41L36 41L36 40L38 40L38 39L40 39L40 40L42 40L42 39L40 39L40 37L41 37L41 36L42 36L42 35L41 35L41 36L38 36L38 35L40 35L40 34L42 34L42 33L41 33L41 32L40 32L40 33L38 33L38 32L39 32L39 31L40 31L40 30L41 30L41 31L43 31L43 30L41 30L41 29L42 29L42 28L43 28L43 29L44 29L44 28L45 28L45 29L46 29L46 28L45 28L45 27L42 27L42 28L40 28L40 29L39 29L39 27L36 27L36 29L33 29L33 30L36 30L36 29L37 29L37 31L35 31L35 32L34 32L34 31L32 31L32 29L29 29L29 28L30 28L30 27L31 27L31 28L33 28L33 27L31 27L31 26L32 26L32 25L33 25L33 26L34 26L34 25L35 25L35 23L36 23L36 22L35 22L35 23L33 23L33 24L32 24L32 25L31 25L31 26L30 26L30 27L29 27L29 26L28 26L28 25L29 25L29 23L27 23L27 26L28 26L28 27L27 27L27 28L26 28L26 27L24 27L24 28L23 28L23 29L21 29L21 28L22 28L22 25L21 25L21 24L22 24L22 22L19 22L19 18L21 18L21 19L20 19L20 21L23 21L23 20L21 20L21 19L23 19L23 18L22 18L22 17L21 17L21 16L20 16L20 14L22 14L22 15L23 15L23 14L24 14L24 16L23 16L23 17L25 17L25 15L26 15L26 17L27 17L27 18L26 18L26 19L28 19L28 20L27 20L27 22L30 22L30 23L32 23L32 21L30 21L30 20L32 20L32 19L33 19L33 18L32 18L32 17L33 17L33 16L32 16L32 15L34 15L34 18L36 18L36 17L35 17L35 16L37 16L37 17L38 17L38 16L39 16L39 14L38 14L38 13L36 13L36 12L37 12L37 10L36 10L36 11L35 11L35 10L34 10L34 11L33 11L33 12L32 12L32 11L31 11L31 10L30 10L30 9L27 9L27 10L30 10L30 12L29 12L29 11L28 11L28 12L29 12L29 14L28 14L28 13L27 13L27 11L26 11L26 10L25 10L25 9L24 9L24 11L25 11L25 12L24 12L24 13L23 13L23 14L22 14L22 12L23 12L23 9L22 9L22 10L21 10L21 11L19 11L19 10L20 10L20 9L19 9L19 10L18 10L18 9L17 9L17 10L16 10L16 11L17 11L17 13L15 13L15 10L14 10L14 9L16 9L16 8L17 8L17 7L16 7L16 6L15 6L15 8L14 8L14 9L13 9L13 10L12 10L12 9L11 9L11 8L13 8L13 7L14 7L14 6L13 6L13 7L12 7L12 5L11 5L11 4ZM27 4L27 5L28 5L28 4ZM23 5L23 8L26 8L26 5ZM30 5L30 6L29 6L29 7L28 7L28 6L27 6L27 7L28 7L28 8L29 8L29 7L30 7L30 6L31 6L31 7L32 7L32 6L31 6L31 5ZM24 6L24 7L25 7L25 6ZM35 6L35 7L36 7L36 6ZM47 8L47 9L49 9L49 8ZM13 10L13 11L14 11L14 10ZM21 11L21 12L22 12L22 11ZM34 11L34 12L35 12L35 11ZM10 12L10 13L11 13L11 15L10 15L10 16L12 16L12 17L13 17L13 18L14 18L14 15L13 15L13 14L14 14L14 12L12 12L12 13L11 13L11 12ZM18 12L18 13L17 13L17 14L15 14L15 15L17 15L17 16L15 16L15 17L18 17L18 18L17 18L17 19L18 19L18 18L19 18L19 15L18 15L18 13L19 13L19 12ZM30 12L30 13L32 13L32 14L33 14L33 13L32 13L32 12ZM45 12L45 13L46 13L46 12ZM24 13L24 14L26 14L26 13ZM35 13L35 14L34 14L34 15L37 15L37 16L38 16L38 14L36 14L36 13ZM41 13L41 14L42 14L42 13ZM6 14L6 15L7 15L7 16L8 16L8 17L9 17L9 16L8 16L8 15L7 15L7 14ZM44 14L44 16L45 16L45 14ZM30 15L30 16L31 16L31 15ZM27 16L27 17L29 17L29 18L31 18L31 19L32 19L32 18L31 18L31 17L29 17L29 16ZM3 18L3 19L4 19L4 21L5 21L5 20L6 20L6 21L7 21L7 20L6 20L6 19L4 19L4 18ZM24 19L24 21L25 21L25 22L26 22L26 21L25 21L25 19ZM29 19L29 20L30 20L30 19ZM38 20L38 22L39 22L39 21L41 21L41 20ZM18 22L18 23L17 23L17 24L18 24L18 25L19 25L19 24L18 24L18 23L19 23L19 22ZM5 23L5 26L8 26L8 23ZM20 23L20 24L21 24L21 23ZM23 23L23 26L26 26L26 23ZM41 23L41 26L44 26L44 23ZM6 24L6 25L7 25L7 24ZM13 24L13 26L15 26L15 27L11 27L11 28L12 28L12 29L14 29L14 28L16 28L16 27L17 27L17 29L15 29L15 30L17 30L17 29L18 29L18 27L17 27L17 25L16 25L16 24L15 24L15 25L14 25L14 24ZM24 24L24 25L25 25L25 24ZM36 24L36 25L37 25L37 24ZM38 24L38 26L39 26L39 24ZM42 24L42 25L43 25L43 24ZM15 25L15 26L16 26L16 25ZM20 25L20 26L21 26L21 25ZM20 27L20 28L21 28L21 27ZM28 27L28 28L29 28L29 27ZM34 27L34 28L35 28L35 27ZM37 28L37 29L38 29L38 31L37 31L37 32L35 32L35 33L37 33L37 34L36 34L36 35L38 35L38 33L37 33L37 32L38 32L38 31L39 31L39 29L38 29L38 28ZM24 29L24 31L25 31L25 30L26 30L26 29ZM27 29L27 30L28 30L28 31L29 31L29 32L32 32L32 31L31 31L31 30L28 30L28 29ZM6 30L6 31L7 31L7 30ZM11 30L11 31L12 31L12 30ZM8 31L8 32L5 32L5 35L9 35L9 34L6 34L6 33L8 33L8 32L9 32L9 31ZM16 31L16 32L18 32L18 31ZM26 32L26 33L27 33L27 32ZM13 33L13 34L12 34L12 35L13 35L13 37L10 37L10 38L13 38L13 37L14 37L14 35L15 35L15 34L14 34L14 33ZM34 34L34 35L35 35L35 34ZM43 35L43 36L44 36L44 35ZM6 36L6 37L8 37L8 36ZM32 36L32 37L33 37L33 36ZM35 37L35 38L36 38L36 37ZM20 38L20 39L19 39L19 40L22 40L22 38ZM48 38L48 40L47 40L47 39L46 39L46 40L47 40L47 41L49 41L49 38ZM23 41L23 44L26 44L26 41ZM41 41L41 44L44 44L44 41ZM24 42L24 43L25 43L25 42ZM30 42L30 43L31 43L31 42ZM42 42L42 43L43 43L43 42ZM16 43L16 45L15 45L15 46L17 46L17 45L18 45L18 44L17 44L17 43ZM27 43L27 45L28 45L28 43ZM38 44L38 46L39 46L39 44ZM31 45L31 46L30 46L30 47L31 47L31 46L32 46L32 45ZM12 46L12 47L11 47L11 48L12 48L12 47L13 47L13 48L14 48L14 47L13 47L13 46ZM19 46L19 48L20 48L20 47L22 47L22 46ZM25 47L25 48L26 48L26 47ZM44 47L44 48L45 48L45 47ZM27 48L27 49L29 49L29 48ZM0 0L0 7L7 7L7 0ZM1 1L1 6L6 6L6 1ZM2 2L2 5L5 5L5 2ZM42 0L42 7L49 7L49 0ZM43 1L43 6L48 6L48 1ZM44 2L44 5L47 5L47 2ZM0 42L0 49L7 49L7 42ZM1 43L1 48L6 48L6 43ZM2 44L2 47L5 47L5 44Z" fill="#000000"/></g></g></svg>
