<?xml version="1.0" encoding="UTF-8"?>
<svg xmlns="http://www.w3.org/2000/svg" version="1.1" width="300" height="300" viewBox="0 0 300 300"><rect x="0" y="0" width="300" height="300" fill="#ffffff"/><g transform="scale(5.882)"><g transform="translate(1,1)"><path fill-rule="evenodd" d="M8 0L8 3L9 3L9 5L8 5L8 9L7 9L7 8L6 8L6 9L5 9L5 8L2 8L2 9L0 9L0 10L2 10L2 11L0 11L0 14L1 14L1 17L2 17L2 19L3 19L3 21L2 21L2 20L1 20L1 21L0 21L0 22L1 22L1 24L0 24L0 30L1 30L1 31L0 31L0 34L2 34L2 35L3 35L3 36L1 36L1 35L0 35L0 36L1 36L1 40L0 40L0 41L3 41L3 40L4 40L4 39L2 39L2 38L3 38L3 37L4 37L4 35L5 35L5 39L7 39L7 38L6 38L6 37L7 37L7 36L8 36L8 35L9 35L9 36L10 36L10 35L11 35L11 37L8 37L8 42L10 42L10 43L9 43L9 44L8 44L8 47L9 47L9 48L10 48L10 47L9 47L9 46L10 46L10 45L9 45L9 44L10 44L10 43L11 43L11 46L12 46L12 47L11 47L11 49L12 49L12 48L13 48L13 47L14 47L14 49L16 49L16 48L17 48L17 46L19 46L19 45L20 45L20 43L21 43L21 41L22 41L22 45L21 45L21 47L18 47L18 48L19 48L19 49L21 49L21 48L22 48L22 49L23 49L23 48L24 48L24 49L25 49L25 47L26 47L26 49L27 49L27 46L28 46L28 44L27 44L27 42L29 42L29 41L27 41L27 40L28 40L28 35L27 35L27 34L25 34L25 35L24 35L24 33L25 33L25 32L26 32L26 33L28 33L28 34L29 34L29 35L30 35L30 34L32 34L32 33L30 33L30 32L27 32L27 31L31 31L31 32L32 32L32 31L31 31L31 30L32 30L32 29L31 29L31 28L32 28L32 27L33 27L33 28L34 28L34 29L33 29L33 30L35 30L35 32L34 32L34 31L33 31L33 32L34 32L34 33L35 33L35 34L36 34L36 35L35 35L35 36L36 36L36 37L35 37L35 38L36 38L36 40L38 40L38 41L37 41L37 42L36 42L36 41L35 41L35 39L34 39L34 40L33 40L33 41L32 41L32 39L33 39L33 38L34 38L34 37L33 37L33 36L34 36L34 34L33 34L33 36L30 36L30 37L29 37L29 39L31 39L31 41L30 41L30 43L32 43L32 44L31 44L31 45L30 45L30 46L29 46L29 47L32 47L32 48L31 48L31 49L35 49L35 48L36 48L36 49L40 49L40 48L36 48L36 47L40 47L40 46L39 46L39 45L41 45L41 46L43 46L43 47L41 47L41 48L42 48L42 49L43 49L43 48L46 48L46 49L49 49L49 48L48 48L48 47L49 47L49 44L47 44L47 43L48 43L48 42L49 42L49 40L48 40L48 39L49 39L49 36L48 36L48 35L49 35L49 34L46 34L46 32L44 32L44 33L45 33L45 34L44 34L44 35L43 35L43 34L42 34L42 33L43 33L43 32L42 32L42 33L40 33L40 32L37 32L37 30L35 30L35 29L36 29L36 28L37 28L37 29L38 29L38 30L39 30L39 31L41 31L41 30L42 30L42 29L44 29L44 27L45 27L45 26L46 26L46 27L48 27L48 26L49 26L49 25L48 25L48 26L46 26L46 25L47 25L47 23L49 23L49 20L47 20L47 18L46 18L46 17L44 17L44 16L43 16L43 18L42 18L42 17L40 17L40 15L41 15L41 16L42 16L42 14L46 14L46 13L47 13L47 15L48 15L48 13L49 13L49 12L48 12L48 13L47 13L47 12L45 12L45 13L44 13L44 12L43 12L43 11L44 11L44 10L45 10L45 11L48 11L48 10L49 10L49 8L46 8L46 9L47 9L47 10L45 10L45 9L44 9L44 8L41 8L41 9L42 9L42 10L43 10L43 11L41 11L41 10L40 10L40 9L39 9L39 8L40 8L40 7L41 7L41 6L40 6L40 7L39 7L39 5L34 5L34 4L36 4L36 2L39 2L39 4L40 4L40 3L41 3L41 0L40 0L40 1L38 1L38 0L37 0L37 1L35 1L35 0L34 0L34 1L35 1L35 3L34 3L34 2L32 2L32 1L31 1L31 0L29 0L29 1L28 1L28 2L29 2L29 3L28 3L28 4L27 4L27 2L26 2L26 1L27 1L27 0L26 0L26 1L25 1L25 4L23 4L23 3L22 3L22 2L21 2L21 4L19 4L19 3L20 3L20 1L18 1L18 2L15 2L15 1L16 1L16 0L15 0L15 1L14 1L14 0ZM22 0L22 1L23 1L23 2L24 2L24 1L23 1L23 0ZM11 1L11 4L10 4L10 5L9 5L9 8L10 8L10 9L9 9L9 10L10 10L10 11L9 11L9 12L8 12L8 13L6 13L6 14L5 14L5 16L4 16L4 17L3 17L3 18L5 18L5 19L4 19L4 22L2 22L2 23L4 23L4 22L5 22L5 20L7 20L7 21L6 21L6 22L7 22L7 21L8 21L8 22L9 22L9 21L10 21L10 22L12 22L12 21L13 21L13 22L14 22L14 23L16 23L16 25L14 25L14 24L11 24L11 25L10 25L10 24L9 24L9 25L10 25L10 27L11 27L11 25L12 25L12 28L11 28L11 29L10 29L10 28L8 28L8 27L6 27L6 28L5 28L5 27L2 27L2 26L4 26L4 24L1 24L1 27L2 27L2 29L1 29L1 30L2 30L2 31L1 31L1 32L2 32L2 31L3 31L3 33L4 33L4 34L3 34L3 35L4 35L4 34L5 34L5 35L6 35L6 36L7 36L7 35L8 35L8 34L9 34L9 33L10 33L10 31L11 31L11 30L12 30L12 32L13 32L13 30L12 30L12 28L13 28L13 29L14 29L14 28L13 28L13 25L14 25L14 26L15 26L15 28L16 28L16 29L17 29L17 31L15 31L15 32L14 32L14 33L16 33L16 32L17 32L17 33L20 33L20 34L18 34L18 36L17 36L17 35L16 35L16 34L15 34L15 35L14 35L14 36L13 36L13 33L11 33L11 34L12 34L12 36L13 36L13 37L15 37L15 35L16 35L16 38L17 38L17 39L15 39L15 40L16 40L16 41L17 41L17 43L15 43L15 41L14 41L14 42L13 42L13 43L12 43L12 44L13 44L13 46L14 46L14 47L15 47L15 48L16 48L16 46L15 46L15 45L16 45L16 44L17 44L17 45L19 45L19 44L17 44L17 43L18 43L18 42L19 42L19 41L21 41L21 40L20 40L20 38L21 38L21 39L22 39L22 40L23 40L23 39L24 39L24 36L23 36L23 37L20 37L20 36L21 36L21 33L22 33L22 32L23 32L23 33L24 33L24 32L23 32L23 31L24 31L24 30L26 30L26 31L27 31L27 29L25 29L25 28L24 28L24 27L21 27L21 25L22 25L22 24L21 24L21 23L22 23L22 18L23 18L23 17L24 17L24 18L25 18L25 16L27 16L27 17L26 17L26 19L25 19L25 20L24 20L24 19L23 19L23 22L25 22L25 21L27 21L27 24L29 24L29 23L28 23L28 22L29 22L29 21L30 21L30 22L31 22L31 20L32 20L32 21L33 21L33 20L35 20L35 18L38 18L38 19L37 19L37 20L36 20L36 21L34 21L34 22L32 22L32 23L30 23L30 24L35 24L35 23L36 23L36 25L33 25L33 27L34 27L34 28L36 28L36 26L37 26L37 24L40 24L40 22L39 22L39 23L36 23L36 22L37 22L37 21L38 21L38 20L40 20L40 21L41 21L41 20L40 20L40 19L39 19L39 18L40 18L40 17L39 17L39 15L40 15L40 14L39 14L39 13L38 13L38 14L37 14L37 15L36 15L36 11L37 11L37 12L39 12L39 11L40 11L40 12L41 12L41 14L42 14L42 13L43 13L43 12L41 12L41 11L40 11L40 10L39 10L39 9L38 9L38 8L39 8L39 7L38 7L38 6L37 6L37 7L38 7L38 8L36 8L36 6L35 6L35 7L34 7L34 6L33 6L33 7L34 7L34 8L36 8L36 9L35 9L35 10L34 10L34 9L33 9L33 8L32 8L32 5L33 5L33 4L34 4L34 3L31 3L31 4L32 4L32 5L31 5L31 7L30 7L30 6L29 6L29 8L27 8L27 10L26 10L26 9L25 9L25 10L24 10L24 9L22 9L22 6L21 6L21 7L20 7L20 6L19 6L19 4L17 4L17 5L18 5L18 6L17 6L17 8L16 8L16 6L15 6L15 5L14 5L14 6L13 6L13 4L12 4L12 3L13 3L13 2L14 2L14 1L13 1L13 2L12 2L12 1ZM29 1L29 2L30 2L30 1ZM18 2L18 3L19 3L19 2ZM37 3L37 4L38 4L38 3ZM11 4L11 5L10 5L10 8L12 8L12 9L10 9L10 10L12 10L12 9L13 9L13 10L14 10L14 11L12 11L12 13L13 13L13 14L12 14L12 15L13 15L13 14L14 14L14 13L15 13L15 12L17 12L17 11L15 11L15 10L18 10L18 9L19 9L19 10L21 10L21 11L18 11L18 14L19 14L19 12L20 12L20 13L22 13L22 9L21 9L21 8L19 8L19 6L18 6L18 9L16 9L16 8L14 8L14 7L15 7L15 6L14 6L14 7L13 7L13 6L12 6L12 7L11 7L11 5L12 5L12 4ZM28 4L28 5L30 5L30 4ZM23 5L23 8L26 8L26 5ZM24 6L24 7L25 7L25 6ZM27 6L27 7L28 7L28 6ZM2 9L2 10L4 10L4 9ZM6 9L6 10L7 10L7 9ZM14 9L14 10L15 10L15 9ZM29 9L29 10L28 10L28 11L26 11L26 10L25 10L25 11L23 11L23 12L24 12L24 13L23 13L23 14L22 14L22 15L21 15L21 14L20 14L20 15L19 15L19 16L16 16L16 18L15 18L15 16L14 16L14 18L15 18L15 19L14 19L14 20L13 20L13 18L12 18L12 19L11 19L11 18L10 18L10 16L11 16L11 17L13 17L13 16L11 16L11 13L10 13L10 12L9 12L9 13L10 13L10 14L8 14L8 15L10 15L10 16L9 16L9 17L8 17L8 16L5 16L5 17L7 17L7 18L6 18L6 19L7 19L7 20L8 20L8 18L10 18L10 19L9 19L9 20L10 20L10 21L12 21L12 20L13 20L13 21L14 21L14 22L17 22L17 24L19 24L19 26L18 26L18 25L17 25L17 26L16 26L16 27L17 27L17 28L18 28L18 31L20 31L20 32L22 32L22 31L23 31L23 29L22 29L22 28L20 28L20 25L21 25L21 24L20 24L20 22L21 22L21 20L20 20L20 19L21 19L21 18L20 18L20 19L18 19L18 18L17 18L17 17L19 17L19 16L22 16L22 17L23 17L23 15L24 15L24 16L25 16L25 15L24 15L24 13L25 13L25 14L26 14L26 13L27 13L27 14L28 14L28 15L30 15L30 14L31 14L31 13L30 13L30 14L29 14L29 13L28 13L28 11L29 11L29 12L32 12L32 11L33 11L33 10L32 10L32 11L30 11L30 9ZM43 9L43 10L44 10L44 9ZM35 10L35 11L34 11L34 12L33 12L33 13L32 13L32 14L33 14L33 15L31 15L31 16L30 16L30 17L29 17L29 16L28 16L28 17L29 17L29 18L27 18L27 21L29 21L29 19L32 19L32 20L33 20L33 18L34 18L34 17L33 17L33 16L34 16L34 14L35 14L35 11L36 11L36 10ZM38 10L38 11L39 11L39 10ZM3 11L3 12L2 12L2 13L1 13L1 14L2 14L2 15L4 15L4 14L2 14L2 13L3 13L3 12L4 12L4 13L5 13L5 12L7 12L7 11L5 11L5 12L4 12L4 11ZM25 12L25 13L26 13L26 12ZM16 13L16 14L17 14L17 13ZM33 13L33 14L34 14L34 13ZM6 14L6 15L7 15L7 14ZM35 15L35 16L36 16L36 17L38 17L38 16L36 16L36 15ZM45 15L45 16L46 16L46 15ZM48 16L48 18L49 18L49 16ZM30 17L30 18L31 18L31 17ZM32 17L32 18L33 18L33 17ZM0 18L0 19L1 19L1 18ZM16 18L16 19L15 19L15 21L17 21L17 22L18 22L18 23L19 23L19 22L20 22L20 21L19 21L19 20L18 20L18 21L17 21L17 18ZM41 18L41 19L42 19L42 18ZM44 18L44 19L43 19L43 20L42 20L42 21L43 21L43 20L44 20L44 21L45 21L45 22L48 22L48 21L46 21L46 18ZM10 19L10 20L11 20L11 19ZM18 21L18 22L19 22L19 21ZM34 22L34 23L35 23L35 22ZM5 23L5 26L8 26L8 23ZM23 23L23 26L26 26L26 23ZM41 23L41 26L44 26L44 23ZM45 23L45 25L46 25L46 23ZM6 24L6 25L7 25L7 24ZM24 24L24 25L25 25L25 24ZM42 24L42 25L43 25L43 24ZM27 25L27 27L26 27L26 28L27 28L27 27L28 27L28 26L29 26L29 27L30 27L30 28L31 28L31 26L32 26L32 25ZM38 25L38 26L39 26L39 27L37 27L37 28L39 28L39 30L41 30L41 29L42 29L42 27L41 27L41 28L39 28L39 27L40 27L40 26L39 26L39 25ZM17 26L17 27L18 27L18 26ZM6 28L6 29L4 29L4 33L7 33L7 32L6 32L6 31L7 31L7 30L8 30L8 33L9 33L9 31L10 31L10 30L8 30L8 28ZM19 28L19 30L20 30L20 31L21 31L21 30L22 30L22 29L21 29L21 30L20 30L20 28ZM28 28L28 30L30 30L30 29L29 29L29 28ZM45 28L45 30L46 30L46 31L47 31L47 32L48 32L48 33L49 33L49 32L48 32L48 31L49 31L49 30L48 30L48 28ZM6 29L6 30L5 30L5 31L6 31L6 30L7 30L7 29ZM46 29L46 30L47 30L47 29ZM43 30L43 31L44 31L44 30ZM35 32L35 33L36 33L36 32ZM37 33L37 35L36 35L36 36L37 36L37 37L36 37L36 38L38 38L38 39L39 39L39 38L40 38L40 40L41 40L41 39L42 39L42 40L43 40L43 39L44 39L44 40L46 40L46 41L45 41L45 42L48 42L48 41L47 41L47 40L46 40L46 39L44 39L44 38L46 38L46 37L45 37L45 35L46 35L46 36L47 36L47 37L48 37L48 36L47 36L47 35L46 35L46 34L45 34L45 35L44 35L44 36L43 36L43 35L42 35L42 34L41 34L41 35L42 35L42 36L43 36L43 37L38 37L38 36L39 36L39 35L38 35L38 34L40 34L40 33ZM6 34L6 35L7 35L7 34ZM25 35L25 36L26 36L26 37L27 37L27 35ZM37 35L37 36L38 36L38 35ZM18 37L18 38L19 38L19 37ZM31 37L31 38L32 38L32 37ZM43 37L43 38L42 38L42 39L43 39L43 38L44 38L44 37ZM9 38L9 39L10 39L10 40L9 40L9 41L10 41L10 42L11 42L11 41L10 41L10 40L11 40L11 39L12 39L12 40L13 40L13 39L12 39L12 38ZM22 38L22 39L23 39L23 38ZM25 38L25 39L26 39L26 40L27 40L27 39L26 39L26 38ZM18 39L18 40L17 40L17 41L18 41L18 40L19 40L19 39ZM6 40L6 41L7 41L7 40ZM23 41L23 44L26 44L26 41ZM31 41L31 42L32 42L32 43L33 43L33 44L32 44L32 45L31 45L31 46L32 46L32 47L33 47L33 48L35 48L35 46L37 46L37 45L38 45L38 44L40 44L40 41L39 41L39 42L37 42L37 45L34 45L34 46L32 46L32 45L33 45L33 44L36 44L36 42L34 42L34 41L33 41L33 42L32 42L32 41ZM41 41L41 44L44 44L44 41ZM24 42L24 43L25 43L25 42ZM33 42L33 43L34 43L34 42ZM42 42L42 43L43 43L43 42ZM14 43L14 44L15 44L15 43ZM46 44L46 45L45 45L45 46L44 46L44 45L43 45L43 46L44 46L44 47L46 47L46 48L47 48L47 47L48 47L48 46L47 46L47 44ZM24 45L24 46L22 46L22 48L23 48L23 47L25 47L25 46L26 46L26 45ZM46 46L46 47L47 47L47 46ZM0 0L0 7L7 7L7 0ZM1 1L1 6L6 6L6 1ZM2 2L2 5L5 5L5 2ZM42 0L42 7L49 7L49 0ZM43 1L43 6L48 6L48 1ZM44 2L44 5L47 5L47 2ZM0 42L0 49L7 49L7 42ZM1 43L1 48L6 48L6 43ZM2 44L2 47L5 47L5 44Z" fill="#000000"/></g></g></svg>
