<?xml version="1.0" encoding="UTF-8"?>
<svg xmlns="http://www.w3.org/2000/svg" version="1.1" width="300" height="300" viewBox="0 0 300 300"><rect x="0" y="0" width="300" height="300" fill="#ffffff"/><g transform="scale(5.882)"><g transform="translate(1,1)"><path fill-rule="evenodd" d="M8 0L8 3L9 3L9 5L8 5L8 9L10 9L10 10L9 10L9 11L8 11L8 10L4 10L4 12L3 12L3 11L0 11L0 14L1 14L1 17L2 17L2 18L4 18L4 19L2 19L2 20L1 20L1 21L0 21L0 27L5 27L5 28L6 28L6 29L4 29L4 33L3 33L3 31L2 31L2 30L0 30L0 31L2 31L2 34L3 34L3 36L1 36L1 35L0 35L0 36L1 36L1 40L0 40L0 41L3 41L3 40L4 40L4 39L2 39L2 37L3 37L3 38L4 38L4 33L5 33L5 32L6 32L6 33L8 33L8 34L9 34L9 36L10 36L10 35L11 35L11 37L8 37L8 36L5 36L5 37L7 37L7 38L5 38L5 39L7 39L7 38L8 38L8 40L6 40L6 41L8 41L8 42L10 42L10 43L9 43L9 44L8 44L8 47L9 47L9 49L10 49L10 48L11 48L11 46L12 46L12 47L17 47L17 48L16 48L16 49L17 49L17 48L21 48L21 49L24 49L24 48L23 48L23 47L26 47L26 49L27 49L27 46L28 46L28 44L27 44L27 42L30 42L30 43L29 43L29 46L34 46L34 45L35 45L35 46L36 46L36 47L35 47L35 48L33 48L33 47L32 47L32 48L31 48L31 49L35 49L35 48L36 48L36 49L40 49L40 48L36 48L36 47L40 47L40 46L39 46L39 45L42 45L42 46L41 46L41 47L42 47L42 46L44 46L44 45L46 45L46 44L47 44L47 46L46 46L46 47L44 47L44 48L42 48L42 49L44 49L44 48L46 48L46 49L49 49L49 48L48 48L48 47L49 47L49 44L47 44L47 43L48 43L48 42L49 42L49 40L48 40L48 39L49 39L49 36L48 36L48 35L49 35L49 32L47 32L47 33L48 33L48 34L46 34L46 32L44 32L44 33L45 33L45 34L42 34L42 35L41 35L41 33L43 33L43 32L41 32L41 30L42 30L42 29L44 29L44 27L45 27L45 28L46 28L46 27L48 27L48 26L49 26L49 25L48 25L48 26L45 26L45 23L46 23L46 25L47 25L47 23L49 23L49 20L47 20L47 18L46 18L46 17L44 17L44 16L43 16L43 18L42 18L42 17L40 17L40 15L41 15L41 16L42 16L42 15L43 15L43 14L46 14L46 12L45 12L45 11L44 11L44 12L45 12L45 13L43 13L43 14L42 14L42 15L41 15L41 13L42 13L42 12L43 12L43 10L46 10L46 11L48 11L48 10L49 10L49 8L46 8L46 9L44 9L44 8L41 8L41 9L42 9L42 12L40 12L40 11L41 11L41 10L40 10L40 9L39 9L39 8L40 8L40 7L41 7L41 6L40 6L40 7L39 7L39 5L38 5L38 3L37 3L37 5L35 5L35 6L34 6L34 7L33 7L33 6L32 6L32 7L31 7L31 5L32 5L32 4L33 4L33 3L34 3L34 4L36 4L36 2L39 2L39 4L40 4L40 3L41 3L41 0L40 0L40 1L38 1L38 0L37 0L37 1L35 1L35 0L34 0L34 1L35 1L35 3L34 3L34 2L32 2L32 1L31 1L31 0L29 0L29 1L28 1L28 2L26 2L26 1L27 1L27 0L26 0L26 1L25 1L25 4L23 4L23 3L22 3L22 2L19 2L19 3L18 3L18 1L21 1L21 0L16 0L16 2L15 2L15 4L14 4L14 1L11 1L11 2L9 2L9 1L10 1L10 0ZM22 0L22 1L23 1L23 2L24 2L24 0ZM29 1L29 2L30 2L30 1ZM10 3L10 6L9 6L9 8L10 8L10 9L12 9L12 10L10 10L10 11L9 11L9 12L10 12L10 13L8 13L8 14L7 14L7 13L5 13L5 14L4 14L4 13L3 13L3 14L2 14L2 13L1 13L1 14L2 14L2 16L3 16L3 17L4 17L4 18L5 18L5 19L4 19L4 22L1 22L1 23L4 23L4 22L5 22L5 20L7 20L7 21L6 21L6 22L7 22L7 21L8 21L8 22L9 22L9 23L10 23L10 22L11 22L11 24L10 24L10 26L11 26L11 27L9 27L9 28L8 28L8 27L6 27L6 28L8 28L8 30L7 30L7 29L6 29L6 30L5 30L5 31L6 31L6 32L8 32L8 30L9 30L9 31L10 31L10 32L11 32L11 31L10 31L10 29L11 29L11 30L12 30L12 32L13 32L13 33L10 33L10 34L12 34L12 36L13 36L13 37L15 37L15 35L16 35L16 38L17 38L17 39L15 39L15 40L16 40L16 41L17 41L17 42L16 42L16 44L14 44L14 43L15 43L15 41L14 41L14 42L12 42L12 43L10 43L10 44L9 44L9 45L10 45L10 46L11 46L11 44L12 44L12 45L13 45L13 46L17 46L17 45L19 45L19 44L20 44L20 42L19 42L19 41L21 41L21 45L22 45L22 41L21 41L21 40L20 40L20 38L21 38L21 39L22 39L22 40L25 40L25 39L26 39L26 40L27 40L27 41L30 41L30 42L31 42L31 45L33 45L33 44L35 44L35 45L36 45L36 46L37 46L37 45L38 45L38 44L40 44L40 41L39 41L39 42L37 42L37 41L38 41L38 40L37 40L37 39L39 39L39 38L40 38L40 40L46 40L46 41L45 41L45 42L48 42L48 41L47 41L47 40L46 40L46 39L42 39L42 38L44 38L44 37L45 37L45 38L46 38L46 37L48 37L48 36L47 36L47 35L46 35L46 34L45 34L45 35L43 35L43 36L44 36L44 37L42 37L42 36L41 36L41 37L38 37L38 36L39 36L39 34L40 34L40 33L41 33L41 32L40 32L40 33L39 33L39 34L38 34L38 33L37 33L37 34L38 34L38 36L37 36L37 35L36 35L36 34L35 34L35 33L36 33L36 32L35 32L35 30L37 30L37 32L39 32L39 31L38 31L38 30L41 30L41 29L42 29L42 27L41 27L41 28L39 28L39 27L40 27L40 26L39 26L39 25L38 25L38 26L39 26L39 27L38 27L38 28L36 28L36 26L37 26L37 24L40 24L40 22L39 22L39 23L36 23L36 22L37 22L37 21L38 21L38 20L40 20L40 21L41 21L41 20L40 20L40 19L39 19L39 18L40 18L40 17L39 17L39 15L40 15L40 14L39 14L39 13L38 13L38 14L39 14L39 15L36 15L36 11L37 11L37 12L39 12L39 11L40 11L40 10L38 10L38 9L37 9L37 8L39 8L39 7L38 7L38 6L37 6L37 8L36 8L36 6L35 6L35 7L34 7L34 8L36 8L36 9L35 9L35 10L34 10L34 9L33 9L33 7L32 7L32 8L31 8L31 7L30 7L30 6L29 6L29 9L30 9L30 11L31 11L31 9L33 9L33 12L32 12L32 13L31 13L31 12L29 12L29 11L28 11L28 8L27 8L27 10L26 10L26 9L22 9L22 6L21 6L21 7L20 7L20 6L19 6L19 7L18 7L18 6L17 6L17 8L16 8L16 6L15 6L15 8L16 8L16 9L19 9L19 8L21 8L21 9L22 9L22 13L20 13L20 12L19 12L19 14L18 14L18 11L21 11L21 10L15 10L15 11L17 11L17 12L15 12L15 13L14 13L14 14L13 14L13 13L12 13L12 11L14 11L14 9L12 9L12 8L11 8L11 7L12 7L12 6L13 6L13 8L14 8L14 5L13 5L13 4L12 4L12 3ZM19 3L19 4L18 4L18 5L19 5L19 4L21 4L21 3ZM27 3L27 7L28 7L28 5L30 5L30 4L28 4L28 3ZM31 3L31 4L32 4L32 3ZM11 4L11 5L12 5L12 4ZM23 5L23 8L26 8L26 5ZM10 6L10 7L11 7L11 6ZM24 6L24 7L25 7L25 6ZM2 8L2 10L3 10L3 9L5 9L5 8ZM6 8L6 9L7 9L7 8ZM46 9L46 10L47 10L47 9ZM25 10L25 12L26 12L26 13L25 13L25 14L24 14L24 13L23 13L23 14L22 14L22 15L21 15L21 14L20 14L20 15L19 15L19 16L14 16L14 18L15 18L15 19L14 19L14 20L13 20L13 18L10 18L10 16L11 16L11 13L10 13L10 14L8 14L8 15L10 15L10 16L9 16L9 17L8 17L8 16L5 16L5 15L4 15L4 14L3 14L3 15L4 15L4 16L5 16L5 17L7 17L7 18L6 18L6 19L7 19L7 20L8 20L8 18L10 18L10 19L9 19L9 20L10 20L10 21L9 21L9 22L10 22L10 21L11 21L11 22L12 22L12 21L11 21L11 20L10 20L10 19L12 19L12 20L13 20L13 21L14 21L14 22L13 22L13 23L14 23L14 22L15 22L15 23L16 23L16 24L17 24L17 23L18 23L18 25L17 25L17 27L18 27L18 29L19 29L19 28L20 28L20 30L18 30L18 32L16 32L16 33L15 33L15 34L14 34L14 33L13 33L13 36L14 36L14 35L15 35L15 34L16 34L16 35L17 35L17 36L18 36L18 34L20 34L20 33L18 33L18 32L19 32L19 31L20 31L20 32L22 32L22 33L21 33L21 36L20 36L20 37L23 37L23 38L22 38L22 39L25 39L25 38L26 38L26 39L27 39L27 40L28 40L28 39L27 39L27 38L29 38L29 36L30 36L30 37L32 37L32 38L31 38L31 39L29 39L29 40L30 40L30 41L31 41L31 42L33 42L33 43L34 43L34 42L36 42L36 43L35 43L35 44L36 44L36 45L37 45L37 44L36 44L36 43L37 43L37 42L36 42L36 41L37 41L37 40L36 40L36 41L35 41L35 39L37 39L37 38L38 38L38 37L37 37L37 36L36 36L36 37L37 37L37 38L35 38L35 39L34 39L34 40L33 40L33 41L32 41L32 40L31 40L31 39L33 39L33 38L34 38L34 37L33 37L33 36L34 36L34 33L35 33L35 32L34 32L34 31L33 31L33 32L34 32L34 33L33 33L33 36L31 36L31 35L30 35L30 34L32 34L32 33L30 33L30 32L29 32L29 31L31 31L31 32L32 32L32 31L31 31L31 30L32 30L32 29L31 29L31 28L32 28L32 27L33 27L33 25L36 25L36 23L35 23L35 22L34 22L34 21L36 21L36 20L37 20L37 19L38 19L38 18L35 18L35 20L33 20L33 18L34 18L34 17L33 17L33 16L34 16L34 14L35 14L35 11L36 11L36 10L35 10L35 11L34 11L34 12L33 12L33 13L32 13L32 14L33 14L33 15L31 15L31 14L30 14L30 13L28 13L28 12L27 12L27 11L26 11L26 10ZM5 11L5 12L8 12L8 11ZM23 11L23 12L24 12L24 11ZM48 12L48 13L47 13L47 15L48 15L48 13L49 13L49 12ZM16 13L16 14L17 14L17 13ZM26 13L26 14L25 14L25 16L24 16L24 15L23 15L23 17L24 17L24 18L25 18L25 17L27 17L27 18L26 18L26 19L25 19L25 20L24 20L24 19L23 19L23 18L22 18L22 19L21 19L21 18L20 18L20 19L21 19L21 20L23 20L23 22L25 22L25 21L26 21L26 22L27 22L27 24L29 24L29 23L30 23L30 24L35 24L35 23L34 23L34 22L32 22L32 23L31 23L31 21L26 21L26 19L27 19L27 18L30 18L30 19L31 19L31 20L32 20L32 21L33 21L33 20L32 20L32 19L31 19L31 18L30 18L30 17L28 17L28 16L30 16L30 14L28 14L28 13ZM33 13L33 14L34 14L34 13ZM6 14L6 15L7 15L7 14ZM12 14L12 15L13 15L13 14ZM27 14L27 15L26 15L26 16L27 16L27 15L28 15L28 14ZM45 15L45 16L46 16L46 15ZM12 16L12 17L13 17L13 16ZM21 16L21 17L22 17L22 16ZM35 16L35 17L38 17L38 16ZM48 16L48 18L49 18L49 16ZM17 17L17 18L16 18L16 19L17 19L17 18L18 18L18 19L19 19L19 17ZM32 17L32 18L33 18L33 17ZM0 18L0 19L1 19L1 18ZM41 18L41 19L42 19L42 18ZM44 18L44 19L43 19L43 20L42 20L42 21L43 21L43 20L44 20L44 21L45 21L45 22L48 22L48 21L46 21L46 18ZM2 20L2 21L3 21L3 20ZM18 20L18 21L17 21L17 22L16 22L16 21L15 21L15 22L16 22L16 23L17 23L17 22L18 22L18 21L19 21L19 20ZM21 21L21 22L19 22L19 25L18 25L18 27L19 27L19 25L20 25L20 28L21 28L21 30L20 30L20 31L21 31L21 30L22 30L22 28L21 28L21 27L22 27L22 25L21 25L21 24L22 24L22 21ZM28 22L28 23L29 23L29 22ZM5 23L5 26L8 26L8 23ZM23 23L23 26L26 26L26 23ZM41 23L41 26L44 26L44 23ZM1 24L1 25L2 25L2 26L4 26L4 24ZM6 24L6 25L7 25L7 24ZM13 24L13 26L12 26L12 25L11 25L11 26L12 26L12 27L11 27L11 28L12 28L12 30L13 30L13 31L17 31L17 29L16 29L16 25L15 25L15 27L14 27L14 24ZM24 24L24 25L25 25L25 24ZM42 24L42 25L43 25L43 24ZM27 25L27 27L25 27L25 28L24 28L24 27L23 27L23 31L24 31L24 30L25 30L25 29L26 29L26 30L27 30L27 31L28 31L28 30L27 30L27 27L28 27L28 26L29 26L29 27L30 27L30 28L31 28L31 26L32 26L32 25ZM12 27L12 28L13 28L13 29L14 29L14 30L15 30L15 29L14 29L14 27ZM1 28L1 29L2 29L2 28ZM28 28L28 29L29 29L29 30L30 30L30 29L29 29L29 28ZM33 28L33 29L36 29L36 28ZM38 28L38 29L39 29L39 28ZM47 28L47 29L48 29L48 28ZM45 29L45 30L46 30L46 31L47 31L47 30L46 30L46 29ZM6 30L6 31L7 31L7 30ZM43 30L43 31L44 31L44 30ZM48 30L48 31L49 31L49 30ZM25 31L25 34L24 34L24 33L23 33L23 35L25 35L25 36L26 36L26 37L28 37L28 36L27 36L27 35L25 35L25 34L28 34L28 33L26 33L26 31ZM0 32L0 33L1 33L1 32ZM17 33L17 34L18 34L18 33ZM5 34L5 35L7 35L7 34ZM45 35L45 37L46 37L46 35ZM18 37L18 38L19 38L19 37ZM41 37L41 38L42 38L42 37ZM9 38L9 39L10 39L10 40L8 40L8 41L10 41L10 42L11 42L11 41L10 41L10 40L11 40L11 39L12 39L12 40L13 40L13 39L12 39L12 38ZM18 39L18 40L17 40L17 41L18 41L18 40L19 40L19 39ZM23 41L23 44L26 44L26 41ZM33 41L33 42L34 42L34 41ZM41 41L41 44L44 44L44 41ZM18 42L18 43L17 43L17 44L19 44L19 42ZM24 42L24 43L25 43L25 42ZM42 42L42 43L43 43L43 42ZM23 45L23 46L19 46L19 47L21 47L21 48L22 48L22 47L23 47L23 46L26 46L26 45ZM47 46L47 47L46 47L46 48L47 48L47 47L48 47L48 46ZM14 48L14 49L15 49L15 48ZM0 0L0 7L7 7L7 0ZM1 1L1 6L6 6L6 1ZM2 2L2 5L5 5L5 2ZM42 0L42 7L49 7L49 0ZM43 1L43 6L48 6L48 1ZM44 2L44 5L47 5L47 2ZM0 42L0 49L7 49L7 42ZM1 43L1 48L6 48L6 43ZM2 44L2 47L5 47L5 44Z" fill="#000000"/></g></g></svg>
