<?xml version="1.0" encoding="UTF-8"?>
<svg xmlns="http://www.w3.org/2000/svg" version="1.1" width="300" height="300" viewBox="0 0 300 300"><rect x="0" y="0" width="300" height="300" fill="#ffffff"/><g transform="scale(5.882)"><g transform="translate(1,1)"><path fill-rule="evenodd" d="M8 0L8 3L9 3L9 5L8 5L8 9L7 9L7 8L6 8L6 9L5 9L5 8L2 8L2 9L4 9L4 10L5 10L5 11L4 11L4 12L5 12L5 13L3 13L3 11L0 11L0 14L1 14L1 17L2 17L2 16L3 16L3 17L4 17L4 16L5 16L5 17L7 17L7 18L6 18L6 19L7 19L7 20L5 20L5 22L4 22L4 19L5 19L5 18L4 18L4 19L3 19L3 21L2 21L2 20L1 20L1 21L0 21L0 22L1 22L1 23L0 23L0 25L2 25L2 24L4 24L4 26L1 26L1 27L0 27L0 28L1 28L1 27L5 27L5 28L6 28L6 29L4 29L4 32L3 32L3 31L1 31L1 32L2 32L2 33L1 33L1 34L2 34L2 35L4 35L4 36L6 36L6 37L5 37L5 39L7 39L7 40L6 40L6 41L8 41L8 42L10 42L10 43L9 43L9 44L8 44L8 47L11 47L11 48L12 48L12 47L15 47L15 46L12 46L12 45L13 45L13 44L11 44L11 46L10 46L10 45L9 45L9 44L10 44L10 43L11 43L11 42L12 42L12 43L13 43L13 42L14 42L14 41L15 41L15 42L16 42L16 41L18 41L18 40L19 40L19 41L22 41L22 45L21 45L21 46L20 46L20 45L16 45L16 44L15 44L15 43L14 43L14 44L15 44L15 45L16 45L16 46L20 46L20 47L21 47L21 46L22 46L22 48L23 48L23 47L24 47L24 46L25 46L25 47L26 47L26 49L27 49L27 46L28 46L28 44L27 44L27 42L29 42L29 45L31 45L31 46L34 46L34 45L35 45L35 46L36 46L36 47L35 47L35 48L33 48L33 47L32 47L32 48L31 48L31 49L35 49L35 48L36 48L36 49L40 49L40 48L36 48L36 47L40 47L40 46L39 46L39 45L42 45L42 46L41 46L41 47L42 47L42 48L41 48L41 49L44 49L44 48L46 48L46 49L49 49L49 48L48 48L48 47L49 47L49 44L47 44L47 43L48 43L48 42L49 42L49 40L48 40L48 39L49 39L49 36L48 36L48 35L49 35L49 34L48 34L48 33L49 33L49 32L47 32L47 34L44 34L44 33L46 33L46 32L44 32L44 33L43 33L43 32L42 32L42 33L40 33L40 31L41 31L41 30L42 30L42 29L44 29L44 27L45 27L45 28L46 28L46 27L48 27L48 26L49 26L49 25L48 25L48 26L46 26L46 25L47 25L47 23L49 23L49 20L47 20L47 18L46 18L46 17L44 17L44 16L43 16L43 18L42 18L42 17L40 17L40 15L41 15L41 16L42 16L42 14L43 14L43 15L44 15L44 14L46 14L46 13L44 13L44 14L43 14L43 13L42 13L42 12L43 12L43 11L44 11L44 12L46 12L46 11L48 11L48 10L49 10L49 8L46 8L46 9L47 9L47 10L45 10L45 9L44 9L44 8L41 8L41 10L40 10L40 9L39 9L39 8L37 8L37 5L38 5L38 7L39 7L39 5L38 5L38 3L37 3L37 5L35 5L35 6L34 6L34 7L33 7L33 6L32 6L32 7L31 7L31 4L36 4L36 2L37 2L37 1L38 1L38 2L39 2L39 4L40 4L40 3L41 3L41 0L40 0L40 1L38 1L38 0L37 0L37 1L35 1L35 0L34 0L34 1L35 1L35 3L33 3L33 2L32 2L32 1L31 1L31 0L29 0L29 1L28 1L28 2L29 2L29 4L28 4L28 3L27 3L27 2L26 2L26 1L27 1L27 0L26 0L26 1L22 1L22 0L20 0L20 1L22 1L22 2L21 2L21 4L19 4L19 2L18 2L18 1L19 1L19 0L18 0L18 1L17 1L17 0L15 0L15 1L13 1L13 0L12 0L12 1L13 1L13 2L10 2L10 1L9 1L9 0ZM16 1L16 2L13 2L13 3L17 3L17 7L18 7L18 6L19 6L19 8L21 8L21 9L22 9L22 13L20 13L20 12L19 12L19 14L18 14L18 11L21 11L21 10L18 10L18 8L16 8L16 6L15 6L15 8L14 8L14 9L12 9L12 8L11 8L11 9L12 9L12 10L10 10L10 11L9 11L9 10L7 10L7 9L6 9L6 10L7 10L7 11L5 11L5 12L10 12L10 13L9 13L9 14L10 14L10 13L11 13L11 16L10 16L10 15L8 15L8 14L7 14L7 13L6 13L6 14L7 14L7 15L5 15L5 14L3 14L3 13L1 13L1 14L2 14L2 15L5 15L5 16L8 16L8 17L9 17L9 16L10 16L10 18L8 18L8 20L7 20L7 21L6 21L6 22L7 22L7 21L8 21L8 22L9 22L9 21L10 21L10 23L12 23L12 22L11 22L11 21L10 21L10 20L12 20L12 21L13 21L13 22L14 22L14 21L13 21L13 20L14 20L14 19L15 19L15 21L17 21L17 22L15 22L15 26L13 26L13 24L14 24L14 23L13 23L13 24L12 24L12 26L11 26L11 25L9 25L9 26L10 26L10 27L11 27L11 28L8 28L8 27L6 27L6 28L8 28L8 30L7 30L7 29L6 29L6 30L5 30L5 31L6 31L6 32L5 32L5 33L2 33L2 34L4 34L4 35L5 35L5 34L7 34L7 35L6 35L6 36L7 36L7 35L8 35L8 36L9 36L9 37L6 37L6 38L7 38L7 39L8 39L8 38L9 38L9 39L10 39L10 40L8 40L8 41L10 41L10 42L11 42L11 41L13 41L13 39L12 39L12 38L9 38L9 37L11 37L11 35L10 35L10 36L9 36L9 35L8 35L8 34L7 34L7 33L6 33L6 32L8 32L8 30L9 30L9 32L10 32L10 33L9 33L9 34L12 34L12 36L13 36L13 37L15 37L15 35L16 35L16 38L17 38L17 39L15 39L15 40L18 40L18 39L19 39L19 40L20 40L20 38L21 38L21 39L22 39L22 40L25 40L25 39L26 39L26 40L27 40L27 41L30 41L30 40L31 40L31 38L32 38L32 37L30 37L30 36L29 36L29 37L28 37L28 35L25 35L25 34L28 34L28 33L29 33L29 32L30 32L30 33L32 33L32 34L30 34L30 35L31 35L31 36L33 36L33 37L34 37L34 38L33 38L33 40L32 40L32 41L33 41L33 42L31 42L31 43L30 43L30 44L31 44L31 45L33 45L33 44L35 44L35 42L37 42L37 45L36 45L36 46L37 46L37 45L38 45L38 44L40 44L40 41L39 41L39 42L37 42L37 41L38 41L38 40L37 40L37 39L36 39L36 38L38 38L38 39L39 39L39 38L40 38L40 40L42 40L42 39L41 39L41 37L42 37L42 38L43 38L43 39L44 39L44 40L46 40L46 41L45 41L45 42L48 42L48 41L47 41L47 40L46 40L46 39L44 39L44 38L46 38L46 37L48 37L48 36L47 36L47 35L48 35L48 34L47 34L47 35L46 35L46 36L45 36L45 35L44 35L44 34L43 34L43 33L42 33L42 34L41 34L41 35L42 35L42 34L43 34L43 35L44 35L44 36L43 36L43 37L42 37L42 36L41 36L41 37L36 37L36 38L35 38L35 35L36 35L36 36L39 36L39 34L40 34L40 33L37 33L37 35L36 35L36 34L35 34L35 33L36 33L36 32L35 32L35 31L33 31L33 30L41 30L41 29L42 29L42 27L41 27L41 28L39 28L39 27L40 27L40 26L39 26L39 25L38 25L38 26L39 26L39 27L38 27L38 28L36 28L36 26L37 26L37 24L40 24L40 22L41 22L41 21L39 21L39 23L36 23L36 22L37 22L37 21L38 21L38 20L40 20L40 19L39 19L39 18L40 18L40 17L39 17L39 15L40 15L40 14L39 14L39 13L38 13L38 14L39 14L39 15L37 15L37 16L35 16L35 15L36 15L36 11L37 11L37 12L39 12L39 11L40 11L40 12L42 12L42 11L40 11L40 10L38 10L38 9L37 9L37 8L36 8L36 6L35 6L35 7L34 7L34 8L36 8L36 9L35 9L35 10L34 10L34 9L33 9L33 8L31 8L31 7L30 7L30 6L29 6L29 7L28 7L28 6L27 6L27 10L26 10L26 9L25 9L25 10L24 10L24 9L22 9L22 6L21 6L21 7L20 7L20 6L19 6L19 4L18 4L18 2L17 2L17 1ZM29 1L29 2L30 2L30 1ZM22 2L22 3L23 3L23 4L24 4L24 3L25 3L25 2ZM10 3L10 4L12 4L12 5L11 5L11 7L12 7L12 6L13 6L13 7L14 7L14 6L13 6L13 5L14 5L14 4L12 4L12 3ZM29 4L29 5L30 5L30 4ZM23 5L23 8L26 8L26 5ZM9 6L9 9L10 9L10 6ZM24 6L24 7L25 7L25 6ZM40 6L40 7L41 7L41 6ZM15 8L15 9L14 9L14 11L12 11L12 13L13 13L13 14L12 14L12 15L13 15L13 14L14 14L14 13L15 13L15 12L17 12L17 11L15 11L15 10L17 10L17 9L16 9L16 8ZM28 8L28 10L27 10L27 11L26 11L26 10L25 10L25 12L24 12L24 10L23 10L23 13L25 13L25 14L26 14L26 13L28 13L28 14L27 14L27 15L28 15L28 14L29 14L29 16L28 16L28 17L30 17L30 19L29 19L29 18L26 18L26 19L27 19L27 20L25 20L25 18L24 18L24 17L23 17L23 14L22 14L22 15L21 15L21 14L20 14L20 15L19 15L19 16L17 16L17 17L16 17L16 16L14 16L14 18L17 18L17 19L16 19L16 20L17 20L17 21L18 21L18 22L19 22L19 21L18 21L18 20L20 20L20 21L22 21L22 22L21 22L21 23L22 23L22 24L21 24L21 25L20 25L20 23L19 23L19 25L17 25L17 26L15 26L15 29L14 29L14 28L12 28L12 30L11 30L11 29L9 29L9 30L10 30L10 32L11 32L11 33L14 33L14 31L13 31L13 32L12 32L12 30L15 30L15 31L17 31L17 32L16 32L16 33L15 33L15 34L13 34L13 36L14 36L14 35L15 35L15 34L16 34L16 35L17 35L17 36L18 36L18 34L20 34L20 33L19 33L19 31L20 31L20 32L22 32L22 33L21 33L21 36L20 36L20 37L24 37L24 39L25 39L25 38L26 38L26 39L27 39L27 40L28 40L28 39L29 39L29 38L30 38L30 37L29 37L29 38L28 38L28 39L27 39L27 37L26 37L26 36L25 36L25 37L24 37L24 36L23 36L23 35L24 35L24 34L23 34L23 32L24 32L24 33L25 33L25 32L26 32L26 33L27 33L27 31L31 31L31 32L32 32L32 31L31 31L31 30L32 30L32 29L31 29L31 28L32 28L32 27L33 27L33 28L34 28L34 29L36 29L36 28L34 28L34 27L33 27L33 25L36 25L36 23L35 23L35 22L34 22L34 21L36 21L36 20L37 20L37 19L38 19L38 18L36 18L36 17L35 17L35 18L36 18L36 19L35 19L35 20L33 20L33 18L34 18L34 17L33 17L33 16L34 16L34 14L35 14L35 11L36 11L36 10L35 10L35 11L34 11L34 12L33 12L33 13L32 13L32 12L31 12L31 11L33 11L33 10L31 10L31 11L30 11L30 9L29 9L29 8ZM43 9L43 10L44 10L44 11L45 11L45 10L44 10L44 9ZM28 10L28 11L27 11L27 12L29 12L29 13L30 13L30 14L31 14L31 15L32 15L32 14L31 14L31 12L30 12L30 11L29 11L29 10ZM37 10L37 11L38 11L38 10ZM25 12L25 13L26 13L26 12ZM48 12L48 13L47 13L47 15L48 15L48 13L49 13L49 12ZM16 13L16 14L17 14L17 13ZM33 13L33 14L34 14L34 13ZM41 13L41 14L42 14L42 13ZM24 15L24 16L25 16L25 17L26 17L26 15ZM45 15L45 16L46 16L46 15ZM11 16L11 18L10 18L10 19L9 19L9 20L10 20L10 19L11 19L11 18L12 18L12 20L13 20L13 17L12 17L12 16ZM19 16L19 17L17 17L17 18L18 18L18 19L20 19L20 20L23 20L23 22L26 22L26 21L25 21L25 20L24 20L24 19L23 19L23 17L22 17L22 16ZM30 16L30 17L31 17L31 16ZM37 16L37 17L38 17L38 16ZM48 16L48 18L49 18L49 16ZM20 17L20 19L21 19L21 17ZM32 17L32 18L33 18L33 17ZM0 18L0 19L1 19L1 18ZM41 18L41 19L42 19L42 18ZM44 18L44 19L43 19L43 20L42 20L42 21L43 21L43 20L44 20L44 21L45 21L45 22L48 22L48 21L46 21L46 18ZM31 19L31 20L29 20L29 21L27 21L27 24L29 24L29 23L30 23L30 24L35 24L35 23L34 23L34 22L32 22L32 23L31 23L31 22L29 22L29 21L31 21L31 20L32 20L32 21L33 21L33 20L32 20L32 19ZM2 22L2 23L1 23L1 24L2 24L2 23L4 23L4 22ZM28 22L28 23L29 23L29 22ZM5 23L5 26L8 26L8 23ZM16 23L16 24L18 24L18 23ZM23 23L23 26L26 26L26 23ZM41 23L41 26L44 26L44 23ZM45 23L45 25L46 25L46 23ZM6 24L6 25L7 25L7 24ZM24 24L24 25L25 25L25 24ZM42 24L42 25L43 25L43 24ZM21 25L21 26L20 26L20 27L18 27L18 26L17 26L17 27L16 27L16 29L17 29L17 31L18 31L18 29L17 29L17 27L18 27L18 28L19 28L19 30L20 30L20 31L21 31L21 30L20 30L20 27L21 27L21 26L22 26L22 25ZM27 25L27 27L26 27L26 28L27 28L27 27L28 27L28 29L29 29L29 30L30 30L30 29L29 29L29 27L30 27L30 28L31 28L31 26L32 26L32 25ZM28 26L28 27L29 27L29 26ZM45 26L45 27L46 27L46 26ZM22 27L22 31L24 31L24 30L25 30L25 31L27 31L27 30L25 30L25 28L24 28L24 27ZM38 28L38 29L39 29L39 28ZM47 28L47 29L48 29L48 28ZM0 29L0 30L2 30L2 29ZM45 29L45 30L46 30L46 31L49 31L49 30L46 30L46 29ZM6 30L6 31L7 31L7 30ZM43 30L43 31L44 31L44 30ZM37 31L37 32L39 32L39 31ZM33 32L33 33L35 33L35 32ZM33 34L33 36L34 36L34 35L35 35L35 34ZM0 35L0 36L1 36L1 40L0 40L0 41L3 41L3 40L4 40L4 39L2 39L2 38L4 38L4 37L3 37L3 36L1 36L1 35ZM44 36L44 37L43 37L43 38L44 38L44 37L45 37L45 36ZM18 37L18 38L19 38L19 37ZM22 38L22 39L23 39L23 38ZM11 39L11 40L10 40L10 41L11 41L11 40L12 40L12 39ZM34 39L34 40L33 40L33 41L34 41L34 42L33 42L33 43L34 43L34 42L35 42L35 40L36 40L36 41L37 41L37 40L36 40L36 39ZM23 41L23 44L26 44L26 41ZM41 41L41 44L44 44L44 41ZM18 42L18 43L17 43L17 44L21 44L21 43L20 43L20 42ZM24 42L24 43L25 43L25 42ZM42 42L42 43L43 43L43 42ZM46 44L46 45L45 45L45 46L42 46L42 47L43 47L43 48L44 48L44 47L46 47L46 48L47 48L47 47L48 47L48 46L47 46L47 44ZM25 45L25 46L26 46L26 45ZM11 46L11 47L12 47L12 46ZM46 46L46 47L47 47L47 46ZM18 47L18 48L17 48L17 49L18 49L18 48L19 48L19 49L21 49L21 48L19 48L19 47ZM9 48L9 49L10 49L10 48ZM13 48L13 49L16 49L16 48ZM0 0L0 7L7 7L7 0ZM1 1L1 6L6 6L6 1ZM2 2L2 5L5 5L5 2ZM42 0L42 7L49 7L49 0ZM43 1L43 6L48 6L48 1ZM44 2L44 5L47 5L47 2ZM0 42L0 49L7 49L7 42ZM1 43L1 48L6 48L6 43ZM2 44L2 47L5 47L5 44Z" fill="#000000"/></g></g></svg>
