<?xml version="1.0" encoding="UTF-8"?>
<svg xmlns="http://www.w3.org/2000/svg" version="1.1" width="300" height="300" viewBox="0 0 300 300"><rect x="0" y="0" width="300" height="300" fill="#ffffff"/><g transform="scale(5.882)"><g transform="translate(1,1)"><path fill-rule="evenodd" d="M8 0L8 3L9 3L9 5L8 5L8 9L7 9L7 8L6 8L6 9L5 9L5 8L2 8L2 9L3 9L3 10L2 10L2 11L0 11L0 14L1 14L1 17L4 17L4 16L5 16L5 17L7 17L7 18L6 18L6 19L7 19L7 20L5 20L5 22L4 22L4 19L5 19L5 18L4 18L4 19L3 19L3 21L2 21L2 20L1 20L1 21L0 21L0 22L1 22L1 23L2 23L2 24L0 24L0 26L1 26L1 27L5 27L5 28L6 28L6 29L4 29L4 32L3 32L3 31L2 31L2 30L1 30L1 29L2 29L2 28L1 28L1 29L0 29L0 32L1 32L1 34L3 34L3 37L2 37L2 36L1 36L1 35L0 35L0 36L1 36L1 40L0 40L0 41L3 41L3 40L4 40L4 39L2 39L2 38L4 38L4 32L5 32L5 33L7 33L7 34L6 34L6 35L7 35L7 36L6 36L6 37L7 37L7 36L8 36L8 37L9 37L9 38L8 38L8 39L7 39L7 38L5 38L5 39L7 39L7 40L6 40L6 41L8 41L8 42L10 42L10 43L9 43L9 44L8 44L8 47L9 47L9 46L10 46L10 49L12 49L12 48L11 48L11 46L10 46L10 45L9 45L9 44L10 44L10 43L11 43L11 45L13 45L13 44L12 44L12 43L11 43L11 42L10 42L10 41L11 41L11 40L12 40L12 42L14 42L14 41L15 41L15 42L17 42L17 41L18 41L18 40L19 40L19 39L18 39L18 40L15 40L15 39L17 39L17 38L16 38L16 35L17 35L17 36L18 36L18 34L20 34L20 33L18 33L18 31L17 31L17 29L16 29L16 28L17 28L17 27L18 27L18 28L20 28L20 30L19 30L19 31L20 31L20 32L22 32L22 33L21 33L21 36L20 36L20 37L23 37L23 38L22 38L22 39L21 39L21 38L20 38L20 40L21 40L21 41L19 41L19 42L18 42L18 43L17 43L17 44L19 44L19 45L16 45L16 44L15 44L15 43L14 43L14 44L15 44L15 46L12 46L12 47L14 47L14 48L13 48L13 49L16 49L16 48L17 48L17 46L18 46L18 49L19 49L19 48L20 48L20 47L21 47L21 49L22 49L22 48L23 48L23 49L25 49L25 47L26 47L26 49L27 49L27 46L28 46L28 44L27 44L27 42L33 42L33 43L34 43L34 42L36 42L36 43L37 43L37 42L39 42L39 41L40 41L40 44L38 44L38 45L37 45L37 44L32 44L32 43L31 43L31 44L32 44L32 45L31 45L31 46L34 46L34 45L37 45L37 46L35 46L35 48L33 48L33 47L32 47L32 48L31 48L31 49L35 49L35 48L36 48L36 49L40 49L40 48L36 48L36 47L40 47L40 46L39 46L39 45L41 45L41 46L43 46L43 47L42 47L42 48L46 48L46 49L49 49L49 48L48 48L48 47L49 47L49 44L47 44L47 43L48 43L48 42L49 42L49 40L48 40L48 39L49 39L49 36L48 36L48 35L49 35L49 32L48 32L48 31L49 31L49 29L48 29L48 28L46 28L46 27L48 27L48 26L49 26L49 25L48 25L48 26L45 26L45 23L46 23L46 25L47 25L47 23L49 23L49 20L47 20L47 18L46 18L46 17L44 17L44 16L43 16L43 18L42 18L42 17L40 17L40 15L41 15L41 16L42 16L42 14L43 14L43 15L44 15L44 14L46 14L46 13L47 13L47 15L48 15L48 13L49 13L49 12L48 12L48 13L47 13L47 12L46 12L46 11L48 11L48 10L49 10L49 8L46 8L46 9L47 9L47 10L45 10L45 9L44 9L44 8L41 8L41 10L40 10L40 9L39 9L39 8L40 8L40 7L41 7L41 6L40 6L40 7L39 7L39 5L35 5L35 4L36 4L36 2L39 2L39 4L40 4L40 3L41 3L41 0L40 0L40 1L38 1L38 0L37 0L37 1L35 1L35 0L34 0L34 1L35 1L35 3L34 3L34 2L33 2L33 3L34 3L34 4L33 4L33 5L32 5L32 1L31 1L31 0L29 0L29 1L28 1L28 3L27 3L27 2L26 2L26 1L27 1L27 0L26 0L26 1L23 1L23 0L22 0L22 1L21 1L21 4L19 4L19 3L20 3L20 0L17 0L17 1L19 1L19 3L18 3L18 2L17 2L17 3L16 3L16 1L15 1L15 0L13 0L13 1L15 1L15 2L14 2L14 3L12 3L12 0L11 0L11 1L10 1L10 0ZM9 1L9 2L10 2L10 4L12 4L12 5L11 5L11 7L10 7L10 6L9 6L9 8L11 8L11 9L10 9L10 11L6 11L6 10L7 10L7 9L6 9L6 10L5 10L5 11L4 11L4 12L7 12L7 13L6 13L6 14L7 14L7 15L5 15L5 14L4 14L4 13L3 13L3 12L2 12L2 13L1 13L1 14L2 14L2 16L3 16L3 15L5 15L5 16L8 16L8 17L9 17L9 16L10 16L10 18L8 18L8 20L7 20L7 21L6 21L6 22L7 22L7 21L8 21L8 22L9 22L9 24L11 24L11 25L9 25L9 28L8 28L8 27L6 27L6 28L8 28L8 30L7 30L7 29L6 29L6 30L5 30L5 31L6 31L6 32L8 32L8 33L9 33L9 34L7 34L7 35L8 35L8 36L9 36L9 37L11 37L11 35L10 35L10 36L9 36L9 34L12 34L12 36L13 36L13 37L15 37L15 35L16 35L16 34L15 34L15 33L16 33L16 32L17 32L17 31L14 31L14 33L11 33L11 31L9 31L9 32L8 32L8 30L10 30L10 29L9 29L9 28L10 28L10 26L11 26L11 27L13 27L13 25L14 25L14 24L15 24L15 25L16 25L16 26L14 26L14 28L13 28L13 30L12 30L12 28L11 28L11 30L12 30L12 32L13 32L13 30L15 30L15 27L17 27L17 26L18 26L18 27L19 27L19 26L20 26L20 28L21 28L21 27L22 27L22 28L23 28L23 30L22 30L22 29L21 29L21 30L20 30L20 31L22 31L22 32L23 32L23 34L24 34L24 35L23 35L23 36L24 36L24 38L23 38L23 39L22 39L22 40L23 40L23 39L26 39L26 40L27 40L27 41L33 41L33 42L34 42L34 41L33 41L33 40L34 40L34 39L36 39L36 38L37 38L37 39L39 39L39 38L40 38L40 40L41 40L41 39L42 39L42 38L43 38L43 39L44 39L44 40L46 40L46 41L45 41L45 42L48 42L48 41L47 41L47 40L46 40L46 39L44 39L44 38L46 38L46 37L48 37L48 36L46 36L46 37L45 37L45 35L46 35L46 34L47 34L47 33L48 33L48 32L47 32L47 31L46 31L46 30L47 30L47 29L46 29L46 28L45 28L45 27L44 27L44 29L42 29L42 27L41 27L41 28L39 28L39 27L40 27L40 26L39 26L39 25L38 25L38 26L39 26L39 27L37 27L37 28L36 28L36 26L37 26L37 24L40 24L40 22L41 22L41 21L40 21L40 22L39 22L39 23L36 23L36 22L37 22L37 21L38 21L38 20L40 20L40 19L39 19L39 18L40 18L40 17L39 17L39 15L40 15L40 14L39 14L39 13L38 13L38 12L39 12L39 11L40 11L40 12L41 12L41 14L42 14L42 13L43 13L43 14L44 14L44 13L45 13L45 10L43 10L43 12L41 12L41 11L40 11L40 10L38 10L38 9L37 9L37 8L39 8L39 7L38 7L38 6L37 6L37 8L36 8L36 6L35 6L35 5L34 5L34 6L33 6L33 7L32 7L32 6L31 6L31 7L30 7L30 6L29 6L29 5L30 5L30 4L28 4L28 6L27 6L27 7L28 7L28 9L27 9L27 10L26 10L26 9L25 9L25 10L23 10L23 9L22 9L22 6L21 6L21 7L20 7L20 6L19 6L19 8L21 8L21 9L22 9L22 13L20 13L20 12L19 12L19 14L18 14L18 11L21 11L21 10L19 10L19 9L18 9L18 10L15 10L15 9L14 9L14 8L16 8L16 9L17 9L17 8L16 8L16 6L15 6L15 7L14 7L14 6L13 6L13 4L12 4L12 3L11 3L11 2L10 2L10 1ZM22 1L22 3L24 3L24 4L25 4L25 3L24 3L24 2L23 2L23 1ZM29 1L29 2L30 2L30 1ZM17 3L17 7L18 7L18 3ZM37 3L37 4L38 4L38 3ZM23 5L23 8L26 8L26 5ZM12 6L12 7L11 7L11 8L12 8L12 9L11 9L11 10L12 10L12 9L13 9L13 10L14 10L14 11L12 11L12 13L13 13L13 14L12 14L12 15L13 15L13 14L14 14L14 13L15 13L15 12L17 12L17 11L15 11L15 10L14 10L14 9L13 9L13 6ZM24 6L24 7L25 7L25 6ZM28 6L28 7L29 7L29 6ZM34 6L34 7L33 7L33 9L34 9L34 10L35 10L35 11L34 11L34 12L32 12L32 11L33 11L33 10L32 10L32 11L31 11L31 12L32 12L32 13L30 13L30 12L29 12L29 11L30 11L30 9L29 9L29 11L26 11L26 10L25 10L25 11L23 11L23 12L26 12L26 13L25 13L25 14L24 14L24 13L23 13L23 14L22 14L22 15L21 15L21 14L20 14L20 15L19 15L19 16L16 16L16 17L15 17L15 16L14 16L14 18L15 18L15 19L14 19L14 20L13 20L13 19L12 19L12 18L10 18L10 19L9 19L9 20L10 20L10 21L9 21L9 22L10 22L10 21L12 21L12 22L11 22L11 23L13 23L13 21L14 21L14 23L15 23L15 24L16 24L16 25L18 25L18 26L19 26L19 25L20 25L20 24L22 24L22 27L24 27L24 28L25 28L25 27L27 27L27 25L32 25L32 26L31 26L31 28L30 28L30 27L29 27L29 26L28 26L28 28L29 28L29 29L28 29L28 30L27 30L27 28L26 28L26 29L25 29L25 30L24 30L24 31L23 31L23 32L24 32L24 33L25 33L25 32L26 32L26 33L29 33L29 34L28 34L28 35L29 35L29 36L30 36L30 34L32 34L32 33L30 33L30 32L29 32L29 31L31 31L31 32L32 32L32 31L31 31L31 30L32 30L32 29L31 29L31 28L32 28L32 27L33 27L33 28L34 28L34 29L36 29L36 28L34 28L34 27L33 27L33 25L36 25L36 23L35 23L35 22L34 22L34 21L36 21L36 20L37 20L37 19L38 19L38 18L35 18L35 20L33 20L33 18L34 18L34 17L33 17L33 16L34 16L34 14L35 14L35 11L36 11L36 15L35 15L35 16L36 16L36 17L38 17L38 16L36 16L36 15L37 15L37 14L38 14L38 15L39 15L39 14L38 14L38 13L37 13L37 12L38 12L38 10L37 10L37 11L36 11L36 10L35 10L35 9L36 9L36 8L34 8L34 7L35 7L35 6ZM31 8L31 9L32 9L32 8ZM0 9L0 10L1 10L1 9ZM8 9L8 10L9 10L9 9ZM8 12L8 13L7 13L7 14L8 14L8 15L10 15L10 16L11 16L11 17L13 17L13 16L11 16L11 13L10 13L10 12ZM27 12L27 13L26 13L26 14L25 14L25 16L24 16L24 14L23 14L23 17L22 17L22 16L19 16L19 17L16 17L16 19L17 19L17 18L18 18L18 19L19 19L19 20L18 20L18 21L16 21L16 22L15 22L15 23L16 23L16 24L18 24L18 25L19 25L19 24L20 24L20 22L21 22L21 23L22 23L22 22L21 22L21 21L20 21L20 20L23 20L23 22L26 22L26 21L25 21L25 20L24 20L24 19L21 19L21 18L23 18L23 17L24 17L24 18L25 18L25 16L26 16L26 15L27 15L27 18L29 18L29 17L28 17L28 16L29 16L29 15L30 15L30 13L29 13L29 12ZM43 12L43 13L44 13L44 12ZM2 13L2 14L3 14L3 13ZM9 13L9 14L10 14L10 13ZM16 13L16 14L17 14L17 13ZM27 13L27 15L29 15L29 14L28 14L28 13ZM32 13L32 15L33 15L33 14L34 14L34 13ZM45 15L45 16L46 16L46 15ZM48 16L48 18L49 18L49 16ZM19 17L19 18L21 18L21 17ZM30 17L30 18L31 18L31 17ZM32 17L32 18L33 18L33 17ZM0 18L0 19L1 19L1 18ZM41 18L41 19L42 19L42 18ZM44 18L44 19L43 19L43 20L42 20L42 21L43 21L43 20L44 20L44 21L45 21L45 22L48 22L48 21L46 21L46 18ZM10 19L10 20L11 20L11 19ZM26 19L26 20L27 20L27 19ZM29 19L29 20L30 20L30 19ZM31 19L31 20L32 20L32 21L33 21L33 20L32 20L32 19ZM12 20L12 21L13 21L13 20ZM18 21L18 22L17 22L17 23L19 23L19 21ZM27 21L27 24L29 24L29 23L30 23L30 24L35 24L35 23L34 23L34 22L32 22L32 23L30 23L30 22L31 22L31 21L30 21L30 22L29 22L29 21ZM2 22L2 23L4 23L4 22ZM28 22L28 23L29 23L29 22ZM5 23L5 26L8 26L8 23ZM23 23L23 26L26 26L26 23ZM41 23L41 26L44 26L44 23ZM2 24L2 26L4 26L4 24ZM6 24L6 25L7 25L7 24ZM12 24L12 25L13 25L13 24ZM24 24L24 25L25 25L25 24ZM42 24L42 25L43 25L43 24ZM37 28L37 30L34 30L34 31L33 31L33 32L34 32L34 33L35 33L35 34L33 34L33 36L31 36L31 37L26 37L26 36L25 36L25 38L26 38L26 39L27 39L27 40L28 40L28 39L29 39L29 38L31 38L31 39L30 39L30 40L33 40L33 38L34 38L34 37L33 37L33 36L34 36L34 35L35 35L35 34L36 34L36 36L38 36L38 37L37 37L37 38L38 38L38 37L41 37L41 38L42 38L42 37L44 37L44 35L45 35L45 34L46 34L46 32L42 32L42 33L41 33L41 30L42 30L42 29L41 29L41 30L38 30L38 29L39 29L39 28ZM29 29L29 30L30 30L30 29ZM45 29L45 30L46 30L46 29ZM6 30L6 31L7 31L7 30ZM26 30L26 31L27 31L27 30ZM37 30L37 32L39 32L39 31L38 31L38 30ZM43 30L43 31L44 31L44 30ZM1 31L1 32L2 32L2 31ZM34 31L34 32L35 32L35 33L36 33L36 32L35 32L35 31ZM37 33L37 34L41 34L41 37L42 37L42 36L43 36L43 35L44 35L44 34L45 34L45 33L42 33L42 34L41 34L41 33ZM13 34L13 36L14 36L14 35L15 35L15 34ZM25 34L25 35L27 35L27 34ZM42 34L42 35L43 35L43 34ZM38 35L38 36L39 36L39 35ZM18 37L18 38L19 38L19 37ZM31 37L31 38L32 38L32 37ZM35 37L35 38L36 38L36 37ZM9 38L9 39L8 39L8 40L9 40L9 41L10 41L10 40L11 40L11 39L12 39L12 40L13 40L13 39L12 39L12 38ZM27 38L27 39L28 39L28 38ZM9 39L9 40L10 40L10 39ZM35 40L35 41L36 41L36 42L37 42L37 41L38 41L38 40L37 40L37 41L36 41L36 40ZM21 41L21 44L20 44L20 45L19 45L19 46L21 46L21 45L22 45L22 41ZM23 41L23 44L26 44L26 41ZM41 41L41 44L44 44L44 41ZM24 42L24 43L25 43L25 42ZM42 42L42 43L43 43L43 42ZM29 43L29 44L30 44L30 43ZM46 44L46 45L45 45L45 46L44 46L44 45L43 45L43 46L44 46L44 47L46 47L46 48L47 48L47 47L48 47L48 46L47 46L47 44ZM24 45L24 47L25 47L25 46L26 46L26 45ZM46 46L46 47L47 47L47 46ZM15 47L15 48L16 48L16 47ZM0 0L0 7L7 7L7 0ZM1 1L1 6L6 6L6 1ZM2 2L2 5L5 5L5 2ZM42 0L42 7L49 7L49 0ZM43 1L43 6L48 6L48 1ZM44 2L44 5L47 5L47 2ZM0 42L0 49L7 49L7 42ZM1 43L1 48L6 48L6 43ZM2 44L2 47L5 47L5 44Z" fill="#000000"/></g></g></svg>
