<?xml version="1.0" encoding="UTF-8"?>
<svg xmlns="http://www.w3.org/2000/svg" version="1.1" width="300" height="300" viewBox="0 0 300 300"><rect x="0" y="0" width="300" height="300" fill="#ffffff"/><g transform="scale(5.882)"><g transform="translate(1,1)"><path fill-rule="evenodd" d="M8 0L8 3L9 3L9 2L10 2L10 4L9 4L9 5L8 5L8 9L7 9L7 8L6 8L6 9L5 9L5 8L2 8L2 9L1 9L1 10L2 10L2 9L5 9L5 11L4 11L4 10L3 10L3 11L0 11L0 14L1 14L1 17L2 17L2 20L1 20L1 21L0 21L0 22L1 22L1 23L0 23L0 27L1 27L1 28L2 28L2 27L5 27L5 28L6 28L6 29L4 29L4 33L3 33L3 31L1 31L1 34L2 34L2 35L3 35L3 36L1 36L1 35L0 35L0 36L1 36L1 40L0 40L0 41L3 41L3 40L4 40L4 39L2 39L2 38L3 38L3 36L4 36L4 38L5 38L5 39L7 39L7 40L6 40L6 41L7 41L7 40L8 40L8 42L10 42L10 43L9 43L9 44L8 44L8 47L9 47L9 49L12 49L12 47L14 47L14 48L13 48L13 49L16 49L16 47L15 47L15 46L16 46L16 45L17 45L17 46L20 46L20 49L22 49L22 48L23 48L23 47L24 47L24 49L25 49L25 47L26 47L26 49L27 49L27 46L28 46L28 44L27 44L27 42L29 42L29 43L30 43L30 45L31 45L31 46L29 46L29 47L31 47L31 46L34 46L34 45L35 45L35 44L33 44L33 43L34 43L34 42L36 42L36 43L37 43L37 42L39 42L39 41L40 41L40 44L38 44L38 45L37 45L37 44L36 44L36 45L37 45L37 46L35 46L35 48L33 48L33 47L32 47L32 48L31 48L31 49L35 49L35 48L36 48L36 49L40 49L40 48L36 48L36 47L40 47L40 46L39 46L39 45L42 45L42 46L41 46L41 47L42 47L42 46L44 46L44 45L46 45L46 44L47 44L47 46L46 46L46 47L44 47L44 48L42 48L42 49L44 49L44 48L46 48L46 49L49 49L49 48L48 48L48 47L49 47L49 44L47 44L47 43L48 43L48 42L49 42L49 40L48 40L48 39L49 39L49 36L48 36L48 35L49 35L49 32L48 32L48 31L49 31L49 30L46 30L46 29L48 29L48 28L46 28L46 27L48 27L48 26L49 26L49 25L48 25L48 26L45 26L45 23L46 23L46 25L47 25L47 23L49 23L49 20L47 20L47 18L46 18L46 17L44 17L44 16L43 16L43 18L42 18L42 17L40 17L40 15L41 15L41 16L42 16L42 15L43 15L43 14L46 14L46 13L47 13L47 15L48 15L48 13L49 13L49 12L48 12L48 13L47 13L47 12L44 12L44 10L45 10L45 11L48 11L48 10L49 10L49 8L46 8L46 9L47 9L47 10L45 10L45 9L44 9L44 8L41 8L41 10L40 10L40 9L39 9L39 8L38 8L38 7L39 7L39 5L38 5L38 7L37 7L37 5L34 5L34 4L36 4L36 2L37 2L37 1L38 1L38 2L39 2L39 4L40 4L40 3L41 3L41 0L40 0L40 1L38 1L38 0L37 0L37 1L35 1L35 0L34 0L34 1L35 1L35 3L32 3L32 1L31 1L31 0L29 0L29 1L28 1L28 2L26 2L26 1L27 1L27 0L26 0L26 1L25 1L25 0L23 0L23 1L22 1L22 0L18 0L18 2L17 2L17 1L16 1L16 0L15 0L15 1L14 1L14 2L13 2L13 3L12 3L12 4L11 4L11 2L12 2L12 1L11 1L11 0ZM10 1L10 2L11 2L11 1ZM15 1L15 3L13 3L13 4L12 4L12 5L9 5L9 7L10 7L10 8L11 8L11 9L12 9L12 10L10 10L10 9L8 9L8 10L10 10L10 11L9 11L9 12L10 12L10 13L9 13L9 14L10 14L10 13L11 13L11 16L10 16L10 15L5 15L5 16L4 16L4 14L3 14L3 15L2 15L2 17L3 17L3 18L5 18L5 19L4 19L4 22L2 22L2 23L4 23L4 22L5 22L5 20L7 20L7 21L6 21L6 22L7 22L7 21L8 21L8 22L9 22L9 24L10 24L10 23L11 23L11 24L12 24L12 23L11 23L11 22L14 22L14 23L15 23L15 22L14 22L14 21L10 21L10 20L11 20L11 19L10 19L10 18L12 18L12 19L13 19L13 20L14 20L14 19L15 19L15 20L16 20L16 22L18 22L18 23L17 23L17 24L16 24L16 25L14 25L14 24L13 24L13 25L11 25L11 26L12 26L12 27L11 27L11 29L10 29L10 30L12 30L12 32L13 32L13 33L11 33L11 31L10 31L10 33L8 33L8 30L9 30L9 28L8 28L8 27L6 27L6 28L8 28L8 30L7 30L7 29L6 29L6 30L5 30L5 31L6 31L6 32L7 32L7 33L4 33L4 34L3 34L3 33L2 33L2 34L3 34L3 35L4 35L4 36L5 36L5 37L6 37L6 38L7 38L7 39L10 39L10 40L9 40L9 41L10 41L10 42L11 42L11 41L10 41L10 40L11 40L11 39L12 39L12 40L13 40L13 39L12 39L12 38L9 38L9 37L11 37L11 35L10 35L10 36L9 36L9 37L8 37L8 38L7 38L7 37L6 37L6 36L8 36L8 34L10 34L10 33L11 33L11 34L12 34L12 36L13 36L13 37L15 37L15 35L16 35L16 38L17 38L17 39L15 39L15 40L16 40L16 42L15 42L15 41L14 41L14 42L13 42L13 44L12 44L12 43L10 43L10 44L9 44L9 45L10 45L10 48L11 48L11 46L12 46L12 45L13 45L13 46L15 46L15 45L16 45L16 44L14 44L14 43L18 43L18 42L19 42L19 41L20 41L20 42L21 42L21 43L20 43L20 44L17 44L17 45L20 45L20 46L21 46L21 48L22 48L22 47L23 47L23 46L24 46L24 47L25 47L25 46L26 46L26 45L25 45L25 46L24 46L24 45L23 45L23 46L21 46L21 45L22 45L22 41L20 41L20 38L21 38L21 39L22 39L22 40L23 40L23 39L22 39L22 38L24 38L24 40L25 40L25 39L26 39L26 40L27 40L27 41L29 41L29 42L30 42L30 43L31 43L31 44L32 44L32 45L33 45L33 44L32 44L32 43L33 43L33 42L34 42L34 41L33 41L33 40L34 40L34 39L35 39L35 41L36 41L36 42L37 42L37 41L38 41L38 40L37 40L37 41L36 41L36 39L35 39L35 38L37 38L37 39L38 39L38 38L40 38L40 40L41 40L41 39L42 39L42 40L46 40L46 41L45 41L45 42L48 42L48 41L47 41L47 40L46 40L46 39L42 39L42 38L43 38L43 37L42 37L42 36L41 36L41 37L38 37L38 36L39 36L39 34L41 34L41 33L42 33L42 34L43 34L43 35L44 35L44 36L45 36L45 37L44 37L44 38L46 38L46 36L47 36L47 37L48 37L48 36L47 36L47 35L48 35L48 34L47 34L47 33L48 33L48 32L47 32L47 31L46 31L46 30L45 30L45 29L46 29L46 28L45 28L45 27L44 27L44 29L42 29L42 27L41 27L41 28L39 28L39 27L40 27L40 26L39 26L39 25L38 25L38 26L39 26L39 27L38 27L38 28L36 28L36 26L37 26L37 24L40 24L40 22L39 22L39 23L36 23L36 22L37 22L37 21L38 21L38 20L39 20L39 21L41 21L41 20L40 20L40 19L39 19L39 18L40 18L40 17L39 17L39 15L40 15L40 14L39 14L39 13L37 13L37 15L36 15L36 11L37 11L37 12L39 12L39 11L40 11L40 12L42 12L42 13L44 13L44 12L42 12L42 10L41 10L41 11L40 11L40 10L39 10L39 9L38 9L38 8L36 8L36 6L35 6L35 7L34 7L34 5L33 5L33 4L32 4L32 5L31 5L31 7L30 7L30 6L29 6L29 5L30 5L30 4L29 4L29 5L28 5L28 6L27 6L27 7L28 7L28 6L29 6L29 9L30 9L30 11L29 11L29 12L28 12L28 8L27 8L27 10L26 10L26 9L22 9L22 6L21 6L21 7L20 7L20 6L19 6L19 8L21 8L21 9L22 9L22 13L20 13L20 12L19 12L19 14L18 14L18 11L21 11L21 10L18 10L18 8L16 8L16 6L15 6L15 3L17 3L17 2L16 2L16 1ZM19 1L19 2L18 2L18 4L17 4L17 5L19 5L19 4L21 4L21 3L19 3L19 2L20 2L20 1ZM29 1L29 2L30 2L30 1ZM22 2L22 3L23 3L23 4L24 4L24 3L25 3L25 2ZM37 3L37 4L38 4L38 3ZM13 4L13 6L12 6L12 7L11 7L11 6L10 6L10 7L11 7L11 8L12 8L12 9L13 9L13 8L14 8L14 9L15 9L15 10L14 10L14 11L12 11L12 13L13 13L13 14L12 14L12 15L13 15L13 14L14 14L14 13L15 13L15 12L17 12L17 11L15 11L15 10L17 10L17 9L16 9L16 8L14 8L14 7L15 7L15 6L14 6L14 4ZM23 5L23 8L26 8L26 5ZM32 5L32 7L31 7L31 8L32 8L32 7L33 7L33 9L32 9L32 11L31 11L31 12L32 12L32 13L30 13L30 12L29 12L29 13L27 13L27 11L26 11L26 10L25 10L25 11L24 11L24 12L23 12L23 14L22 14L22 15L21 15L21 14L20 14L20 15L19 15L19 16L17 16L17 17L16 17L16 16L14 16L14 18L15 18L15 19L16 19L16 18L17 18L17 21L18 21L18 22L19 22L19 23L20 23L20 24L21 24L21 23L22 23L22 25L19 25L19 24L18 24L18 25L17 25L17 26L18 26L18 27L16 27L16 28L15 28L15 29L14 29L14 27L15 27L15 26L13 26L13 28L12 28L12 30L13 30L13 31L14 31L14 33L13 33L13 36L14 36L14 35L15 35L15 34L16 34L16 35L17 35L17 36L18 36L18 34L17 34L17 33L18 33L18 32L19 32L19 31L20 31L20 32L22 32L22 33L21 33L21 36L20 36L20 37L24 37L24 38L26 38L26 39L27 39L27 40L28 40L28 37L29 37L29 39L30 39L30 40L29 40L29 41L31 41L31 42L33 42L33 41L31 41L31 40L32 40L32 39L33 39L33 38L34 38L34 37L33 37L33 36L34 36L34 34L36 34L36 35L37 35L37 36L35 36L35 37L37 37L37 38L38 38L38 37L37 37L37 36L38 36L38 35L37 35L37 34L38 34L38 33L41 33L41 32L37 32L37 30L35 30L35 32L34 32L34 31L33 31L33 32L34 32L34 33L33 33L33 36L30 36L30 34L32 34L32 33L30 33L30 32L29 32L29 34L25 34L25 33L23 33L23 32L25 32L25 31L26 31L26 30L29 30L29 31L31 31L31 32L32 32L32 31L31 31L31 30L32 30L32 29L31 29L31 28L32 28L32 27L33 27L33 25L36 25L36 23L35 23L35 22L34 22L34 21L36 21L36 20L37 20L37 19L38 19L38 18L36 18L36 17L38 17L38 16L36 16L36 15L35 15L35 18L36 18L36 19L35 19L35 20L33 20L33 18L34 18L34 17L33 17L33 16L34 16L34 14L35 14L35 11L36 11L36 10L35 10L35 9L36 9L36 8L34 8L34 7L33 7L33 5ZM13 6L13 7L14 7L14 6ZM17 6L17 7L18 7L18 6ZM24 6L24 7L25 7L25 6ZM40 6L40 7L41 7L41 6ZM6 9L6 10L7 10L7 9ZM33 9L33 11L32 11L32 12L34 12L34 11L35 11L35 10L34 10L34 9ZM43 9L43 10L44 10L44 9ZM37 10L37 11L38 11L38 10ZM3 11L3 12L2 12L2 13L1 13L1 14L2 14L2 13L5 13L5 14L8 14L8 13L5 13L5 12L4 12L4 11ZM6 11L6 12L8 12L8 11ZM25 12L25 13L24 13L24 14L23 14L23 17L24 17L24 18L25 18L25 19L26 19L26 20L24 20L24 19L20 19L20 20L18 20L18 21L20 21L20 22L25 22L25 21L27 21L27 24L29 24L29 23L30 23L30 24L35 24L35 23L34 23L34 22L32 22L32 23L30 23L30 22L29 22L29 21L31 21L31 20L32 20L32 21L33 21L33 20L32 20L32 19L31 19L31 20L29 20L29 21L27 21L27 18L29 18L29 17L28 17L28 16L29 16L29 14L27 14L27 13L26 13L26 12ZM16 13L16 14L17 14L17 13ZM25 13L25 14L26 14L26 13ZM33 13L33 14L34 14L34 13ZM30 14L30 16L31 16L31 14ZM38 14L38 15L39 15L39 14ZM41 14L41 15L42 15L42 14ZM24 15L24 16L25 16L25 15ZM26 15L26 16L27 16L27 15ZM45 15L45 16L46 16L46 15ZM5 16L5 17L7 17L7 18L6 18L6 19L7 19L7 20L8 20L8 18L10 18L10 16L9 16L9 17L8 17L8 16ZM12 16L12 18L13 18L13 16ZM19 16L19 17L17 17L17 18L18 18L18 19L19 19L19 17L20 17L20 16ZM21 16L21 17L22 17L22 16ZM48 16L48 18L49 18L49 16ZM26 17L26 18L27 18L27 17ZM30 17L30 18L31 18L31 17ZM32 17L32 18L33 18L33 17ZM0 18L0 19L1 19L1 18ZM41 18L41 19L42 19L42 18ZM44 18L44 19L43 19L43 20L42 20L42 21L43 21L43 20L44 20L44 21L45 21L45 22L48 22L48 21L46 21L46 18ZM9 19L9 20L10 20L10 19ZM2 20L2 21L3 21L3 20ZM20 20L20 21L23 21L23 20ZM9 21L9 22L10 22L10 21ZM28 22L28 23L29 23L29 22ZM5 23L5 26L8 26L8 23ZM23 23L23 26L26 26L26 23ZM41 23L41 26L44 26L44 23ZM2 24L2 26L1 26L1 27L2 27L2 26L4 26L4 24ZM6 24L6 25L7 25L7 24ZM24 24L24 25L25 25L25 24ZM42 24L42 25L43 25L43 24ZM9 25L9 26L10 26L10 25ZM18 25L18 26L19 26L19 25ZM27 25L27 28L28 28L28 26L29 26L29 27L30 27L30 28L31 28L31 26L32 26L32 25ZM21 26L21 27L20 27L20 28L18 28L18 29L17 29L17 28L16 28L16 29L17 29L17 30L18 30L18 31L19 31L19 30L20 30L20 31L22 31L22 32L23 32L23 31L24 31L24 30L26 30L26 27L25 27L25 28L24 28L24 27L22 27L22 26ZM20 28L20 30L22 30L22 31L23 31L23 28L22 28L22 29L21 29L21 28ZM33 28L33 30L34 30L34 29L36 29L36 28ZM38 28L38 29L39 29L39 28ZM1 29L1 30L2 30L2 29ZM13 29L13 30L14 30L14 29ZM18 29L18 30L19 30L19 29ZM29 29L29 30L30 30L30 29ZM41 29L41 30L38 30L38 31L41 31L41 30L42 30L42 29ZM6 30L6 31L7 31L7 30ZM43 30L43 31L44 31L44 30ZM15 31L15 33L16 33L16 32L17 32L17 31ZM27 31L27 32L26 32L26 33L27 33L27 32L28 32L28 31ZM35 32L35 33L36 33L36 32ZM42 32L42 33L44 33L44 32ZM45 32L45 34L44 34L44 35L45 35L45 36L46 36L46 35L47 35L47 34L46 34L46 32ZM19 33L19 34L20 34L20 33ZM6 34L6 35L7 35L7 34ZM24 34L24 35L23 35L23 36L24 36L24 35L25 35L25 36L26 36L26 37L27 37L27 35L25 35L25 34ZM45 34L45 35L46 35L46 34ZM28 35L28 36L29 36L29 35ZM18 37L18 38L19 38L19 37ZM30 37L30 39L31 39L31 38L32 38L32 37ZM41 37L41 38L42 38L42 37ZM18 39L18 40L17 40L17 41L18 41L18 40L19 40L19 39ZM23 41L23 44L26 44L26 41ZM41 41L41 44L44 44L44 41ZM24 42L24 43L25 43L25 42ZM42 42L42 43L43 43L43 42ZM11 44L11 45L12 45L12 44ZM20 44L20 45L21 45L21 44ZM47 46L47 47L46 47L46 48L47 48L47 47L48 47L48 46ZM0 0L0 7L7 7L7 0ZM1 1L1 6L6 6L6 1ZM2 2L2 5L5 5L5 2ZM42 0L42 7L49 7L49 0ZM43 1L43 6L48 6L48 1ZM44 2L44 5L47 5L47 2ZM0 42L0 49L7 49L7 42ZM1 43L1 48L6 48L6 43ZM2 44L2 47L5 47L5 44Z" fill="#000000"/></g></g></svg>
