<?xml version="1.0" encoding="UTF-8"?>
<svg xmlns="http://www.w3.org/2000/svg" version="1.1" width="300" height="300" viewBox="0 0 300 300"><rect x="0" y="0" width="300" height="300" fill="#ffffff"/><g transform="scale(5.882)"><g transform="translate(1,1)"><path fill-rule="evenodd" d="M8 0L8 3L9 3L9 4L11 4L11 5L8 5L8 10L9 10L9 11L8 11L8 12L3 12L3 11L0 11L0 14L1 14L1 17L2 17L2 14L1 14L1 13L4 13L4 14L3 14L3 16L5 16L5 17L7 17L7 18L6 18L6 19L7 19L7 20L5 20L5 22L4 22L4 20L3 20L3 21L2 21L2 20L1 20L1 21L0 21L0 23L1 23L1 22L4 22L4 23L2 23L2 24L1 24L1 25L0 25L0 29L1 29L1 30L2 30L2 29L1 29L1 26L2 26L2 27L5 27L5 28L6 28L6 29L4 29L4 33L2 33L2 32L3 32L3 31L0 31L0 34L2 34L2 35L4 35L4 36L3 36L3 37L2 37L2 36L1 36L1 35L0 35L0 36L1 36L1 40L0 40L0 41L3 41L3 40L4 40L4 39L2 39L2 38L5 38L5 39L9 39L9 40L8 40L8 42L10 42L10 43L9 43L9 44L8 44L8 47L9 47L9 46L10 46L10 45L9 45L9 44L10 44L10 43L11 43L11 45L12 45L12 46L13 46L13 47L14 47L14 46L13 46L13 45L12 45L12 43L13 43L13 42L14 42L14 41L15 41L15 43L14 43L14 44L15 44L15 43L17 43L17 44L19 44L19 45L17 45L17 47L16 47L16 48L14 48L14 49L16 49L16 48L17 48L17 47L18 47L18 46L20 46L20 47L19 47L19 48L18 48L18 49L19 49L19 48L20 48L20 49L21 49L21 48L25 48L25 47L26 47L26 49L27 49L27 46L28 46L28 44L27 44L27 42L29 42L29 41L30 41L30 44L32 44L32 45L31 45L31 46L34 46L34 45L35 45L35 46L36 46L36 47L35 47L35 48L33 48L33 47L32 47L32 48L31 48L31 49L35 49L35 48L36 48L36 49L40 49L40 48L36 48L36 47L40 47L40 46L39 46L39 45L42 45L42 46L41 46L41 47L42 47L42 48L41 48L41 49L42 49L42 48L46 48L46 49L49 49L49 48L48 48L48 47L49 47L49 44L47 44L47 43L48 43L48 42L49 42L49 40L48 40L48 39L49 39L49 36L46 36L46 35L47 35L47 34L48 34L48 35L49 35L49 34L48 34L48 33L49 33L49 32L47 32L47 34L44 34L44 35L43 35L43 34L42 34L42 35L41 35L41 34L39 34L39 36L37 36L37 35L38 35L38 34L37 34L37 32L38 32L38 33L39 33L39 32L40 32L40 33L43 33L43 32L40 32L40 30L39 30L39 32L38 32L38 29L39 29L39 28L41 28L41 27L42 27L42 29L41 29L41 30L42 30L42 29L44 29L44 27L45 27L45 28L46 28L46 29L45 29L45 30L46 30L46 31L49 31L49 29L48 29L48 28L46 28L46 27L48 27L48 26L49 26L49 25L48 25L48 26L46 26L46 25L47 25L47 23L49 23L49 20L47 20L47 18L46 18L46 17L44 17L44 16L43 16L43 18L42 18L42 17L40 17L40 15L41 15L41 16L42 16L42 15L43 15L43 14L46 14L46 13L44 13L44 12L45 12L45 11L43 11L43 10L46 10L46 11L48 11L48 10L49 10L49 8L46 8L46 9L44 9L44 8L41 8L41 9L42 9L42 12L40 12L40 11L41 11L41 10L40 10L40 9L39 9L39 8L40 8L40 7L41 7L41 6L40 6L40 7L39 7L39 5L38 5L38 7L39 7L39 8L37 8L37 5L35 5L35 6L34 6L34 4L36 4L36 2L39 2L39 4L40 4L40 3L41 3L41 0L40 0L40 1L38 1L38 0L37 0L37 1L35 1L35 0L34 0L34 1L35 1L35 3L34 3L34 2L32 2L32 1L31 1L31 0L29 0L29 1L28 1L28 2L29 2L29 4L30 4L30 5L29 5L29 6L28 6L28 5L27 5L27 4L28 4L28 3L27 3L27 2L26 2L26 1L27 1L27 0L26 0L26 1L25 1L25 0L24 0L24 1L23 1L23 3L22 3L22 0L21 0L21 1L20 1L20 0L19 0L19 2L18 2L18 0L17 0L17 2L15 2L15 0L13 0L13 1L14 1L14 3L12 3L12 2L11 2L11 0ZM24 1L24 2L25 2L25 1ZM29 1L29 2L30 2L30 1ZM17 2L17 3L18 3L18 2ZM31 2L31 3L32 3L32 2ZM11 3L11 4L12 4L12 5L11 5L11 7L12 7L12 6L13 6L13 9L12 9L12 8L11 8L11 9L12 9L12 10L10 10L10 9L9 9L9 10L10 10L10 11L9 11L9 12L10 12L10 13L8 13L8 14L7 14L7 13L6 13L6 14L4 14L4 15L5 15L5 16L8 16L8 17L9 17L9 16L10 16L10 18L8 18L8 20L7 20L7 21L6 21L6 22L7 22L7 21L8 21L8 22L9 22L9 23L10 23L10 24L9 24L9 26L10 26L10 24L11 24L11 26L12 26L12 27L11 27L11 28L10 28L10 27L9 27L9 28L8 28L8 27L6 27L6 28L8 28L8 30L7 30L7 29L6 29L6 30L5 30L5 31L6 31L6 32L8 32L8 33L10 33L10 34L12 34L12 36L13 36L13 37L15 37L15 35L16 35L16 38L17 38L17 39L15 39L15 41L16 41L16 42L17 42L17 43L18 43L18 42L20 42L20 41L19 41L19 40L20 40L20 38L21 38L21 39L22 39L22 40L23 40L23 39L22 39L22 38L23 38L23 37L20 37L20 36L21 36L21 33L22 33L22 32L23 32L23 33L24 33L24 35L25 35L25 36L26 36L26 37L27 37L27 38L28 38L28 40L27 40L27 39L26 39L26 38L25 38L25 37L24 37L24 38L25 38L25 39L24 39L24 40L25 40L25 39L26 39L26 40L27 40L27 41L29 41L29 40L30 40L30 41L31 41L31 40L30 40L30 39L31 39L31 38L32 38L32 37L31 37L31 38L30 38L30 39L29 39L29 37L30 37L30 35L31 35L31 36L33 36L33 37L34 37L34 38L33 38L33 39L32 39L32 41L33 41L33 42L31 42L31 43L32 43L32 44L35 44L35 43L36 43L36 44L37 44L37 45L36 45L36 46L37 46L37 45L38 45L38 44L40 44L40 41L39 41L39 42L37 42L37 41L38 41L38 40L37 40L37 39L38 39L38 38L40 38L40 40L46 40L46 41L45 41L45 42L48 42L48 41L47 41L47 40L46 40L46 39L41 39L41 37L42 37L42 38L44 38L44 37L45 37L45 38L46 38L46 36L45 36L45 35L44 35L44 36L43 36L43 37L42 37L42 36L41 36L41 37L35 37L35 35L36 35L36 34L35 34L35 33L36 33L36 32L35 32L35 31L33 31L33 28L36 28L36 29L34 29L34 30L37 30L37 28L39 28L39 27L40 27L40 26L39 26L39 25L40 25L40 23L36 23L36 22L37 22L37 21L38 21L38 20L40 20L40 19L39 19L39 18L40 18L40 17L39 17L39 15L40 15L40 14L39 14L39 13L38 13L38 12L39 12L39 11L40 11L40 10L38 10L38 9L37 9L37 8L36 8L36 6L35 6L35 7L34 7L34 6L33 6L33 7L32 7L32 5L31 5L31 7L30 7L30 6L29 6L29 8L28 8L28 9L27 9L27 10L26 10L26 9L24 9L24 10L26 10L26 11L27 11L27 10L28 10L28 9L30 9L30 11L28 11L28 15L27 15L27 13L26 13L26 12L25 12L25 11L24 11L24 12L23 12L23 9L22 9L22 6L21 6L21 7L20 7L20 6L19 6L19 4L21 4L21 3L19 3L19 4L17 4L17 7L18 7L18 6L19 6L19 8L18 8L18 9L17 9L17 8L16 8L16 6L15 6L15 4L14 4L14 5L13 5L13 4L12 4L12 3ZM24 3L24 4L25 4L25 3ZM33 3L33 4L34 4L34 3ZM37 3L37 4L38 4L38 3ZM23 5L23 8L26 8L26 5ZM9 6L9 8L10 8L10 6ZM14 6L14 7L15 7L15 6ZM24 6L24 7L25 7L25 6ZM27 6L27 7L28 7L28 6ZM33 7L33 9L31 9L31 11L30 11L30 12L31 12L31 13L30 13L30 14L29 14L29 15L30 15L30 14L31 14L31 16L28 16L28 17L29 17L29 18L26 18L26 16L27 16L27 15L26 15L26 16L25 16L25 15L24 15L24 13L23 13L23 14L22 14L22 15L21 15L21 14L20 14L20 15L19 15L19 16L16 16L16 17L15 17L15 16L14 16L14 18L16 18L16 19L14 19L14 20L13 20L13 19L12 19L12 18L13 18L13 17L12 17L12 16L11 16L11 13L10 13L10 14L8 14L8 15L10 15L10 16L11 16L11 18L10 18L10 19L9 19L9 20L10 20L10 21L9 21L9 22L10 22L10 23L11 23L11 24L12 24L12 25L13 25L13 26L14 26L14 27L12 27L12 30L8 30L8 32L9 32L9 31L11 31L11 33L13 33L13 36L14 36L14 35L15 35L15 34L16 34L16 35L17 35L17 36L18 36L18 32L16 32L16 33L15 33L15 34L14 34L14 33L13 33L13 32L12 32L12 30L13 30L13 31L14 31L14 32L15 32L15 31L18 31L18 30L19 30L19 31L20 31L20 32L22 32L22 31L23 31L23 32L26 32L26 33L27 33L27 34L25 34L25 35L28 35L28 36L29 36L29 35L30 35L30 34L32 34L32 33L30 33L30 32L27 32L27 31L25 31L25 30L24 30L24 31L23 31L23 30L22 30L22 28L23 28L23 27L24 27L24 28L26 28L26 30L27 30L27 29L28 29L28 30L29 30L29 31L31 31L31 32L32 32L32 31L31 31L31 30L32 30L32 29L31 29L31 28L32 28L32 27L33 27L33 25L36 25L36 23L35 23L35 22L34 22L34 21L36 21L36 20L37 20L37 19L38 19L38 18L36 18L36 17L38 17L38 16L36 16L36 15L38 15L38 13L37 13L37 12L38 12L38 10L37 10L37 11L36 11L36 10L35 10L35 9L36 9L36 8L34 8L34 7ZM2 8L2 9L1 9L1 10L2 10L2 9L3 9L3 10L4 10L4 11L5 11L5 10L4 10L4 9L5 9L5 8ZM6 8L6 9L7 9L7 8ZM15 8L15 9L14 9L14 11L12 11L12 13L13 13L13 14L12 14L12 15L13 15L13 14L14 14L14 13L15 13L15 12L17 12L17 11L15 11L15 10L17 10L17 9L16 9L16 8ZM19 8L19 9L18 9L18 10L21 10L21 11L18 11L18 14L19 14L19 12L20 12L20 13L22 13L22 9L21 9L21 8ZM33 9L33 10L32 10L32 11L31 11L31 12L32 12L32 11L33 11L33 12L34 12L34 11L35 11L35 14L34 14L34 13L33 13L33 14L34 14L34 16L33 16L33 17L32 17L32 18L33 18L33 20L32 20L32 19L31 19L31 20L32 20L32 21L33 21L33 20L35 20L35 19L36 19L36 18L35 18L35 15L36 15L36 11L35 11L35 10L34 10L34 9ZM46 9L46 10L47 10L47 9ZM6 10L6 11L7 11L7 10ZM42 12L42 13L43 13L43 12ZM48 12L48 13L47 13L47 15L48 15L48 13L49 13L49 12ZM16 13L16 14L17 14L17 13ZM25 13L25 14L26 14L26 13ZM6 14L6 15L7 15L7 14ZM41 14L41 15L42 15L42 14ZM23 15L23 17L24 17L24 18L25 18L25 19L26 19L26 18L25 18L25 16L24 16L24 15ZM45 15L45 16L46 16L46 15ZM19 16L19 17L16 17L16 18L18 18L18 19L19 19L19 20L18 20L18 21L16 21L16 22L15 22L15 23L16 23L16 24L17 24L17 23L16 23L16 22L18 22L18 24L20 24L20 26L19 26L19 25L18 25L18 27L17 27L17 25L15 25L15 24L14 24L14 21L12 21L12 22L13 22L13 23L12 23L12 24L13 24L13 25L14 25L14 26L16 26L16 27L14 27L14 28L13 28L13 30L14 30L14 31L15 31L15 28L16 28L16 29L17 29L17 28L18 28L18 29L19 29L19 30L20 30L20 31L22 31L22 30L20 30L20 28L19 28L19 27L20 27L20 26L21 26L21 27L22 27L22 26L21 26L21 24L20 24L20 23L21 23L21 21L23 21L23 22L26 22L26 21L27 21L27 24L29 24L29 23L30 23L30 24L35 24L35 23L34 23L34 22L32 22L32 23L31 23L31 22L29 22L29 21L27 21L27 20L26 20L26 21L25 21L25 20L24 20L24 19L23 19L23 20L22 20L22 19L21 19L21 18L22 18L22 16ZM48 16L48 18L49 18L49 16ZM3 17L3 18L4 18L4 19L5 19L5 18L4 18L4 17ZM33 17L33 18L34 18L34 17ZM0 18L0 19L1 19L1 18ZM41 18L41 19L42 19L42 18ZM44 18L44 19L43 19L43 20L42 20L42 21L43 21L43 20L44 20L44 21L45 21L45 22L48 22L48 21L46 21L46 18ZM10 19L10 20L11 20L11 19ZM16 19L16 20L17 20L17 19ZM20 19L20 21L21 21L21 19ZM10 21L10 22L11 22L11 21ZM18 21L18 22L19 22L19 21ZM39 21L39 22L41 22L41 21ZM28 22L28 23L29 23L29 22ZM5 23L5 26L8 26L8 23ZM23 23L23 26L26 26L26 23ZM41 23L41 26L44 26L44 23ZM45 23L45 25L46 25L46 23ZM2 24L2 26L4 26L4 24ZM6 24L6 25L7 25L7 24ZM24 24L24 25L25 25L25 24ZM37 24L37 26L36 26L36 28L37 28L37 27L39 27L39 26L38 26L38 25L39 25L39 24ZM42 24L42 25L43 25L43 24ZM27 25L27 27L26 27L26 28L28 28L28 29L29 29L29 30L30 30L30 29L29 29L29 27L30 27L30 28L31 28L31 26L32 26L32 25ZM28 26L28 27L29 27L29 26ZM45 26L45 27L46 27L46 26ZM16 27L16 28L17 28L17 27ZM46 29L46 30L48 30L48 29ZM6 30L6 31L7 31L7 30ZM43 30L43 31L44 31L44 30ZM33 32L33 34L34 34L34 33L35 33L35 32ZM44 32L44 33L46 33L46 32ZM4 33L4 34L5 34L5 36L4 36L4 37L6 37L6 38L7 38L7 37L6 37L6 36L7 36L7 35L6 35L6 34L7 34L7 33ZM19 33L19 34L20 34L20 33ZM28 33L28 34L29 34L29 33ZM8 35L8 36L9 36L9 37L11 37L11 35L10 35L10 36L9 36L9 35ZM33 35L33 36L34 36L34 35ZM18 37L18 38L19 38L19 37ZM9 38L9 39L10 39L10 40L9 40L9 41L10 41L10 42L11 42L11 43L12 43L12 42L11 42L11 41L13 41L13 39L12 39L12 38ZM35 38L35 39L34 39L34 40L33 40L33 41L34 41L34 42L33 42L33 43L34 43L34 42L36 42L36 43L37 43L37 42L36 42L36 41L37 41L37 40L36 40L36 39L37 39L37 38ZM11 39L11 40L10 40L10 41L11 41L11 40L12 40L12 39ZM18 39L18 40L16 40L16 41L18 41L18 40L19 40L19 39ZM6 40L6 41L7 41L7 40ZM21 41L21 44L20 44L20 43L19 43L19 44L20 44L20 45L22 45L22 41ZM23 41L23 44L26 44L26 41ZM41 41L41 44L44 44L44 41ZM24 42L24 43L25 43L25 42ZM42 42L42 43L43 43L43 42ZM46 44L46 45L45 45L45 46L42 46L42 47L46 47L46 48L47 48L47 47L48 47L48 46L47 46L47 44ZM23 45L23 47L25 47L25 46L26 46L26 45L25 45L25 46L24 46L24 45ZM29 46L29 47L30 47L30 46ZM46 46L46 47L47 47L47 46ZM10 47L10 48L9 48L9 49L10 49L10 48L11 48L11 47ZM20 47L20 48L21 48L21 47ZM0 0L0 7L7 7L7 0ZM1 1L1 6L6 6L6 1ZM2 2L2 5L5 5L5 2ZM42 0L42 7L49 7L49 0ZM43 1L43 6L48 6L48 1ZM44 2L44 5L47 5L47 2ZM0 42L0 49L7 49L7 42ZM1 43L1 48L6 48L6 43ZM2 44L2 47L5 47L5 44Z" fill="#000000"/></g></g></svg>
