<?xml version="1.0" encoding="UTF-8"?>
<svg xmlns="http://www.w3.org/2000/svg" version="1.1" width="300" height="300" viewBox="0 0 300 300"><rect x="0" y="0" width="300" height="300" fill="#ffffff"/><g transform="scale(5.882)"><g transform="translate(1,1)"><path fill-rule="evenodd" d="M8 0L8 3L10 3L10 4L9 4L9 5L8 5L8 9L7 9L7 8L6 8L6 9L5 9L5 8L2 8L2 11L0 11L0 14L1 14L1 17L2 17L2 19L3 19L3 21L2 21L2 20L1 20L1 21L0 21L0 22L4 22L4 23L1 23L1 24L0 24L0 26L1 26L1 27L0 27L0 34L1 34L1 33L2 33L2 32L3 32L3 33L7 33L7 34L6 34L6 35L5 35L5 34L2 34L2 36L1 36L1 35L0 35L0 36L1 36L1 40L0 40L0 41L3 41L3 40L4 40L4 39L2 39L2 37L3 37L3 35L5 35L5 36L4 36L4 37L5 37L5 39L7 39L7 40L6 40L6 41L8 41L8 42L10 42L10 43L9 43L9 44L8 44L8 47L9 47L9 49L11 49L11 47L12 47L12 48L13 48L13 49L15 49L15 48L14 48L14 47L15 47L15 46L16 46L16 48L18 48L18 49L22 49L22 48L23 48L23 49L24 49L24 48L23 48L23 47L24 47L24 46L23 46L23 45L26 45L26 46L25 46L25 47L26 47L26 49L27 49L27 46L28 46L28 44L27 44L27 42L30 42L30 43L29 43L29 44L31 44L31 46L34 46L34 45L35 45L35 46L36 46L36 47L35 47L35 48L33 48L33 47L32 47L32 48L31 48L31 49L35 49L35 48L36 48L36 49L40 49L40 48L36 48L36 47L40 47L40 46L39 46L39 45L42 45L42 46L41 46L41 48L46 48L46 49L49 49L49 48L48 48L48 47L49 47L49 44L47 44L47 43L48 43L48 42L49 42L49 40L48 40L48 39L49 39L49 36L48 36L48 35L47 35L47 34L49 34L49 32L48 32L48 31L47 31L47 30L46 30L46 29L45 29L45 30L46 30L46 31L47 31L47 32L48 32L48 33L47 33L47 34L42 34L42 33L44 33L44 32L42 32L42 33L41 33L41 32L38 32L38 29L39 29L39 28L41 28L41 27L42 27L42 29L41 29L41 30L39 30L39 31L41 31L41 30L42 30L42 29L44 29L44 27L48 27L48 26L49 26L49 25L48 25L48 26L45 26L45 23L46 23L46 25L47 25L47 23L49 23L49 20L47 20L47 18L46 18L46 17L44 17L44 16L43 16L43 18L42 18L42 17L40 17L40 15L41 15L41 16L42 16L42 15L43 15L43 14L46 14L46 13L47 13L47 15L48 15L48 13L49 13L49 12L48 12L48 13L47 13L47 12L46 12L46 13L44 13L44 11L43 11L43 10L46 10L46 11L48 11L48 10L49 10L49 8L46 8L46 9L44 9L44 8L41 8L41 10L40 10L40 9L39 9L39 8L40 8L40 7L41 7L41 6L40 6L40 7L39 7L39 5L35 5L35 6L34 6L34 7L33 7L33 6L32 6L32 5L33 5L33 3L34 3L34 4L36 4L36 2L37 2L37 3L38 3L38 2L39 2L39 4L40 4L40 3L41 3L41 0L40 0L40 1L38 1L38 0L37 0L37 1L35 1L35 0L34 0L34 1L35 1L35 3L34 3L34 2L33 2L33 3L32 3L32 5L31 5L31 2L32 2L32 1L31 1L31 0L29 0L29 1L28 1L28 2L26 2L26 1L27 1L27 0L26 0L26 1L25 1L25 0L21 0L21 1L20 1L20 2L21 2L21 4L19 4L19 6L18 6L18 5L17 5L17 4L18 4L18 3L19 3L19 2L18 2L18 3L16 3L16 2L15 2L15 3L14 3L14 1L17 1L17 0L13 0L13 1L12 1L12 0L11 0L11 1L12 1L12 2L11 2L11 3L10 3L10 0ZM22 1L22 3L23 3L23 4L24 4L24 3L23 3L23 1ZM29 1L29 2L30 2L30 1ZM12 2L12 3L11 3L11 4L12 4L12 5L10 5L10 6L9 6L9 8L10 8L10 6L11 6L11 7L12 7L12 6L13 6L13 7L14 7L14 5L13 5L13 4L14 4L14 3L13 3L13 2ZM12 3L12 4L13 4L13 3ZM27 3L27 4L28 4L28 3ZM29 4L29 5L30 5L30 4ZM23 5L23 8L26 8L26 5ZM27 5L27 8L28 8L28 5ZM15 6L15 8L16 8L16 9L17 9L17 10L15 10L15 9L14 9L14 10L13 10L13 9L12 9L12 8L11 8L11 9L12 9L12 10L10 10L10 9L8 9L8 10L7 10L7 9L6 9L6 10L7 10L7 11L6 11L6 12L7 12L7 11L9 11L9 12L8 12L8 13L5 13L5 9L3 9L3 10L4 10L4 12L3 12L3 11L2 11L2 12L3 12L3 13L1 13L1 14L2 14L2 17L3 17L3 18L5 18L5 19L4 19L4 22L5 22L5 20L7 20L7 21L6 21L6 22L7 22L7 21L8 21L8 22L9 22L9 21L10 21L10 22L11 22L11 23L9 23L9 24L11 24L11 26L12 26L12 27L9 27L9 28L8 28L8 27L6 27L6 28L5 28L5 27L2 27L2 28L1 28L1 30L2 30L2 31L3 31L3 32L4 32L4 29L6 29L6 30L5 30L5 31L6 31L6 32L8 32L8 30L9 30L9 31L10 31L10 32L9 32L9 34L8 34L8 35L6 35L6 36L5 36L5 37L6 37L6 38L7 38L7 39L8 39L8 41L10 41L10 42L11 42L11 43L10 43L10 44L9 44L9 45L10 45L10 47L11 47L11 43L13 43L13 44L12 44L12 46L13 46L13 47L14 47L14 46L15 46L15 45L16 45L16 46L17 46L17 45L19 45L19 46L20 46L20 45L22 45L22 41L21 41L21 40L20 40L20 38L21 38L21 39L22 39L22 40L25 40L25 39L26 39L26 40L27 40L27 41L31 41L31 40L32 40L32 41L33 41L33 42L31 42L31 43L32 43L32 45L33 45L33 44L35 44L35 45L36 45L36 46L37 46L37 45L38 45L38 44L40 44L40 41L39 41L39 42L37 42L37 41L38 41L38 40L37 40L37 39L36 39L36 38L37 38L37 37L36 37L36 38L35 38L35 35L36 35L36 36L39 36L39 34L41 34L41 33L38 33L38 32L37 32L37 33L38 33L38 35L36 35L36 34L35 34L35 33L36 33L36 32L35 32L35 31L33 31L33 28L36 28L36 29L34 29L34 30L37 30L37 29L38 29L38 28L39 28L39 27L40 27L40 26L39 26L39 25L40 25L40 23L36 23L36 22L37 22L37 21L38 21L38 20L39 20L39 21L40 21L40 22L41 22L41 20L40 20L40 19L39 19L39 18L40 18L40 17L39 17L39 15L40 15L40 14L39 14L39 13L38 13L38 15L37 15L37 16L35 16L35 15L36 15L36 11L37 11L37 12L39 12L39 11L40 11L40 12L41 12L41 13L43 13L43 12L41 12L41 11L42 11L42 10L41 10L41 11L40 11L40 10L39 10L39 9L38 9L38 8L39 8L39 7L38 7L38 6L37 6L37 7L38 7L38 8L36 8L36 6L35 6L35 7L34 7L34 8L36 8L36 9L35 9L35 10L34 10L34 9L33 9L33 11L32 11L32 12L34 12L34 11L35 11L35 14L34 14L34 13L32 13L32 15L33 15L33 14L34 14L34 16L33 16L33 17L32 17L32 18L33 18L33 20L32 20L32 19L30 19L30 20L29 20L29 21L27 21L27 18L29 18L29 17L30 17L30 18L31 18L31 15L30 15L30 16L29 16L29 14L28 14L28 13L26 13L26 12L25 12L25 10L26 10L26 11L27 11L27 10L28 10L28 12L29 12L29 13L30 13L30 14L31 14L31 12L30 12L30 11L31 11L31 7L32 7L32 6L31 6L31 7L30 7L30 6L29 6L29 9L30 9L30 11L29 11L29 10L28 10L28 9L27 9L27 10L26 10L26 9L25 9L25 10L24 10L24 12L23 12L23 9L22 9L22 6L21 6L21 7L20 7L20 6L19 6L19 7L18 7L18 6L17 6L17 7L18 7L18 8L16 8L16 6ZM24 6L24 7L25 7L25 6ZM18 8L18 9L19 9L19 10L21 10L21 11L18 11L18 14L19 14L19 12L20 12L20 13L22 13L22 9L21 9L21 8ZM0 9L0 10L1 10L1 9ZM46 9L46 10L47 10L47 9ZM9 10L9 11L10 11L10 10ZM14 10L14 11L12 11L12 13L13 13L13 14L12 14L12 15L13 15L13 14L14 14L14 13L15 13L15 12L17 12L17 11L15 11L15 10ZM35 10L35 11L36 11L36 10ZM38 10L38 11L39 11L39 10ZM9 12L9 13L8 13L8 14L6 14L6 15L10 15L10 16L9 16L9 17L8 17L8 16L5 16L5 13L3 13L3 14L4 14L4 15L3 15L3 16L5 16L5 17L7 17L7 18L6 18L6 19L7 19L7 20L8 20L8 18L10 18L10 19L9 19L9 20L10 20L10 21L11 21L11 22L12 22L12 21L14 21L14 24L13 24L13 23L12 23L12 25L13 25L13 26L14 26L14 27L13 27L13 28L12 28L12 30L11 30L11 33L13 33L13 32L14 32L14 34L13 34L13 36L12 36L12 34L9 34L9 36L10 36L10 35L11 35L11 37L9 37L9 38L12 38L12 39L11 39L11 40L10 40L10 39L9 39L9 40L10 40L10 41L11 41L11 42L14 42L14 41L15 41L15 42L16 42L16 43L17 43L17 44L16 44L16 45L17 45L17 44L19 44L19 45L20 45L20 44L21 44L21 43L19 43L19 42L21 42L21 41L20 41L20 40L19 40L19 39L18 39L18 40L16 40L16 41L15 41L15 39L17 39L17 38L16 38L16 35L17 35L17 36L18 36L18 33L19 33L19 34L20 34L20 33L19 33L19 31L20 31L20 32L22 32L22 33L21 33L21 36L20 36L20 37L24 37L24 39L25 39L25 38L26 38L26 39L27 39L27 40L28 40L28 39L29 39L29 40L31 40L31 39L32 39L32 40L33 40L33 41L34 41L34 42L33 42L33 43L34 43L34 42L35 42L35 44L36 44L36 45L37 45L37 42L35 42L35 40L36 40L36 41L37 41L37 40L36 40L36 39L34 39L34 40L33 40L33 38L34 38L34 37L33 37L33 36L34 36L34 34L33 34L33 36L31 36L31 35L30 35L30 34L32 34L32 33L30 33L30 32L28 32L28 31L27 31L27 32L26 32L26 31L25 31L25 30L27 30L27 29L25 29L25 30L24 30L24 31L23 31L23 27L24 27L24 28L25 28L25 27L26 27L26 28L27 28L27 25L32 25L32 26L31 26L31 28L30 28L30 27L29 27L29 26L28 26L28 28L29 28L29 29L30 29L30 30L29 30L29 31L31 31L31 32L32 32L32 31L31 31L31 30L32 30L32 29L31 29L31 28L32 28L32 27L33 27L33 25L36 25L36 23L35 23L35 22L34 22L34 21L36 21L36 20L37 20L37 19L38 19L38 18L36 18L36 17L35 17L35 18L36 18L36 19L35 19L35 20L33 20L33 21L32 21L32 20L31 20L31 21L29 21L29 22L28 22L28 23L29 23L29 24L27 24L27 22L26 22L26 18L27 18L27 17L26 17L26 16L27 16L27 15L26 15L26 16L25 16L25 14L26 14L26 13L24 13L24 16L25 16L25 18L24 18L24 17L23 17L23 14L22 14L22 15L21 15L21 14L20 14L20 15L19 15L19 16L17 16L17 17L16 17L16 16L14 16L14 18L15 18L15 19L14 19L14 20L10 20L10 19L12 19L12 17L11 17L11 18L10 18L10 16L11 16L11 13L10 13L10 12ZM9 13L9 14L10 14L10 13ZM16 13L16 14L17 14L17 13ZM41 14L41 15L42 15L42 14ZM45 15L45 16L46 16L46 15ZM21 16L21 18L20 18L20 17L17 17L17 18L18 18L18 19L20 19L20 20L21 20L21 18L23 18L23 17L22 17L22 16ZM28 16L28 17L29 17L29 16ZM37 16L37 17L38 17L38 16ZM48 16L48 18L49 18L49 16ZM15 17L15 18L16 18L16 17ZM33 17L33 18L34 18L34 17ZM0 18L0 19L1 19L1 18ZM41 18L41 19L42 19L42 18ZM44 18L44 19L43 19L43 20L42 20L42 21L43 21L43 20L44 20L44 21L45 21L45 22L48 22L48 21L46 21L46 18ZM15 19L15 20L16 20L16 21L15 21L15 22L16 22L16 23L15 23L15 25L16 25L16 26L17 26L17 27L16 27L16 29L18 29L18 28L19 28L19 30L18 30L18 31L19 31L19 30L20 30L20 31L22 31L22 32L23 32L23 33L25 33L25 34L24 34L24 36L26 36L26 37L27 37L27 36L28 36L28 38L27 38L27 39L28 39L28 38L29 38L29 37L30 37L30 39L31 39L31 38L32 38L32 37L31 37L31 36L28 36L28 35L29 35L29 33L28 33L28 32L27 32L27 33L26 33L26 32L23 32L23 31L22 31L22 28L21 28L21 27L22 27L22 26L21 26L21 27L20 27L20 28L19 28L19 27L18 27L18 25L22 25L22 23L20 23L20 24L19 24L19 22L21 22L21 21L19 21L19 20L18 20L18 21L17 21L17 20L16 20L16 19ZM22 19L22 20L23 20L23 22L25 22L25 20L24 20L24 19ZM16 21L16 22L17 22L17 25L18 25L18 22L19 22L19 21L18 21L18 22L17 22L17 21ZM30 22L30 24L35 24L35 23L34 23L34 22L32 22L32 23L31 23L31 22ZM5 23L5 26L8 26L8 23ZM23 23L23 26L26 26L26 23ZM41 23L41 26L44 26L44 23ZM1 24L1 26L4 26L4 24ZM6 24L6 25L7 25L7 24ZM24 24L24 25L25 25L25 24ZM37 24L37 26L36 26L36 28L38 28L38 27L39 27L39 26L38 26L38 25L39 25L39 24ZM42 24L42 25L43 25L43 24ZM9 25L9 26L10 26L10 25ZM14 27L14 28L13 28L13 30L12 30L12 32L13 32L13 31L14 31L14 32L15 32L15 33L16 33L16 32L17 32L17 31L15 31L15 30L14 30L14 28L15 28L15 27ZM17 27L17 28L18 28L18 27ZM6 28L6 29L7 29L7 30L6 30L6 31L7 31L7 30L8 30L8 28ZM20 28L20 30L21 30L21 28ZM47 28L47 29L48 29L48 30L49 30L49 29L48 29L48 28ZM43 30L43 31L44 31L44 30ZM33 32L33 33L35 33L35 32ZM45 32L45 33L46 33L46 32ZM27 33L27 34L25 34L25 35L27 35L27 34L28 34L28 33ZM15 34L15 35L14 35L14 36L13 36L13 37L15 37L15 35L16 35L16 34ZM41 35L41 36L42 36L42 35ZM43 35L43 37L38 37L38 38L40 38L40 40L46 40L46 41L45 41L45 42L48 42L48 41L47 41L47 40L46 40L46 39L42 39L42 38L46 38L46 37L48 37L48 36L47 36L47 35ZM6 36L6 37L7 37L7 38L8 38L8 36ZM18 37L18 38L19 38L19 37ZM22 38L22 39L23 39L23 38ZM12 39L12 40L11 40L11 41L12 41L12 40L13 40L13 39ZM18 40L18 41L17 41L17 43L18 43L18 42L19 42L19 40ZM23 41L23 44L26 44L26 41ZM41 41L41 44L44 44L44 41ZM24 42L24 43L25 43L25 42ZM42 42L42 43L43 43L43 42ZM14 43L14 44L15 44L15 43ZM46 44L46 45L45 45L45 46L42 46L42 47L46 47L46 48L47 48L47 47L48 47L48 46L47 46L47 44ZM21 46L21 47L18 47L18 48L22 48L22 46ZM29 46L29 47L30 47L30 46ZM46 46L46 47L47 47L47 46ZM0 0L0 7L7 7L7 0ZM1 1L1 6L6 6L6 1ZM2 2L2 5L5 5L5 2ZM42 0L42 7L49 7L49 0ZM43 1L43 6L48 6L48 1ZM44 2L44 5L47 5L47 2ZM0 42L0 49L7 49L7 42ZM1 43L1 48L6 48L6 43ZM2 44L2 47L5 47L5 44Z" fill="#000000"/></g></g></svg>
