<?xml version="1.0" encoding="UTF-8"?>
<svg xmlns="http://www.w3.org/2000/svg" version="1.1" width="300" height="300" viewBox="0 0 300 300"><rect x="0" y="0" width="300" height="300" fill="#ffffff"/><g transform="scale(5.882)"><g transform="translate(1,1)"><path fill-rule="evenodd" d="M8 0L8 3L10 3L10 1L9 1L9 0ZM11 0L11 3L12 3L12 4L10 4L10 5L12 5L12 4L15 4L15 6L14 6L14 5L13 5L13 6L12 6L12 7L11 7L11 6L10 6L10 7L11 7L11 8L12 8L12 9L10 9L10 8L9 8L9 5L8 5L8 12L6 12L6 11L7 11L7 10L5 10L5 8L2 8L2 9L1 9L1 10L3 10L3 11L0 11L0 14L1 14L1 17L2 17L2 18L4 18L4 19L5 19L5 18L4 18L4 16L5 16L5 17L7 17L7 18L6 18L6 19L7 19L7 20L5 20L5 22L4 22L4 20L3 20L3 21L2 21L2 20L1 20L1 21L0 21L0 25L1 25L1 24L4 24L4 26L2 26L2 27L5 27L5 28L6 28L6 29L4 29L4 34L3 34L3 31L2 31L2 32L0 32L0 33L2 33L2 36L1 36L1 35L0 35L0 36L1 36L1 40L0 40L0 41L3 41L3 40L4 40L4 39L2 39L2 36L3 36L3 37L4 37L4 38L5 38L5 39L7 39L7 38L8 38L8 36L10 36L10 35L11 35L11 37L9 37L9 38L12 38L12 39L11 39L11 40L10 40L10 39L8 39L8 40L10 40L10 41L8 41L8 42L10 42L10 43L9 43L9 44L8 44L8 47L9 47L9 48L10 48L10 49L13 49L13 48L12 48L12 46L13 46L13 47L14 47L14 46L13 46L13 45L12 45L12 43L11 43L11 42L14 42L14 41L16 41L16 43L14 43L14 44L15 44L15 47L17 47L17 48L14 48L14 49L17 49L17 48L19 48L19 47L17 47L17 46L19 46L19 45L17 45L17 46L16 46L16 44L20 44L20 49L24 49L24 48L23 48L23 47L24 47L24 45L26 45L26 46L25 46L25 47L26 47L26 49L27 49L27 46L28 46L28 44L27 44L27 42L30 42L30 41L32 41L32 42L31 42L31 43L30 43L30 44L29 44L29 47L30 47L30 44L31 44L31 45L32 45L32 46L31 46L31 47L32 47L32 48L31 48L31 49L35 49L35 48L36 48L36 49L40 49L40 48L36 48L36 47L40 47L40 46L39 46L39 45L42 45L42 46L41 46L41 47L42 47L42 48L41 48L41 49L42 49L42 48L46 48L46 49L49 49L49 48L48 48L48 47L49 47L49 44L47 44L47 43L48 43L48 42L49 42L49 40L48 40L48 39L49 39L49 36L47 36L47 37L46 37L46 38L44 38L44 39L43 39L43 38L41 38L41 39L43 39L43 40L40 40L40 38L39 38L39 39L37 39L37 38L38 38L38 37L45 37L45 36L43 36L43 35L45 35L45 34L46 34L46 35L49 35L49 32L48 32L48 31L49 31L49 30L48 30L48 28L47 28L47 27L48 27L48 26L49 26L49 25L48 25L48 26L46 26L46 25L47 25L47 23L49 23L49 20L47 20L47 18L46 18L46 17L44 17L44 16L43 16L43 18L42 18L42 17L40 17L40 15L41 15L41 16L42 16L42 15L43 15L43 14L46 14L46 13L47 13L47 15L48 15L48 13L49 13L49 12L48 12L48 13L47 13L47 12L46 12L46 11L48 11L48 10L49 10L49 8L46 8L46 9L47 9L47 10L45 10L45 9L44 9L44 8L41 8L41 9L43 9L43 10L40 10L40 9L39 9L39 8L40 8L40 7L41 7L41 6L40 6L40 7L39 7L39 5L38 5L38 3L37 3L37 5L35 5L35 4L36 4L36 2L39 2L39 4L40 4L40 3L41 3L41 0L40 0L40 1L38 1L38 0L37 0L37 1L35 1L35 0L34 0L34 1L35 1L35 3L34 3L34 2L32 2L32 1L31 1L31 0L29 0L29 1L28 1L28 4L27 4L27 2L26 2L26 1L27 1L27 0L26 0L26 1L25 1L25 2L24 2L24 3L22 3L22 2L21 2L21 4L18 4L18 2L19 2L19 1L22 1L22 0L17 0L17 3L14 3L14 2L16 2L16 1L14 1L14 2L13 2L13 1L12 1L12 0ZM29 1L29 2L30 2L30 1ZM31 2L31 5L32 5L32 6L31 6L31 7L30 7L30 6L29 6L29 5L30 5L30 4L28 4L28 5L27 5L27 8L29 8L29 9L27 9L27 10L26 10L26 9L25 9L25 10L23 10L23 9L22 9L22 6L21 6L21 7L20 7L20 6L19 6L19 5L17 5L17 7L18 7L18 8L21 8L21 9L22 9L22 13L20 13L20 12L19 12L19 14L18 14L18 11L21 11L21 10L15 10L15 8L16 8L16 9L17 9L17 8L16 8L16 6L15 6L15 8L14 8L14 6L13 6L13 9L12 9L12 10L10 10L10 11L9 11L9 12L10 12L10 13L5 13L5 14L4 14L4 12L2 12L2 13L1 13L1 14L2 14L2 17L3 17L3 14L4 14L4 15L5 15L5 16L8 16L8 17L9 17L9 16L10 16L10 18L8 18L8 20L7 20L7 21L6 21L6 22L7 22L7 21L8 21L8 22L9 22L9 24L10 24L10 25L9 25L9 26L10 26L10 25L12 25L12 26L13 26L13 27L15 27L15 28L14 28L14 29L13 29L13 30L12 30L12 27L11 27L11 29L10 29L10 27L9 27L9 28L8 28L8 27L6 27L6 28L8 28L8 30L7 30L7 29L6 29L6 30L5 30L5 31L6 31L6 32L5 32L5 34L4 34L4 35L3 35L3 36L4 36L4 35L5 35L5 37L6 37L6 38L7 38L7 37L6 37L6 36L8 36L8 35L5 35L5 34L8 34L8 30L9 30L9 29L10 29L10 30L12 30L12 32L13 32L13 30L14 30L14 29L15 29L15 28L16 28L16 29L17 29L17 31L14 31L14 33L11 33L11 32L9 32L9 34L10 34L10 33L11 33L11 34L12 34L12 36L13 36L13 37L15 37L15 35L16 35L16 38L17 38L17 39L15 39L15 40L18 40L18 41L17 41L17 43L18 43L18 42L19 42L19 41L20 41L20 43L21 43L21 45L22 45L22 41L20 41L20 38L21 38L21 39L22 39L22 40L23 40L23 39L22 39L22 38L23 38L23 37L24 37L24 38L25 38L25 39L24 39L24 40L25 40L25 39L26 39L26 40L27 40L27 41L30 41L30 40L29 40L29 39L31 39L31 40L32 40L32 41L33 41L33 42L32 42L32 45L33 45L33 44L35 44L35 45L34 45L34 46L32 46L32 47L33 47L33 48L35 48L35 47L36 47L36 46L37 46L37 45L38 45L38 44L40 44L40 41L39 41L39 42L37 42L37 41L38 41L38 40L35 40L35 41L36 41L36 42L34 42L34 41L33 41L33 40L34 40L34 39L35 39L35 38L37 38L37 37L35 37L35 35L36 35L36 34L35 34L35 33L36 33L36 32L35 32L35 31L33 31L33 28L36 28L36 29L34 29L34 30L37 30L37 31L38 31L38 32L37 32L37 33L38 33L38 34L37 34L37 36L39 36L39 34L40 34L40 33L42 33L42 34L41 34L41 35L42 35L42 34L45 34L45 32L46 32L46 34L48 34L48 32L47 32L47 31L46 31L46 30L47 30L47 28L45 28L45 27L46 27L46 26L45 26L45 27L44 27L44 29L42 29L42 27L41 27L41 28L39 28L39 27L40 27L40 26L39 26L39 25L38 25L38 26L39 26L39 27L37 27L37 28L36 28L36 26L37 26L37 24L40 24L40 22L41 22L41 21L40 21L40 22L39 22L39 23L36 23L36 22L37 22L37 21L38 21L38 20L40 20L40 19L39 19L39 18L40 18L40 17L39 17L39 15L40 15L40 14L39 14L39 13L38 13L38 12L39 12L39 11L40 11L40 12L42 12L42 13L41 13L41 15L42 15L42 14L43 14L43 13L44 13L44 12L45 12L45 10L43 10L43 11L44 11L44 12L42 12L42 11L40 11L40 10L39 10L39 9L38 9L38 8L39 8L39 7L38 7L38 6L37 6L37 7L38 7L38 8L36 8L36 6L35 6L35 5L34 5L34 6L33 6L33 5L32 5L32 4L34 4L34 3L32 3L32 2ZM23 5L23 8L26 8L26 5ZM18 6L18 7L19 7L19 6ZM24 6L24 7L25 7L25 6ZM28 6L28 7L29 7L29 6ZM32 6L32 8L31 8L31 9L32 9L32 10L31 10L31 11L30 11L30 9L29 9L29 11L28 11L28 10L27 10L27 11L26 11L26 10L25 10L25 11L23 11L23 14L22 14L22 15L21 15L21 14L20 14L20 15L19 15L19 16L16 16L16 17L21 17L21 16L22 16L22 19L21 19L21 21L20 21L20 20L19 20L19 19L18 19L18 18L15 18L15 16L14 16L14 18L15 18L15 19L14 19L14 20L13 20L13 17L12 17L12 16L11 16L11 13L10 13L10 14L9 14L9 15L10 15L10 16L11 16L11 18L10 18L10 19L9 19L9 20L10 20L10 21L9 21L9 22L10 22L10 21L11 21L11 23L10 23L10 24L12 24L12 21L14 21L14 22L15 22L15 21L16 21L16 22L17 22L17 21L18 21L18 23L16 23L16 24L13 24L13 25L14 25L14 26L15 26L15 27L16 27L16 26L17 26L17 27L18 27L18 26L19 26L19 25L20 25L20 26L22 26L22 27L21 27L21 28L20 28L20 27L19 27L19 28L20 28L20 30L18 30L18 32L19 32L19 31L20 31L20 32L22 32L22 33L21 33L21 36L20 36L20 37L23 37L23 36L24 36L24 35L27 35L27 37L26 37L26 36L25 36L25 38L26 38L26 39L27 39L27 40L28 40L28 39L29 39L29 38L28 38L28 34L29 34L29 37L30 37L30 38L31 38L31 39L32 39L32 40L33 40L33 38L34 38L34 37L33 37L33 36L34 36L34 35L35 35L35 34L33 34L33 36L31 36L31 35L30 35L30 34L32 34L32 33L30 33L30 32L29 32L29 31L31 31L31 32L32 32L32 31L31 31L31 30L32 30L32 29L31 29L31 28L32 28L32 27L33 27L33 25L36 25L36 23L35 23L35 22L34 22L34 21L36 21L36 20L37 20L37 19L38 19L38 18L36 18L36 17L35 17L35 18L36 18L36 19L35 19L35 20L33 20L33 18L34 18L34 17L33 17L33 16L34 16L34 14L35 14L35 11L36 11L36 16L37 16L37 17L38 17L38 16L37 16L37 15L39 15L39 14L37 14L37 12L38 12L38 11L39 11L39 10L38 10L38 11L36 11L36 10L35 10L35 9L36 9L36 8L34 8L34 7L35 7L35 6L34 6L34 7L33 7L33 6ZM6 8L6 9L7 9L7 8ZM13 9L13 10L14 10L14 11L12 11L12 13L13 13L13 14L12 14L12 15L13 15L13 14L14 14L14 13L15 13L15 12L17 12L17 11L15 11L15 10L14 10L14 9ZM33 9L33 10L32 10L32 13L31 13L31 12L30 12L30 11L29 11L29 12L28 12L28 13L26 13L26 12L25 12L25 13L26 13L26 14L23 14L23 17L24 17L24 18L25 18L25 19L26 19L26 21L25 21L25 20L24 20L24 19L23 19L23 20L22 20L22 21L21 21L21 22L20 22L20 23L19 23L19 24L16 24L16 25L17 25L17 26L18 26L18 25L19 25L19 24L22 24L22 21L23 21L23 22L26 22L26 21L27 21L27 24L29 24L29 23L28 23L28 22L31 22L31 21L27 21L27 18L29 18L29 17L31 17L31 16L30 16L30 15L28 15L28 14L29 14L29 13L30 13L30 14L31 14L31 15L33 15L33 14L34 14L34 13L33 13L33 12L34 12L34 11L35 11L35 10L34 10L34 9ZM16 13L16 14L17 14L17 13ZM5 14L5 15L8 15L8 14ZM24 15L24 16L26 16L26 15ZM45 15L45 16L46 16L46 15ZM28 16L28 17L29 17L29 16ZM48 16L48 18L49 18L49 16ZM32 17L32 18L33 18L33 17ZM0 18L0 19L1 19L1 18ZM41 18L41 19L42 19L42 18ZM44 18L44 19L43 19L43 20L42 20L42 21L43 21L43 20L44 20L44 21L45 21L45 22L48 22L48 21L46 21L46 18ZM10 19L10 20L12 20L12 19ZM16 19L16 21L17 21L17 19ZM30 19L30 20L32 20L32 21L33 21L33 20L32 20L32 19ZM18 20L18 21L19 21L19 20ZM2 22L2 23L4 23L4 22ZM32 22L32 23L30 23L30 24L35 24L35 23L34 23L34 22ZM5 23L5 26L8 26L8 23ZM23 23L23 26L26 26L26 23ZM41 23L41 26L44 26L44 23ZM45 23L45 25L46 25L46 23ZM6 24L6 25L7 25L7 24ZM24 24L24 25L25 25L25 24ZM42 24L42 25L43 25L43 24ZM27 25L27 27L28 27L28 29L25 29L25 28L24 28L24 27L23 27L23 31L22 31L22 32L23 32L23 31L24 31L24 30L25 30L25 31L26 31L26 30L27 30L27 31L28 31L28 30L30 30L30 29L29 29L29 27L30 27L30 28L31 28L31 26L32 26L32 25ZM28 26L28 27L29 27L29 26ZM0 27L0 29L1 29L1 27ZM21 28L21 29L22 29L22 28ZM37 28L37 29L39 29L39 28ZM41 29L41 30L42 30L42 29ZM45 29L45 30L46 30L46 29ZM0 30L0 31L1 31L1 30ZM6 30L6 31L7 31L7 30ZM20 30L20 31L21 31L21 30ZM38 30L38 31L40 31L40 30ZM43 30L43 31L44 31L44 30ZM6 32L6 33L7 33L7 32ZM16 32L16 33L14 33L14 34L13 34L13 36L14 36L14 35L15 35L15 34L16 34L16 35L17 35L17 36L18 36L18 34L20 34L20 33L18 33L18 34L17 34L17 32ZM24 32L24 33L23 33L23 34L24 34L24 33L25 33L25 34L27 34L27 33L28 33L28 32L27 32L27 33L26 33L26 32ZM33 32L33 33L35 33L35 32ZM38 32L38 33L40 33L40 32ZM42 32L42 33L44 33L44 32ZM18 37L18 38L19 38L19 37ZM31 37L31 38L32 38L32 37ZM27 38L27 39L28 39L28 38ZM12 39L12 40L13 40L13 39ZM18 39L18 40L19 40L19 39ZM44 39L44 40L46 40L46 41L45 41L45 42L48 42L48 41L47 41L47 40L46 40L46 39ZM6 40L6 41L7 41L7 40ZM10 41L10 42L11 42L11 41ZM23 41L23 44L26 44L26 41ZM41 41L41 44L44 44L44 41ZM24 42L24 43L25 43L25 42ZM33 42L33 43L34 43L34 42ZM36 42L36 43L35 43L35 44L37 44L37 42ZM42 42L42 43L43 43L43 42ZM10 43L10 44L9 44L9 45L10 45L10 46L9 46L9 47L10 47L10 46L11 46L11 43ZM46 44L46 45L45 45L45 46L44 46L44 45L43 45L43 46L42 46L42 47L43 47L43 46L44 46L44 47L46 47L46 48L47 48L47 47L48 47L48 46L47 46L47 44ZM35 45L35 46L36 46L36 45ZM21 46L21 48L22 48L22 46ZM46 46L46 47L47 47L47 46ZM0 0L0 7L7 7L7 0ZM1 1L1 6L6 6L6 1ZM2 2L2 5L5 5L5 2ZM42 0L42 7L49 7L49 0ZM43 1L43 6L48 6L48 1ZM44 2L44 5L47 5L47 2ZM0 42L0 49L7 49L7 42ZM1 43L1 48L6 48L6 43ZM2 44L2 47L5 47L5 44Z" fill="#000000"/></g></g></svg>
