<?xml version="1.0" encoding="UTF-8"?>
<svg xmlns="http://www.w3.org/2000/svg" version="1.1" width="300" height="300" viewBox="0 0 300 300"><rect x="0" y="0" width="300" height="300" fill="#ffffff"/><g transform="scale(5.882)"><g transform="translate(1,1)"><path fill-rule="evenodd" d="M8 0L8 3L9 3L9 5L8 5L8 9L7 9L7 8L6 8L6 9L5 9L5 8L2 8L2 9L5 9L5 10L6 10L6 11L8 11L8 9L9 9L9 11L10 11L10 10L12 10L12 9L14 9L14 8L15 8L15 10L14 10L14 11L12 11L12 13L13 13L13 14L12 14L12 15L13 15L13 14L14 14L14 13L15 13L15 12L17 12L17 11L15 11L15 10L17 10L17 9L16 9L16 8L18 8L18 10L21 10L21 11L18 11L18 14L19 14L19 12L20 12L20 13L22 13L22 9L23 9L23 10L25 10L25 12L24 12L24 16L25 16L25 17L26 17L26 16L25 16L25 14L26 14L26 13L27 13L27 11L26 11L26 10L28 10L28 8L29 8L29 6L30 6L30 7L31 7L31 8L32 8L32 7L33 7L33 9L34 9L34 10L35 10L35 11L34 11L34 12L32 12L32 11L30 11L30 9L29 9L29 11L30 11L30 12L32 12L32 13L30 13L30 14L29 14L29 15L30 15L30 14L32 14L32 15L31 15L31 16L30 16L30 17L31 17L31 19L32 19L32 20L30 20L30 22L28 22L28 23L29 23L29 24L27 24L27 21L29 21L29 18L27 18L27 19L25 19L25 18L24 18L24 17L23 17L23 14L22 14L22 15L21 15L21 14L20 14L20 15L19 15L19 16L14 16L14 18L17 18L17 19L14 19L14 20L12 20L12 19L13 19L13 17L12 17L12 18L10 18L10 16L11 16L11 13L10 13L10 12L9 12L9 13L10 13L10 14L8 14L8 12L5 12L5 11L4 11L4 10L2 10L2 11L0 11L0 14L1 14L1 17L2 17L2 16L3 16L3 18L2 18L2 20L1 20L1 21L0 21L0 23L1 23L1 22L4 22L4 23L2 23L2 24L4 24L4 26L1 26L1 27L5 27L5 28L6 28L6 29L4 29L4 32L5 32L5 33L7 33L7 34L6 34L6 35L5 35L5 37L8 37L8 39L9 39L9 40L8 40L8 42L10 42L10 43L9 43L9 44L8 44L8 47L10 47L10 45L9 45L9 44L10 44L10 43L12 43L12 44L11 44L11 48L9 48L9 49L15 49L15 48L16 48L16 49L17 49L17 48L16 48L16 47L18 47L18 48L19 48L19 47L20 47L20 44L21 44L21 43L20 43L20 42L18 42L18 43L17 43L17 41L18 41L18 40L19 40L19 41L20 41L20 40L21 40L21 41L22 41L22 45L21 45L21 47L22 47L22 49L25 49L25 47L26 47L26 49L27 49L27 46L28 46L28 44L27 44L27 42L30 42L30 44L29 44L29 45L30 45L30 46L34 46L34 45L37 45L37 46L35 46L35 48L33 48L33 47L32 47L32 48L31 48L31 49L35 49L35 48L36 48L36 49L40 49L40 48L36 48L36 47L40 47L40 46L39 46L39 45L42 45L42 46L41 46L41 49L42 49L42 48L46 48L46 49L49 49L49 48L48 48L48 47L49 47L49 44L47 44L47 43L48 43L48 42L49 42L49 40L48 40L48 39L49 39L49 36L46 36L46 35L47 35L47 34L44 34L44 32L41 32L41 33L40 33L40 32L38 32L38 31L37 31L37 30L34 30L34 31L35 31L35 32L33 32L33 34L34 34L34 33L35 33L35 34L36 34L36 36L37 36L37 37L38 37L38 38L39 38L39 39L37 39L37 38L36 38L36 37L35 37L35 38L36 38L36 39L37 39L37 40L36 40L36 41L37 41L37 42L35 42L35 39L34 39L34 40L33 40L33 38L34 38L34 37L33 37L33 36L34 36L34 35L33 35L33 36L31 36L31 35L30 35L30 34L32 34L32 33L30 33L30 32L29 32L29 35L30 35L30 37L32 37L32 38L31 38L31 39L32 39L32 40L31 40L31 41L30 41L30 38L28 38L28 37L29 37L29 36L27 36L27 37L26 37L26 36L24 36L24 37L23 37L23 35L24 35L24 34L25 34L25 35L27 35L27 34L25 34L25 33L24 33L24 32L26 32L26 33L27 33L27 32L28 32L28 31L31 31L31 32L32 32L32 31L31 31L31 30L32 30L32 29L31 29L31 28L32 28L32 27L33 27L33 28L34 28L34 29L36 29L36 28L37 28L37 29L38 29L38 30L39 30L39 31L41 31L41 30L42 30L42 29L44 29L44 27L45 27L45 26L46 26L46 27L48 27L48 26L49 26L49 25L48 25L48 26L46 26L46 25L47 25L47 23L49 23L49 20L47 20L47 18L46 18L46 17L44 17L44 16L43 16L43 18L42 18L42 17L40 17L40 15L41 15L41 16L42 16L42 15L44 15L44 14L46 14L46 13L47 13L47 15L48 15L48 13L49 13L49 12L48 12L48 13L47 13L47 12L46 12L46 11L48 11L48 10L49 10L49 8L46 8L46 9L47 9L47 10L45 10L45 9L44 9L44 8L41 8L41 9L42 9L42 10L40 10L40 9L39 9L39 8L40 8L40 7L41 7L41 6L40 6L40 7L39 7L39 5L38 5L38 7L39 7L39 8L37 8L37 5L33 5L33 4L36 4L36 2L37 2L37 3L38 3L38 2L39 2L39 4L40 4L40 3L41 3L41 0L40 0L40 1L38 1L38 0L37 0L37 1L35 1L35 0L34 0L34 1L35 1L35 3L31 3L31 2L32 2L32 1L31 1L31 0L29 0L29 1L28 1L28 2L26 2L26 1L27 1L27 0L26 0L26 1L25 1L25 0L23 0L23 2L25 2L25 4L24 4L24 3L22 3L22 0L21 0L21 4L19 4L19 3L20 3L20 2L18 2L18 1L19 1L19 0L16 0L16 2L15 2L15 3L13 3L13 2L14 2L14 1L15 1L15 0ZM9 1L9 2L11 2L11 1ZM29 1L29 2L30 2L30 1ZM16 2L16 3L17 3L17 4L18 4L18 6L17 6L17 7L18 7L18 8L21 8L21 9L22 9L22 6L21 6L21 7L20 7L20 6L19 6L19 4L18 4L18 2ZM11 3L11 4L10 4L10 5L9 5L9 7L10 7L10 8L9 8L9 9L12 9L12 8L11 8L11 7L12 7L12 6L13 6L13 7L14 7L14 6L13 6L13 4L12 4L12 3ZM28 3L28 4L29 4L29 5L27 5L27 7L28 7L28 6L29 6L29 5L30 5L30 4L29 4L29 3ZM11 4L11 5L10 5L10 7L11 7L11 5L12 5L12 4ZM31 4L31 7L32 7L32 4ZM23 5L23 8L26 8L26 5ZM15 6L15 8L16 8L16 6ZM18 6L18 7L19 7L19 6ZM24 6L24 7L25 7L25 6ZM33 6L33 7L34 7L34 8L36 8L36 9L35 9L35 10L36 10L36 11L35 11L35 14L34 14L34 13L33 13L33 14L34 14L34 16L33 16L33 17L32 17L32 18L33 18L33 20L32 20L32 21L33 21L33 20L35 20L35 18L38 18L38 19L37 19L37 20L36 20L36 21L34 21L34 22L32 22L32 23L30 23L30 24L35 24L35 23L36 23L36 25L33 25L33 27L34 27L34 28L36 28L36 26L37 26L37 24L40 24L40 22L41 22L41 20L40 20L40 19L39 19L39 18L40 18L40 17L39 17L39 15L40 15L40 14L39 14L39 13L37 13L37 14L38 14L38 15L36 15L36 11L37 11L37 12L39 12L39 11L40 11L40 12L41 12L41 13L43 13L43 14L44 14L44 13L45 13L45 10L43 10L43 11L44 11L44 13L43 13L43 12L41 12L41 11L40 11L40 10L38 10L38 9L37 9L37 8L36 8L36 6L35 6L35 7L34 7L34 6ZM0 9L0 10L1 10L1 9ZM6 9L6 10L7 10L7 9ZM25 9L25 10L26 10L26 9ZM31 9L31 10L32 10L32 9ZM2 11L2 13L1 13L1 14L2 14L2 15L4 15L4 14L5 14L5 16L4 16L4 18L5 18L5 19L4 19L4 22L5 22L5 20L7 20L7 21L6 21L6 22L7 22L7 21L8 21L8 22L9 22L9 21L10 21L10 22L11 22L11 23L9 23L9 24L11 24L11 25L12 25L12 23L13 23L13 25L14 25L14 26L13 26L13 30L12 30L12 28L11 28L11 27L12 27L12 26L10 26L10 25L9 25L9 26L10 26L10 27L9 27L9 28L8 28L8 27L6 27L6 28L8 28L8 30L7 30L7 29L6 29L6 30L5 30L5 31L6 31L6 32L7 32L7 33L8 33L8 30L9 30L9 29L11 29L11 30L12 30L12 32L14 32L14 33L11 33L11 32L10 32L10 31L9 31L9 34L7 34L7 35L6 35L6 36L7 36L7 35L8 35L8 36L9 36L9 37L11 37L11 35L10 35L10 36L9 36L9 34L10 34L10 33L11 33L11 34L12 34L12 36L13 36L13 37L15 37L15 35L16 35L16 38L17 38L17 39L15 39L15 40L16 40L16 41L14 41L14 42L13 42L13 45L12 45L12 46L14 46L14 47L12 47L12 48L14 48L14 47L16 47L16 46L15 46L15 44L14 44L14 43L16 43L16 41L17 41L17 40L18 40L18 39L19 39L19 40L20 40L20 38L21 38L21 39L22 39L22 40L23 40L23 39L22 39L22 38L23 38L23 37L20 37L20 36L21 36L21 33L22 33L22 32L20 32L20 31L22 31L22 29L21 29L21 30L20 30L20 28L22 28L22 27L20 27L20 28L18 28L18 29L17 29L17 27L16 27L16 26L17 26L17 25L18 25L18 26L21 26L21 25L22 25L22 23L21 23L21 22L22 22L22 21L23 21L23 22L25 22L25 20L24 20L24 19L23 19L23 20L22 20L22 21L21 21L21 22L20 22L20 21L19 21L19 20L18 20L18 21L17 21L17 22L18 22L18 21L19 21L19 22L20 22L20 23L21 23L21 24L16 24L16 23L13 23L13 22L14 22L14 21L10 21L10 20L11 20L11 19L10 19L10 18L8 18L8 20L7 20L7 19L6 19L6 18L7 18L7 17L5 17L5 16L8 16L8 17L9 17L9 16L10 16L10 15L8 15L8 14L7 14L7 13L4 13L4 14L3 14L3 11ZM25 12L25 13L26 13L26 12ZM16 13L16 14L17 14L17 13ZM6 14L6 15L7 15L7 14ZM45 15L45 16L46 16L46 15ZM19 16L19 17L17 17L17 18L18 18L18 19L20 19L20 20L21 20L21 19L20 19L20 17L22 17L22 18L23 18L23 17L22 17L22 16ZM28 16L28 17L29 17L29 16ZM36 16L36 17L38 17L38 16ZM48 16L48 18L49 18L49 16ZM33 17L33 18L34 18L34 17ZM0 18L0 19L1 19L1 18ZM41 18L41 19L42 19L42 18ZM44 18L44 19L43 19L43 20L42 20L42 21L43 21L43 20L44 20L44 21L45 21L45 22L48 22L48 21L46 21L46 18ZM9 19L9 20L10 20L10 19ZM2 20L2 21L3 21L3 20ZM26 20L26 21L27 21L27 20ZM38 20L38 21L37 21L37 22L36 22L36 23L39 23L39 21L40 21L40 20ZM34 22L34 23L35 23L35 22ZM5 23L5 26L8 26L8 23ZM23 23L23 26L26 26L26 23ZM41 23L41 26L44 26L44 23ZM45 23L45 25L46 25L46 23ZM0 24L0 25L1 25L1 24ZM6 24L6 25L7 25L7 24ZM15 24L15 25L16 25L16 24ZM24 24L24 25L25 25L25 24ZM42 24L42 25L43 25L43 24ZM27 25L27 27L28 27L28 26L29 26L29 27L30 27L30 28L31 28L31 26L32 26L32 25ZM38 25L38 26L39 26L39 27L37 27L37 28L39 28L39 30L41 30L41 29L42 29L42 27L41 27L41 28L39 28L39 27L40 27L40 26L39 26L39 25ZM23 27L23 31L24 31L24 30L25 30L25 31L27 31L27 30L28 30L28 28L27 28L27 30L26 30L26 29L25 29L25 28L26 28L26 27L25 27L25 28L24 28L24 27ZM1 28L1 30L2 30L2 28ZM14 28L14 30L15 30L15 31L14 31L14 32L15 32L15 31L17 31L17 32L16 32L16 33L15 33L15 34L13 34L13 36L14 36L14 35L15 35L15 34L16 34L16 35L17 35L17 36L18 36L18 34L20 34L20 33L19 33L19 31L20 31L20 30L19 30L19 29L18 29L18 30L19 30L19 31L17 31L17 29L16 29L16 28ZM47 28L47 30L46 30L46 29L45 29L45 30L46 30L46 31L47 31L47 32L48 32L48 33L49 33L49 32L48 32L48 31L49 31L49 29L48 29L48 28ZM29 29L29 30L30 30L30 29ZM6 30L6 31L7 31L7 30ZM43 30L43 31L44 31L44 30ZM2 31L2 32L1 32L1 33L2 33L2 34L3 34L3 35L4 35L4 34L3 34L3 33L2 33L2 32L3 32L3 31ZM35 32L35 33L36 33L36 32ZM37 32L37 33L38 33L38 34L37 34L37 36L39 36L39 35L38 35L38 34L40 34L40 33L38 33L38 32ZM45 32L45 33L46 33L46 32ZM23 33L23 34L24 34L24 33ZM41 33L41 34L43 34L43 33ZM48 34L48 35L49 35L49 34ZM0 35L0 36L1 36L1 40L0 40L0 41L3 41L3 40L4 40L4 39L2 39L2 38L4 38L4 36L1 36L1 35ZM41 35L41 37L39 37L39 38L40 38L40 40L42 40L42 38L46 38L46 36L45 36L45 35ZM42 36L42 37L41 37L41 38L42 38L42 37L43 37L43 36ZM44 36L44 37L45 37L45 36ZM18 37L18 38L19 38L19 37ZM5 38L5 39L7 39L7 38ZM9 38L9 39L10 39L10 40L9 40L9 41L10 41L10 42L11 42L11 41L10 41L10 40L11 40L11 39L12 39L12 41L13 41L13 39L12 39L12 38ZM24 38L24 40L25 40L25 39L26 39L26 40L27 40L27 41L29 41L29 39L28 39L28 40L27 40L27 39L26 39L26 38ZM43 39L43 40L46 40L46 41L45 41L45 42L48 42L48 41L47 41L47 40L46 40L46 39ZM6 40L6 41L7 41L7 40ZM32 40L32 41L31 41L31 42L32 42L32 43L31 43L31 45L32 45L32 44L36 44L36 43L35 43L35 42L34 42L34 41L33 41L33 40ZM37 40L37 41L38 41L38 40ZM23 41L23 44L26 44L26 41ZM32 41L32 42L33 42L33 43L34 43L34 42L33 42L33 41ZM39 41L39 42L37 42L37 45L38 45L38 44L40 44L40 41ZM41 41L41 44L44 44L44 41ZM24 42L24 43L25 43L25 42ZM42 42L42 43L43 43L43 42ZM16 44L16 45L19 45L19 44ZM46 44L46 45L43 45L43 46L42 46L42 47L44 47L44 46L45 46L45 47L46 47L46 48L47 48L47 47L48 47L48 46L47 46L47 44ZM23 45L23 46L22 46L22 47L23 47L23 46L24 46L24 47L25 47L25 46L26 46L26 45ZM46 46L46 47L47 47L47 46ZM0 0L0 7L7 7L7 0ZM1 1L1 6L6 6L6 1ZM2 2L2 5L5 5L5 2ZM42 0L42 7L49 7L49 0ZM43 1L43 6L48 6L48 1ZM44 2L44 5L47 5L47 2ZM0 42L0 49L7 49L7 42ZM1 43L1 48L6 48L6 43ZM2 44L2 47L5 47L5 44Z" fill="#000000"/></g></g></svg>
