<?xml version="1.0" encoding="UTF-8"?>
<svg xmlns="http://www.w3.org/2000/svg" version="1.1" width="300" height="300" viewBox="0 0 300 300"><rect x="0" y="0" width="300" height="300" fill="#ffffff"/><g transform="scale(5.882)"><g transform="translate(1,1)"><path fill-rule="evenodd" d="M8 0L8 3L9 3L9 2L10 2L10 4L9 4L9 5L8 5L8 9L7 9L7 8L6 8L6 9L7 9L7 10L5 10L5 11L4 11L4 10L3 10L3 9L5 9L5 8L2 8L2 11L0 11L0 14L1 14L1 17L2 17L2 19L3 19L3 21L2 21L2 20L1 20L1 21L0 21L0 24L1 24L1 23L2 23L2 24L4 24L4 26L2 26L2 27L1 27L1 28L2 28L2 27L5 27L5 28L6 28L6 29L4 29L4 33L2 33L2 32L3 32L3 31L2 31L2 29L1 29L1 30L0 30L0 31L1 31L1 32L0 32L0 34L1 34L1 33L2 33L2 34L3 34L3 35L2 35L2 36L1 36L1 35L0 35L0 36L1 36L1 40L0 40L0 41L3 41L3 40L4 40L4 39L2 39L2 38L3 38L3 37L5 37L5 36L6 36L6 37L7 37L7 36L8 36L8 37L9 37L9 38L12 38L12 39L11 39L11 40L10 40L10 39L9 39L9 40L8 40L8 39L7 39L7 38L5 38L5 39L7 39L7 40L6 40L6 41L7 41L7 40L8 40L8 42L10 42L10 43L9 43L9 44L8 44L8 47L9 47L9 46L10 46L10 45L9 45L9 44L10 44L10 43L11 43L11 45L12 45L12 46L11 46L11 47L10 47L10 48L9 48L9 49L10 49L10 48L11 48L11 49L15 49L15 48L16 48L16 49L17 49L17 48L19 48L19 47L17 47L17 46L20 46L20 45L21 45L21 46L23 46L23 47L24 47L24 48L21 48L21 47L20 47L20 49L25 49L25 47L26 47L26 49L27 49L27 46L28 46L28 44L27 44L27 42L29 42L29 43L31 43L31 44L30 44L30 45L29 45L29 46L30 46L30 45L31 45L31 46L34 46L34 45L35 45L35 46L36 46L36 47L35 47L35 48L33 48L33 47L32 47L32 48L31 48L31 49L35 49L35 48L36 48L36 49L40 49L40 48L36 48L36 47L40 47L40 46L39 46L39 45L41 45L41 46L44 46L44 45L46 45L46 44L47 44L47 46L46 46L46 47L44 47L44 48L43 48L43 47L41 47L41 49L44 49L44 48L46 48L46 49L49 49L49 48L48 48L48 47L49 47L49 44L47 44L47 43L48 43L48 42L49 42L49 40L48 40L48 39L49 39L49 36L47 36L47 37L46 37L46 38L44 38L44 37L45 37L45 36L44 36L44 37L43 37L43 36L42 36L42 35L49 35L49 32L48 32L48 31L49 31L49 29L48 29L48 28L47 28L47 30L46 30L46 28L45 28L45 30L46 30L46 31L47 31L47 32L48 32L48 34L44 34L44 32L42 32L42 33L40 33L40 32L41 32L41 30L42 30L42 29L44 29L44 27L48 27L48 26L49 26L49 25L48 25L48 26L45 26L45 23L46 23L46 25L47 25L47 23L49 23L49 20L47 20L47 18L46 18L46 17L44 17L44 16L43 16L43 18L42 18L42 17L40 17L40 15L41 15L41 16L42 16L42 14L46 14L46 13L47 13L47 15L48 15L48 13L49 13L49 12L48 12L48 13L47 13L47 12L46 12L46 13L44 13L44 11L42 11L42 12L40 12L40 11L41 11L41 10L46 10L46 11L48 11L48 10L49 10L49 8L46 8L46 9L44 9L44 8L41 8L41 10L40 10L40 9L39 9L39 8L37 8L37 6L38 6L38 7L39 7L39 5L35 5L35 6L34 6L34 7L33 7L33 6L32 6L32 5L34 5L34 4L36 4L36 2L37 2L37 1L38 1L38 2L39 2L39 4L40 4L40 3L41 3L41 0L40 0L40 1L38 1L38 0L37 0L37 1L35 1L35 0L34 0L34 1L35 1L35 3L34 3L34 2L33 2L33 3L32 3L32 4L31 4L31 2L32 2L32 1L31 1L31 0L29 0L29 1L28 1L28 2L26 2L26 1L27 1L27 0L26 0L26 1L25 1L25 0L23 0L23 2L25 2L25 3L24 3L24 4L23 4L23 3L22 3L22 0L20 0L20 2L21 2L21 4L19 4L19 2L18 2L18 3L17 3L17 0L16 0L16 2L15 2L15 3L14 3L14 0L10 0L10 1L9 1L9 0ZM18 0L18 1L19 1L19 0ZM10 1L10 2L11 2L11 4L12 4L12 5L11 5L11 7L12 7L12 6L13 6L13 7L14 7L14 8L13 8L13 9L12 9L12 8L11 8L11 9L12 9L12 10L10 10L10 9L9 9L9 10L10 10L10 11L8 11L8 10L7 10L7 11L6 11L6 12L7 12L7 11L8 11L8 12L10 12L10 13L5 13L5 12L4 12L4 11L3 11L3 13L5 13L5 14L7 14L7 15L5 15L5 16L4 16L4 14L2 14L2 13L1 13L1 14L2 14L2 16L3 16L3 19L4 19L4 22L2 22L2 23L4 23L4 22L5 22L5 20L7 20L7 21L6 21L6 22L7 22L7 21L8 21L8 22L9 22L9 24L10 24L10 22L12 22L12 24L11 24L11 25L13 25L13 27L12 27L12 26L10 26L10 25L9 25L9 26L10 26L10 28L11 28L11 30L12 30L12 32L13 32L13 31L15 31L15 33L11 33L11 31L10 31L10 29L9 29L9 28L8 28L8 27L6 27L6 28L8 28L8 30L7 30L7 29L6 29L6 30L5 30L5 31L6 31L6 32L7 32L7 33L6 33L6 34L5 34L5 33L4 33L4 34L5 34L5 35L6 35L6 36L7 36L7 35L8 35L8 36L9 36L9 37L11 37L11 35L10 35L10 36L9 36L9 34L12 34L12 36L13 36L13 37L15 37L15 35L16 35L16 38L17 38L17 39L15 39L15 40L18 40L18 41L17 41L17 43L16 43L16 42L15 42L15 41L14 41L14 42L13 42L13 43L12 43L12 42L11 42L11 41L13 41L13 39L12 39L12 40L11 40L11 41L10 41L10 40L9 40L9 41L10 41L10 42L11 42L11 43L12 43L12 44L13 44L13 46L15 46L15 47L12 47L12 48L15 48L15 47L16 47L16 46L17 46L17 45L19 45L19 44L21 44L21 45L22 45L22 41L21 41L21 43L20 43L20 41L19 41L19 40L20 40L20 38L21 38L21 39L22 39L22 40L23 40L23 39L22 39L22 38L24 38L24 40L25 40L25 39L26 39L26 40L27 40L27 41L29 41L29 42L31 42L31 43L33 43L33 44L31 44L31 45L33 45L33 44L35 44L35 42L37 42L37 45L36 45L36 46L37 46L37 45L38 45L38 44L40 44L40 41L39 41L39 42L37 42L37 41L38 41L38 40L37 40L37 41L35 41L35 42L34 42L34 41L33 41L33 40L34 40L34 39L35 39L35 38L38 38L38 39L39 39L39 38L40 38L40 40L42 40L42 38L43 38L43 39L44 39L44 40L46 40L46 41L45 41L45 42L48 42L48 41L47 41L47 40L46 40L46 39L44 39L44 38L43 38L43 37L42 37L42 36L41 36L41 37L36 37L36 36L39 36L39 34L40 34L40 33L38 33L38 34L37 34L37 35L36 35L36 34L35 34L35 33L36 33L36 32L35 32L35 30L37 30L37 28L39 28L39 29L38 29L38 31L37 31L37 32L39 32L39 30L41 30L41 29L42 29L42 27L41 27L41 28L39 28L39 27L40 27L40 26L39 26L39 25L40 25L40 23L36 23L36 22L37 22L37 21L38 21L38 20L39 20L39 21L40 21L40 22L41 22L41 21L40 21L40 19L39 19L39 18L40 18L40 17L39 17L39 15L40 15L40 14L39 14L39 13L38 13L38 14L37 14L37 15L36 15L36 11L37 11L37 12L39 12L39 11L40 11L40 10L38 10L38 9L37 9L37 8L36 8L36 6L35 6L35 7L34 7L34 8L36 8L36 9L35 9L35 10L34 10L34 9L33 9L33 8L32 8L32 6L31 6L31 7L30 7L30 6L29 6L29 5L30 5L30 4L29 4L29 2L30 2L30 1L29 1L29 2L28 2L28 3L27 3L27 5L28 5L28 6L27 6L27 10L26 10L26 9L24 9L24 10L23 10L23 9L22 9L22 6L21 6L21 7L20 7L20 6L19 6L19 4L18 4L18 5L17 5L17 8L16 8L16 6L15 6L15 5L13 5L13 4L12 4L12 1ZM33 3L33 4L34 4L34 3ZM37 3L37 4L38 4L38 3ZM9 5L9 8L10 8L10 5ZM23 5L23 8L26 8L26 5ZM14 6L14 7L15 7L15 6ZM18 6L18 7L19 7L19 6ZM24 6L24 7L25 7L25 6ZM28 6L28 8L29 8L29 6ZM40 6L40 7L41 7L41 6ZM14 8L14 11L12 11L12 13L13 13L13 14L12 14L12 15L13 15L13 14L14 14L14 13L15 13L15 12L17 12L17 11L15 11L15 10L17 10L17 9L16 9L16 8ZM18 8L18 9L19 9L19 10L21 10L21 11L18 11L18 14L19 14L19 12L20 12L20 13L22 13L22 9L21 9L21 8ZM29 9L29 11L30 11L30 12L29 12L29 14L28 14L28 13L27 13L27 11L26 11L26 10L25 10L25 12L23 12L23 13L25 13L25 14L26 14L26 13L27 13L27 15L24 15L24 14L22 14L22 15L21 15L21 14L20 14L20 15L19 15L19 16L17 16L17 17L20 17L20 18L19 18L19 19L18 19L18 18L17 18L17 20L16 20L16 19L14 19L14 20L13 20L13 21L14 21L14 22L13 22L13 23L16 23L16 24L17 24L17 26L18 26L18 24L22 24L22 25L19 25L19 28L18 28L18 30L19 30L19 31L17 31L17 29L16 29L16 26L15 26L15 29L14 29L14 30L15 30L15 31L17 31L17 32L16 32L16 33L15 33L15 34L13 34L13 36L14 36L14 35L15 35L15 34L16 34L16 35L17 35L17 36L18 36L18 34L20 34L20 33L19 33L19 31L20 31L20 32L22 32L22 33L21 33L21 36L20 36L20 37L23 37L23 36L25 36L25 38L26 38L26 39L27 39L27 40L28 40L28 38L27 38L27 37L29 37L29 39L30 39L30 40L29 40L29 41L31 41L31 42L33 42L33 43L34 43L34 42L33 42L33 41L32 41L32 40L33 40L33 38L34 38L34 37L33 37L33 36L34 36L34 35L35 35L35 34L34 34L34 33L35 33L35 32L34 32L34 31L33 31L33 32L34 32L34 33L33 33L33 34L34 34L34 35L33 35L33 36L31 36L31 35L30 35L30 34L32 34L32 33L30 33L30 32L29 32L29 31L31 31L31 32L32 32L32 31L31 31L31 30L32 30L32 29L31 29L31 28L32 28L32 27L33 27L33 28L34 28L34 29L33 29L33 30L35 30L35 29L36 29L36 28L37 28L37 27L39 27L39 26L38 26L38 25L39 25L39 24L37 24L37 26L36 26L36 28L34 28L34 27L33 27L33 25L36 25L36 23L35 23L35 22L34 22L34 21L36 21L36 20L37 20L37 19L38 19L38 18L35 18L35 20L33 20L33 18L34 18L34 17L33 17L33 16L34 16L34 14L35 14L35 11L36 11L36 10L35 10L35 11L34 11L34 12L33 12L33 10L32 10L32 14L31 14L31 15L29 15L29 14L30 14L30 12L31 12L31 11L30 11L30 9ZM46 9L46 10L47 10L47 9ZM37 10L37 11L38 11L38 10ZM25 12L25 13L26 13L26 12ZM42 12L42 13L43 13L43 12ZM10 13L10 14L8 14L8 15L10 15L10 16L9 16L9 17L8 17L8 16L5 16L5 17L7 17L7 18L6 18L6 19L7 19L7 20L8 20L8 18L10 18L10 19L9 19L9 20L10 20L10 21L9 21L9 22L10 22L10 21L12 21L12 20L10 20L10 19L11 19L11 18L12 18L12 17L13 17L13 16L11 16L11 13ZM16 13L16 14L17 14L17 13ZM33 13L33 14L32 14L32 15L33 15L33 14L34 14L34 13ZM38 14L38 15L39 15L39 14ZM23 15L23 17L22 17L22 16L20 16L20 17L22 17L22 18L21 18L21 19L22 19L22 20L20 20L20 21L22 21L22 22L27 22L27 24L29 24L29 23L28 23L28 22L29 22L29 21L27 21L27 19L26 19L26 18L25 18L25 16L24 16L24 15ZM27 15L27 18L31 18L31 17L30 17L30 16L29 16L29 15ZM45 15L45 16L46 16L46 15ZM10 16L10 18L11 18L11 16ZM14 16L14 18L16 18L16 16ZM28 16L28 17L29 17L29 16ZM35 16L35 17L38 17L38 16ZM48 16L48 18L49 18L49 16ZM23 17L23 19L24 19L24 20L25 20L25 21L26 21L26 20L25 20L25 18L24 18L24 17ZM32 17L32 18L33 18L33 17ZM0 18L0 19L1 19L1 18ZM4 18L4 19L5 19L5 18ZM41 18L41 19L42 19L42 18ZM44 18L44 19L43 19L43 20L42 20L42 21L43 21L43 20L44 20L44 21L45 21L45 22L48 22L48 21L46 21L46 18ZM29 19L29 20L30 20L30 19ZM31 19L31 20L32 20L32 21L33 21L33 20L32 20L32 19ZM18 20L18 21L16 21L16 23L17 23L17 22L18 22L18 21L19 21L19 20ZM30 22L30 24L35 24L35 23L34 23L34 22L32 22L32 23L31 23L31 22ZM5 23L5 26L8 26L8 23ZM23 23L23 26L26 26L26 23ZM41 23L41 26L44 26L44 23ZM6 24L6 25L7 25L7 24ZM13 24L13 25L14 25L14 24ZM24 24L24 25L25 25L25 24ZM42 24L42 25L43 25L43 24ZM0 25L0 26L1 26L1 25ZM27 25L27 27L28 27L28 28L24 28L24 27L22 27L22 26L20 26L20 28L19 28L19 30L20 30L20 31L22 31L22 32L23 32L23 31L24 31L24 30L26 30L26 31L27 31L27 30L28 30L28 31L29 31L29 30L30 30L30 29L29 29L29 30L28 30L28 28L29 28L29 27L30 27L30 28L31 28L31 26L32 26L32 25ZM28 26L28 27L29 27L29 26ZM11 27L11 28L12 28L12 30L13 30L13 28L14 28L14 27L13 27L13 28L12 28L12 27ZM21 27L21 28L20 28L20 30L21 30L21 28L22 28L22 31L23 31L23 28L22 28L22 27ZM26 29L26 30L27 30L27 29ZM6 30L6 31L7 31L7 30ZM8 30L8 34L9 34L9 33L10 33L10 32L9 32L9 30ZM43 30L43 31L44 31L44 30ZM47 30L47 31L48 31L48 30ZM17 32L17 34L18 34L18 32ZM25 32L25 34L24 34L24 33L23 33L23 35L25 35L25 36L26 36L26 37L27 37L27 36L28 36L28 34L29 34L29 32L27 32L27 33L26 33L26 32ZM45 32L45 33L46 33L46 32ZM42 33L42 34L43 34L43 33ZM6 34L6 35L7 35L7 34ZM25 34L25 35L27 35L27 34ZM3 35L3 36L4 36L4 35ZM29 35L29 37L30 37L30 38L32 38L32 37L30 37L30 35ZM18 37L18 38L19 38L19 37ZM41 37L41 38L42 38L42 37ZM18 39L18 40L19 40L19 39ZM23 41L23 44L26 44L26 41ZM41 41L41 44L44 44L44 41ZM18 42L18 43L17 43L17 44L19 44L19 42ZM24 42L24 43L25 43L25 42ZM42 42L42 43L43 43L43 42ZM14 43L14 44L16 44L16 43ZM24 45L24 46L26 46L26 45ZM47 46L47 47L46 47L46 48L47 48L47 47L48 47L48 46ZM0 0L0 7L7 7L7 0ZM1 1L1 6L6 6L6 1ZM2 2L2 5L5 5L5 2ZM42 0L42 7L49 7L49 0ZM43 1L43 6L48 6L48 1ZM44 2L44 5L47 5L47 2ZM0 42L0 49L7 49L7 42ZM1 43L1 48L6 48L6 43ZM2 44L2 47L5 47L5 44Z" fill="#000000"/></g></g></svg>
