<?xml version="1.0" encoding="UTF-8"?>
<svg xmlns="http://www.w3.org/2000/svg" version="1.1" width="300" height="300" viewBox="0 0 300 300"><rect x="0" y="0" width="300" height="300" fill="#ffffff"/><g transform="scale(5.882)"><g transform="translate(1,1)"><path fill-rule="evenodd" d="M8 0L8 2L9 2L9 3L8 3L8 7L9 7L9 6L10 6L10 8L11 8L11 9L12 9L12 10L13 10L13 11L14 11L14 10L15 10L15 13L17 13L17 14L15 14L15 15L17 15L17 16L16 16L16 19L15 19L15 18L14 18L14 15L13 15L13 14L14 14L14 12L12 12L12 13L11 13L11 12L10 12L10 13L11 13L11 15L10 15L10 16L13 16L13 17L12 17L12 18L11 18L11 19L10 19L10 17L9 17L9 16L8 16L8 15L9 15L9 13L8 13L8 15L7 15L7 14L6 14L6 15L4 15L4 14L3 14L3 15L2 15L2 14L1 14L1 15L0 15L0 16L1 16L1 15L2 15L2 16L3 16L3 17L0 17L0 20L1 20L1 21L2 21L2 22L0 22L0 23L3 23L3 24L0 24L0 25L4 25L4 27L7 27L7 28L6 28L6 29L4 29L4 28L2 28L2 27L3 27L3 26L0 26L0 27L1 27L1 28L2 28L2 30L1 30L1 29L0 29L0 30L1 30L1 31L0 31L0 32L1 32L1 33L0 33L0 34L1 34L1 37L0 37L0 38L1 38L1 40L0 40L0 41L3 41L3 40L4 40L4 39L2 39L2 38L3 38L3 37L4 37L4 38L5 38L5 39L7 39L7 40L6 40L6 41L7 41L7 40L8 40L8 42L9 42L9 45L8 45L8 46L9 46L9 49L10 49L10 48L11 48L11 47L10 47L10 45L12 45L12 47L13 47L13 49L14 49L14 45L12 45L12 44L13 44L13 39L14 39L14 40L15 40L15 38L17 38L17 41L16 41L16 42L15 42L15 41L14 41L14 44L15 44L15 47L16 47L16 48L17 48L17 47L16 47L16 45L18 45L18 44L15 44L15 43L17 43L17 41L18 41L18 43L20 43L20 45L19 45L19 46L18 46L18 49L19 49L19 48L20 48L20 49L22 49L22 48L24 48L24 49L25 49L25 48L26 48L26 47L25 47L25 46L27 46L27 47L28 47L28 45L30 45L30 46L29 46L29 47L30 47L30 48L31 48L31 49L32 49L32 47L34 47L34 45L31 45L31 44L33 44L33 42L32 42L32 43L31 43L31 44L29 44L29 42L30 42L30 41L31 41L31 40L32 40L32 41L33 41L33 40L32 40L32 39L34 39L34 44L36 44L36 47L35 47L35 48L36 48L36 49L38 49L38 48L39 48L39 47L37 47L37 44L36 44L36 43L37 43L37 41L38 41L38 40L40 40L40 42L38 42L38 43L40 43L40 45L41 45L41 47L42 47L42 45L43 45L43 46L44 46L44 47L45 47L45 48L44 48L44 49L46 49L46 47L47 47L47 49L49 49L49 46L48 46L48 47L47 47L47 46L44 46L44 45L45 45L45 44L46 44L46 45L47 45L47 44L48 44L48 45L49 45L49 43L48 43L48 42L47 42L47 44L46 44L46 43L45 43L45 40L42 40L42 38L44 38L44 39L45 39L45 38L44 38L44 37L49 37L49 30L48 30L48 28L49 28L49 27L47 27L47 28L46 28L46 26L48 26L48 25L46 25L46 24L47 24L47 23L48 23L48 24L49 24L49 22L48 22L48 21L49 21L49 19L47 19L47 20L48 20L48 21L47 21L47 22L46 22L46 24L45 24L45 21L46 21L46 20L45 20L45 21L44 21L44 20L43 20L43 21L44 21L44 22L40 22L40 24L39 24L39 23L37 23L37 21L35 21L35 22L34 22L34 21L32 21L32 20L33 20L33 19L34 19L34 20L35 20L35 18L36 18L36 19L39 19L39 16L40 16L40 13L39 13L39 16L38 16L38 14L36 14L36 13L38 13L38 12L40 12L40 11L41 11L41 10L40 10L40 9L41 9L41 6L40 6L40 8L38 8L38 7L39 7L39 5L38 5L38 4L37 4L37 3L36 3L36 4L37 4L37 6L36 6L36 5L34 5L34 7L33 7L33 6L32 6L32 7L31 7L31 6L30 6L30 5L31 5L31 4L32 4L32 5L33 5L33 4L35 4L35 1L34 1L34 0L32 0L32 1L31 1L31 0L27 0L27 1L29 1L29 2L28 2L28 3L27 3L27 2L26 2L26 1L25 1L25 2L24 2L24 0L23 0L23 1L22 1L22 0L21 0L21 1L20 1L20 0L19 0L19 1L17 1L17 0L16 0L16 1L14 1L14 0ZM37 0L37 1L38 1L38 2L39 2L39 4L40 4L40 3L41 3L41 0L40 0L40 1L38 1L38 0ZM11 1L11 2L12 2L12 5L10 5L10 3L9 3L9 5L10 5L10 6L11 6L11 8L13 8L13 7L14 7L14 9L13 9L13 10L14 10L14 9L16 9L16 8L17 8L17 7L18 7L18 5L19 5L19 8L22 8L22 6L21 6L21 5L22 5L22 4L21 4L21 3L22 3L22 1L21 1L21 2L20 2L20 4L17 4L17 7L16 7L16 6L15 6L15 7L14 7L14 4L13 4L13 2L14 2L14 1ZM30 1L30 2L29 2L29 4L27 4L27 5L30 5L30 4L31 4L31 3L30 3L30 2L31 2L31 1ZM32 1L32 2L34 2L34 1ZM18 2L18 3L19 3L19 2ZM24 3L24 4L26 4L26 3ZM32 3L32 4L33 4L33 3ZM15 4L15 5L16 5L16 4ZM12 5L12 7L13 7L13 5ZM23 5L23 8L26 8L26 5ZM20 6L20 7L21 7L21 6ZM24 6L24 7L25 7L25 6ZM27 6L27 9L29 9L29 10L30 10L30 11L29 11L29 12L28 12L28 11L26 11L26 10L25 10L25 13L24 13L24 14L22 14L22 12L23 12L23 10L24 10L24 9L22 9L22 10L21 10L21 11L19 11L19 10L20 10L20 9L17 9L17 10L16 10L16 11L17 11L17 13L18 13L18 15L19 15L19 17L20 17L20 18L23 18L23 17L25 17L25 19L24 19L24 21L26 21L26 22L30 22L30 23L32 23L32 21L31 21L31 22L30 22L30 21L29 21L29 19L31 19L31 20L32 20L32 19L33 19L33 18L32 18L32 17L33 17L33 16L32 16L32 15L31 15L31 14L32 14L32 13L31 13L31 12L33 12L33 15L34 15L34 18L35 18L35 17L36 17L36 16L37 16L37 17L38 17L38 16L37 16L37 15L36 15L36 16L35 16L35 15L34 15L34 14L35 14L35 13L36 13L36 12L37 12L37 11L38 11L38 10L39 10L39 9L38 9L38 8L37 8L37 7L38 7L38 6L37 6L37 7L36 7L36 6L35 6L35 7L36 7L36 8L33 8L33 7L32 7L32 8L30 8L30 9L29 9L29 8L28 8L28 6ZM29 6L29 7L30 7L30 6ZM3 8L3 9L2 9L2 10L1 10L1 11L2 11L2 10L3 10L3 9L4 9L4 8ZM6 8L6 9L7 9L7 8ZM43 8L43 9L44 9L44 10L43 10L43 12L46 12L46 11L48 11L48 14L49 14L49 11L48 11L48 10L46 10L46 8ZM47 8L47 9L49 9L49 8ZM9 9L9 10L8 10L8 11L7 11L7 10L4 10L4 11L3 11L3 13L4 13L4 12L5 12L5 13L7 13L7 12L9 12L9 10L10 10L10 9ZM30 9L30 10L33 10L33 11L34 11L34 12L35 12L35 11L36 11L36 10L38 10L38 9L34 9L34 10L33 10L33 9ZM34 10L34 11L35 11L35 10ZM6 11L6 12L7 12L7 11ZM21 11L21 12L22 12L22 11ZM30 11L30 12L29 12L29 13L28 13L28 15L29 15L29 16L27 16L27 15L25 15L25 14L26 14L26 13L25 13L25 14L24 14L24 15L22 15L22 14L20 14L20 17L23 17L23 16L24 16L24 15L25 15L25 16L27 16L27 17L26 17L26 18L27 18L27 17L29 17L29 16L31 16L31 15L29 15L29 14L31 14L31 13L30 13L30 12L31 12L31 11ZM0 12L0 13L2 13L2 12ZM18 12L18 13L19 13L19 12ZM41 12L41 13L42 13L42 12ZM43 13L43 14L41 14L41 15L42 15L42 16L44 16L44 17L45 17L45 18L43 18L43 17L40 17L40 18L42 18L42 19L46 19L46 15L47 15L47 16L48 16L48 17L49 17L49 15L47 15L47 13ZM43 14L43 15L44 15L44 16L45 16L45 14ZM3 15L3 16L4 16L4 18L3 18L3 19L2 19L2 18L1 18L1 20L2 20L2 21L4 21L4 22L9 22L9 23L10 23L10 24L9 24L9 29L11 29L11 30L10 30L10 32L8 32L8 31L9 31L9 30L8 30L8 28L7 28L7 29L6 29L6 30L4 30L4 29L3 29L3 30L4 30L4 31L3 31L3 32L2 32L2 31L1 31L1 32L2 32L2 33L1 33L1 34L2 34L2 33L3 33L3 35L4 35L4 36L5 36L5 35L6 35L6 36L7 36L7 35L6 35L6 34L7 34L7 33L8 33L8 37L6 37L6 38L8 38L8 39L9 39L9 35L10 35L10 36L11 36L11 35L10 35L10 34L11 34L11 33L12 33L12 31L14 31L14 32L13 32L13 34L12 34L12 35L13 35L13 37L10 37L10 38L13 38L13 37L14 37L14 35L15 35L15 34L14 34L14 32L16 32L16 33L17 33L17 34L18 34L18 35L19 35L19 34L21 34L21 35L22 35L22 34L21 34L21 32L20 32L20 31L19 31L19 30L18 30L18 31L17 31L17 30L14 30L14 29L12 29L12 28L13 28L13 26L14 26L14 27L16 27L16 28L15 28L15 29L19 29L19 28L18 28L18 27L19 27L19 26L18 26L18 25L17 25L17 26L16 26L16 25L15 25L15 26L14 26L14 24L15 24L15 22L14 22L14 24L12 24L12 25L10 25L10 24L11 24L11 23L10 23L10 22L12 22L12 23L13 23L13 20L14 20L14 18L12 18L12 20L10 20L10 22L9 22L9 19L8 19L8 20L7 20L7 19L6 19L6 18L9 18L9 17L8 17L8 16L7 16L7 15L6 15L6 16L7 16L7 17L5 17L5 16L4 16L4 15ZM17 17L17 18L18 18L18 19L16 19L16 20L17 20L17 21L18 21L18 22L16 22L16 23L18 23L18 24L19 24L19 25L22 25L22 24L21 24L21 23L22 23L22 22L23 22L23 20L22 20L22 22L21 22L21 21L20 21L20 20L21 20L21 19L19 19L19 18L18 18L18 17ZM30 17L30 18L31 18L31 19L32 19L32 18L31 18L31 17ZM4 19L4 21L5 21L5 20L6 20L6 21L7 21L7 20L6 20L6 19ZM26 19L26 20L28 20L28 19ZM38 20L38 22L39 22L39 20ZM40 20L40 21L41 21L41 20ZM19 21L19 22L18 22L18 23L19 23L19 22L20 22L20 21ZM35 22L35 23L33 23L33 24L32 24L32 25L31 25L31 26L30 26L30 27L29 27L29 26L28 26L28 25L29 25L29 23L27 23L27 26L28 26L28 29L29 29L29 30L28 30L28 31L27 31L27 30L26 30L26 31L24 31L24 29L25 29L25 27L24 27L24 28L23 28L23 29L22 29L22 28L21 28L21 26L20 26L20 30L23 30L23 32L22 32L22 33L24 33L24 36L17 36L17 35L16 35L16 36L15 36L15 37L16 37L16 36L17 36L17 37L18 37L18 41L19 41L19 39L20 39L20 38L22 38L22 40L20 40L20 43L21 43L21 44L22 44L22 43L21 43L21 42L22 42L22 40L23 40L23 39L25 39L25 40L27 40L27 39L28 39L28 41L29 41L29 40L31 40L31 39L28 39L28 37L27 37L27 39L26 39L26 38L25 38L25 37L24 37L24 36L25 36L25 35L27 35L27 36L28 36L28 35L29 35L29 36L31 36L31 34L33 34L33 35L34 35L34 36L35 36L35 37L36 37L36 36L37 36L37 37L38 37L38 38L37 38L37 39L36 39L36 38L35 38L35 39L36 39L36 40L35 40L35 41L37 41L37 40L38 40L38 39L40 39L40 40L41 40L41 39L40 39L40 37L41 37L41 38L42 38L42 36L43 36L43 35L46 35L46 36L48 36L48 35L46 35L46 34L47 34L47 33L46 33L46 31L47 31L47 32L48 32L48 30L47 30L47 29L46 29L46 28L45 28L45 27L42 27L42 28L40 28L40 29L39 29L39 27L36 27L36 29L34 29L34 31L35 31L35 32L34 32L34 33L35 33L35 34L33 34L33 31L32 31L32 29L29 29L29 28L30 28L30 27L31 27L31 28L33 28L33 27L31 27L31 26L32 26L32 25L33 25L33 26L34 26L34 25L35 25L35 23L36 23L36 22ZM5 23L5 26L8 26L8 23ZM23 23L23 26L26 26L26 23ZM41 23L41 26L44 26L44 23ZM6 24L6 25L7 25L7 24ZM24 24L24 25L25 25L25 24ZM36 24L36 25L37 25L37 24ZM38 24L38 26L39 26L39 24ZM42 24L42 25L43 25L43 24ZM12 25L12 26L13 26L13 25ZM10 27L10 28L12 28L12 27ZM26 27L26 29L27 29L27 27ZM34 27L34 28L35 28L35 27ZM37 28L37 29L36 29L36 30L35 30L35 31L37 31L37 32L35 32L35 33L37 33L37 32L38 32L38 33L40 33L40 32L42 32L42 33L41 33L41 34L40 34L40 35L38 35L38 34L36 34L36 35L35 35L35 36L36 36L36 35L38 35L38 36L42 36L42 35L43 35L43 34L44 34L44 32L43 32L43 31L46 31L46 29L45 29L45 28L44 28L44 29L43 29L43 28L42 28L42 29L41 29L41 30L43 30L43 31L39 31L39 32L38 32L38 30L39 30L39 29L38 29L38 28ZM6 30L6 31L7 31L7 30ZM11 30L11 31L12 31L12 30ZM29 30L29 32L32 32L32 31L31 31L31 30ZM16 31L16 32L17 32L17 33L18 33L18 32L19 32L19 31L18 31L18 32L17 32L17 31ZM4 32L4 35L5 35L5 32ZM6 32L6 33L7 33L7 32ZM24 32L24 33L25 33L25 34L26 34L26 33L27 33L27 32L26 32L26 33L25 33L25 32ZM28 33L28 34L27 34L27 35L28 35L28 34L29 34L29 35L30 35L30 34L29 34L29 33ZM2 36L2 37L3 37L3 36ZM32 36L32 37L30 37L30 38L32 38L32 37L33 37L33 36ZM22 37L22 38L23 38L23 37ZM48 38L48 40L47 40L47 39L46 39L46 40L47 40L47 41L49 41L49 38ZM10 39L10 40L11 40L11 41L10 41L10 43L12 43L12 42L11 42L11 41L12 41L12 39ZM23 41L23 44L26 44L26 41ZM41 41L41 44L44 44L44 41ZM24 42L24 43L25 43L25 42ZM35 42L35 43L36 43L36 42ZM42 42L42 43L43 43L43 42ZM27 43L27 45L28 45L28 43ZM38 44L38 46L39 46L39 44ZM23 45L23 46L21 46L21 47L20 47L20 46L19 46L19 47L20 47L20 48L21 48L21 47L23 47L23 46L25 46L25 45ZM31 46L31 47L32 47L32 46ZM24 47L24 48L25 48L25 47ZM27 48L27 49L29 49L29 48ZM40 48L40 49L41 49L41 48ZM42 48L42 49L43 49L43 48ZM0 0L0 7L7 7L7 0ZM1 1L1 6L6 6L6 1ZM2 2L2 5L5 5L5 2ZM42 0L42 7L49 7L49 0ZM43 1L43 6L48 6L48 1ZM44 2L44 5L47 5L47 2ZM0 42L0 49L7 49L7 42ZM1 43L1 48L6 48L6 43ZM2 44L2 47L5 47L5 44Z" fill="#000000"/></g></g></svg>
