<?xml version="1.0" encoding="UTF-8"?>
<svg xmlns="http://www.w3.org/2000/svg" version="1.1" width="300" height="300" viewBox="0 0 300 300"><rect x="0" y="0" width="300" height="300" fill="#ffffff"/><g transform="scale(5.882)"><g transform="translate(1,1)"><path fill-rule="evenodd" d="M8 0L8 3L9 3L9 1L10 1L10 3L12 3L12 4L9 4L9 5L8 5L8 9L7 9L7 8L6 8L6 9L5 9L5 8L2 8L2 9L1 9L1 10L3 10L3 12L2 12L2 11L0 11L0 14L1 14L1 17L2 17L2 14L3 14L3 17L4 17L4 16L5 16L5 17L7 17L7 18L6 18L6 19L7 19L7 20L5 20L5 22L4 22L4 20L3 20L3 19L5 19L5 18L2 18L2 20L1 20L1 21L0 21L0 25L1 25L1 23L2 23L2 24L4 24L4 26L1 26L1 28L2 28L2 27L5 27L5 28L6 28L6 29L4 29L4 32L3 32L3 31L2 31L2 30L0 30L0 31L2 31L2 32L3 32L3 33L2 33L2 35L3 35L3 36L1 36L1 35L0 35L0 36L1 36L1 40L0 40L0 41L3 41L3 40L4 40L4 39L2 39L2 37L3 37L3 38L5 38L5 39L7 39L7 38L6 38L6 37L9 37L9 38L12 38L12 39L11 39L11 40L10 40L10 39L8 39L8 40L6 40L6 41L8 41L8 42L10 42L10 43L9 43L9 44L8 44L8 47L11 47L11 46L10 46L10 45L9 45L9 44L10 44L10 43L12 43L12 42L14 42L14 41L15 41L15 43L14 43L14 44L16 44L16 46L12 46L12 47L13 47L13 48L12 48L12 49L14 49L14 47L15 47L15 48L16 48L16 49L19 49L19 48L18 48L18 47L17 47L17 46L19 46L19 45L21 45L21 46L22 46L22 47L23 47L23 45L24 45L24 47L26 47L26 49L27 49L27 46L28 46L28 44L27 44L27 42L29 42L29 43L30 43L30 45L31 45L31 46L30 46L30 47L31 47L31 46L34 46L34 45L35 45L35 46L36 46L36 47L35 47L35 48L33 48L33 47L32 47L32 48L31 48L31 49L35 49L35 48L36 48L36 49L40 49L40 48L36 48L36 47L40 47L40 46L39 46L39 45L41 45L41 46L43 46L43 47L42 47L42 48L41 48L41 49L42 49L42 48L43 48L43 49L44 49L44 48L46 48L46 49L49 49L49 48L48 48L48 47L49 47L49 44L47 44L47 43L48 43L48 42L49 42L49 40L48 40L48 39L49 39L49 36L48 36L48 35L49 35L49 34L44 34L44 35L41 35L41 34L42 34L42 33L44 33L44 32L42 32L42 33L41 33L41 32L40 32L40 31L41 31L41 30L42 30L42 29L44 29L44 27L45 27L45 28L46 28L46 29L45 29L45 30L46 30L46 31L47 31L47 32L48 32L48 33L49 33L49 32L48 32L48 31L49 31L49 29L48 29L48 28L46 28L46 27L48 27L48 26L49 26L49 25L48 25L48 26L46 26L46 25L47 25L47 23L49 23L49 20L47 20L47 18L46 18L46 17L44 17L44 16L43 16L43 18L42 18L42 17L40 17L40 15L41 15L41 16L42 16L42 14L43 14L43 15L44 15L44 14L46 14L46 13L44 13L44 12L43 12L43 10L46 10L46 11L48 11L48 10L49 10L49 8L46 8L46 9L44 9L44 8L41 8L41 9L43 9L43 10L42 10L42 12L40 12L40 11L41 11L41 10L40 10L40 9L39 9L39 8L40 8L40 7L41 7L41 6L40 6L40 7L39 7L39 5L38 5L38 7L39 7L39 8L37 8L37 5L34 5L34 4L36 4L36 2L39 2L39 4L40 4L40 3L41 3L41 0L40 0L40 1L38 1L38 0L37 0L37 1L35 1L35 0L34 0L34 1L35 1L35 3L34 3L34 2L32 2L32 1L31 1L31 0L29 0L29 1L28 1L28 2L26 2L26 1L27 1L27 0L26 0L26 1L25 1L25 0L24 0L24 1L23 1L23 2L24 2L24 1L25 1L25 3L24 3L24 4L23 4L23 3L22 3L22 2L20 2L20 3L21 3L21 4L19 4L19 3L18 3L18 2L19 2L19 0L17 0L17 2L15 2L15 0L12 0L12 1L11 1L11 0ZM20 0L20 1L21 1L21 0ZM29 1L29 2L28 2L28 4L29 4L29 5L28 5L28 6L27 6L27 7L28 7L28 6L29 6L29 9L30 9L30 11L31 11L31 12L32 12L32 14L30 14L30 12L29 12L29 11L28 11L28 12L29 12L29 14L28 14L28 13L26 13L26 12L25 12L25 13L26 13L26 14L24 14L24 13L23 13L23 12L24 12L24 11L23 11L23 10L26 10L26 11L27 11L27 10L28 10L28 9L27 9L27 10L26 10L26 9L22 9L22 6L21 6L21 7L20 7L20 6L19 6L19 4L18 4L18 3L17 3L17 4L18 4L18 5L17 5L17 7L18 7L18 6L19 6L19 8L21 8L21 9L22 9L22 13L20 13L20 12L19 12L19 14L18 14L18 11L21 11L21 10L18 10L18 9L17 9L17 8L16 8L16 6L15 6L15 7L14 7L14 5L15 5L15 3L14 3L14 5L13 5L13 4L12 4L12 5L11 5L11 7L12 7L12 6L13 6L13 9L12 9L12 8L11 8L11 9L12 9L12 10L10 10L10 11L8 11L8 10L7 10L7 9L6 9L6 10L5 10L5 9L4 9L4 10L5 10L5 11L6 11L6 12L7 12L7 13L6 13L6 14L10 14L10 13L11 13L11 16L10 16L10 15L5 15L5 14L4 14L4 15L5 15L5 16L8 16L8 17L9 17L9 16L10 16L10 18L8 18L8 20L7 20L7 21L6 21L6 22L7 22L7 21L8 21L8 22L9 22L9 21L10 21L10 23L9 23L9 24L13 24L13 23L11 23L11 22L14 22L14 21L13 21L13 20L14 20L14 19L15 19L15 20L16 20L16 19L17 19L17 18L18 18L18 19L19 19L19 20L18 20L18 21L17 21L17 22L16 22L16 21L15 21L15 22L16 22L16 23L14 23L14 24L17 24L17 23L19 23L19 22L18 22L18 21L19 21L19 20L20 20L20 19L21 19L21 21L20 21L20 22L21 22L21 21L22 21L22 22L25 22L25 21L26 21L26 20L27 20L27 19L26 19L26 16L27 16L27 18L29 18L29 20L30 20L30 21L27 21L27 24L29 24L29 23L28 23L28 22L31 22L31 20L32 20L32 21L33 21L33 20L35 20L35 19L36 19L36 18L38 18L38 19L37 19L37 20L36 20L36 21L34 21L34 22L32 22L32 23L30 23L30 24L35 24L35 23L36 23L36 25L33 25L33 27L32 27L32 28L31 28L31 26L32 26L32 25L27 25L27 27L26 27L26 28L24 28L24 27L23 27L23 29L22 29L22 28L21 28L21 30L20 30L20 28L19 28L19 27L20 27L20 26L19 26L19 27L18 27L18 25L17 25L17 27L16 27L16 26L15 26L15 25L14 25L14 26L15 26L15 28L16 28L16 29L17 29L17 30L18 30L18 31L15 31L15 33L16 33L16 32L17 32L17 33L20 33L20 34L18 34L18 36L17 36L17 35L16 35L16 34L15 34L15 35L14 35L14 36L13 36L13 33L14 33L14 30L15 30L15 29L14 29L14 27L12 27L12 26L11 26L11 27L10 27L10 26L9 26L9 27L10 27L10 28L8 28L8 27L6 27L6 28L8 28L8 30L7 30L7 29L6 29L6 30L5 30L5 31L6 31L6 32L4 32L4 33L3 33L3 35L4 35L4 36L5 36L5 35L6 35L6 36L9 36L9 37L11 37L11 35L10 35L10 36L9 36L9 34L8 34L8 35L6 35L6 34L7 34L7 33L8 33L8 30L9 30L9 32L10 32L10 34L12 34L12 36L13 36L13 37L15 37L15 35L16 35L16 38L17 38L17 39L15 39L15 40L18 40L18 41L17 41L17 43L16 43L16 44L17 44L17 45L19 45L19 44L17 44L17 43L18 43L18 42L19 42L19 43L20 43L20 44L21 44L21 45L22 45L22 41L21 41L21 40L20 40L20 38L21 38L21 39L22 39L22 40L23 40L23 39L22 39L22 38L23 38L23 37L20 37L20 36L21 36L21 33L22 33L22 32L20 32L20 31L22 31L22 30L23 30L23 31L24 31L24 30L25 30L25 32L24 32L24 33L25 33L25 34L23 34L23 35L24 35L24 39L26 39L26 40L27 40L27 41L29 41L29 39L30 39L30 41L31 41L31 39L30 39L30 38L29 38L29 37L28 37L28 36L30 36L30 37L31 37L31 38L32 38L32 37L31 37L31 36L33 36L33 37L34 37L34 38L33 38L33 39L32 39L32 41L33 41L33 42L31 42L31 45L33 45L33 44L35 44L35 45L36 45L36 46L37 46L37 45L38 45L38 44L40 44L40 41L39 41L39 42L37 42L37 41L38 41L38 40L37 40L37 41L36 41L36 42L34 42L34 41L33 41L33 40L34 40L34 39L36 39L36 38L37 38L37 37L36 37L36 36L35 36L35 35L36 35L36 34L35 34L35 33L36 33L36 32L35 32L35 30L41 30L41 29L42 29L42 27L41 27L41 28L39 28L39 27L40 27L40 26L39 26L39 25L38 25L38 26L39 26L39 27L38 27L38 28L36 28L36 26L37 26L37 24L40 24L40 22L41 22L41 20L40 20L40 19L39 19L39 18L40 18L40 17L39 17L39 15L40 15L40 14L39 14L39 13L37 13L37 14L39 14L39 15L37 15L37 16L36 16L36 11L37 11L37 12L39 12L39 11L40 11L40 10L38 10L38 9L37 9L37 8L36 8L36 6L35 6L35 7L34 7L34 6L33 6L33 7L34 7L34 8L36 8L36 9L35 9L35 10L34 10L34 9L33 9L33 10L31 10L31 8L32 8L32 6L31 6L31 7L30 7L30 6L29 6L29 5L30 5L30 4L29 4L29 2L30 2L30 1ZM31 3L31 4L32 4L32 3ZM33 3L33 4L34 4L34 3ZM37 3L37 4L38 4L38 3ZM9 5L9 8L10 8L10 5ZM23 5L23 8L26 8L26 5ZM24 6L24 7L25 7L25 6ZM15 8L15 10L14 10L14 11L12 11L12 13L13 13L13 14L12 14L12 15L13 15L13 14L14 14L14 13L15 13L15 12L17 12L17 11L15 11L15 10L17 10L17 9L16 9L16 8ZM46 9L46 10L47 10L47 9ZM6 10L6 11L7 11L7 12L8 12L8 11L7 11L7 10ZM35 10L35 11L34 11L34 12L33 12L33 13L34 13L34 14L33 14L33 15L31 15L31 18L30 18L30 17L29 17L29 16L30 16L30 15L29 15L29 16L28 16L28 17L29 17L29 18L30 18L30 19L32 19L32 20L33 20L33 18L34 18L34 17L33 17L33 16L34 16L34 14L35 14L35 11L36 11L36 10ZM3 12L3 13L4 13L4 12ZM9 12L9 13L10 13L10 12ZM42 12L42 13L43 13L43 14L44 14L44 13L43 13L43 12ZM48 12L48 13L47 13L47 15L48 15L48 13L49 13L49 12ZM1 13L1 14L2 14L2 13ZM16 13L16 14L17 14L17 13ZM20 14L20 15L19 15L19 16L14 16L14 18L15 18L15 19L16 19L16 18L15 18L15 17L19 17L19 16L20 16L20 17L21 17L21 16L22 16L22 18L21 18L21 19L24 19L24 20L26 20L26 19L25 19L25 18L24 18L24 17L23 17L23 14L22 14L22 15L21 15L21 14ZM27 14L27 15L28 15L28 14ZM24 15L24 16L25 16L25 15ZM45 15L45 16L46 16L46 15ZM12 16L12 17L13 17L13 16ZM37 16L37 17L38 17L38 16ZM48 16L48 18L49 18L49 16ZM32 17L32 18L33 18L33 17ZM35 17L35 18L36 18L36 17ZM0 18L0 19L1 19L1 18ZM10 18L10 19L9 19L9 20L10 20L10 21L11 21L11 20L13 20L13 19L12 19L12 18ZM41 18L41 19L42 19L42 18ZM44 18L44 19L43 19L43 20L42 20L42 21L43 21L43 20L44 20L44 21L45 21L45 22L48 22L48 21L46 21L46 18ZM10 19L10 20L11 20L11 19ZM2 20L2 21L3 21L3 20ZM38 20L38 21L37 21L37 22L36 22L36 23L39 23L39 22L40 22L40 21L39 21L39 20ZM2 22L2 23L4 23L4 22ZM34 22L34 23L35 23L35 22ZM5 23L5 26L8 26L8 23ZM23 23L23 26L26 26L26 23ZM41 23L41 26L44 26L44 23ZM45 23L45 25L46 25L46 23ZM6 24L6 25L7 25L7 24ZM20 24L20 25L21 25L21 27L22 27L22 25L21 25L21 24ZM24 24L24 25L25 25L25 24ZM42 24L42 25L43 25L43 24ZM28 26L28 28L26 28L26 29L25 29L25 30L26 30L26 31L27 31L27 32L26 32L26 33L27 33L27 34L25 34L25 35L28 35L28 34L29 34L29 35L30 35L30 36L31 36L31 35L30 35L30 34L32 34L32 33L30 33L30 32L29 32L29 31L31 31L31 32L32 32L32 31L31 31L31 30L32 30L32 29L31 29L31 28L30 28L30 27L29 27L29 26ZM45 26L45 27L46 27L46 26ZM11 27L11 28L12 28L12 30L10 30L10 29L9 29L9 30L10 30L10 32L11 32L11 33L13 33L13 32L12 32L12 30L13 30L13 28L12 28L12 27ZM17 27L17 28L18 28L18 27ZM28 28L28 29L26 29L26 30L28 30L28 31L29 31L29 30L30 30L30 29L29 29L29 28ZM33 28L33 30L34 30L34 29L36 29L36 28ZM38 28L38 29L39 29L39 28ZM28 29L28 30L29 30L29 29ZM46 29L46 30L47 30L47 31L48 31L48 30L47 30L47 29ZM6 30L6 31L7 31L7 30ZM19 30L19 31L18 31L18 32L19 32L19 31L20 31L20 30ZM43 30L43 31L44 31L44 30ZM33 31L33 32L34 32L34 33L35 33L35 32L34 32L34 31ZM37 31L37 32L39 32L39 33L37 33L37 36L39 36L39 35L38 35L38 34L41 34L41 33L40 33L40 32L39 32L39 31ZM6 32L6 33L7 33L7 32ZM28 32L28 33L29 33L29 32ZM45 32L45 33L46 33L46 32ZM4 33L4 35L5 35L5 33ZM33 35L33 36L34 36L34 35ZM44 35L44 36L43 36L43 37L38 37L38 38L40 38L40 40L41 40L41 38L43 38L43 39L44 39L44 40L46 40L46 41L45 41L45 42L48 42L48 41L47 41L47 40L46 40L46 39L44 39L44 38L46 38L46 37L45 37L45 36L47 36L47 37L48 37L48 36L47 36L47 35ZM25 36L25 38L26 38L26 39L27 39L27 40L28 40L28 39L29 39L29 38L28 38L28 39L27 39L27 37L26 37L26 36ZM18 37L18 38L19 38L19 37ZM35 37L35 38L36 38L36 37ZM43 37L43 38L44 38L44 37ZM12 39L12 40L11 40L11 41L10 41L10 40L9 40L9 41L10 41L10 42L11 42L11 41L13 41L13 39ZM18 39L18 40L19 40L19 42L21 42L21 41L20 41L20 40L19 40L19 39ZM23 41L23 44L26 44L26 41ZM41 41L41 44L44 44L44 41ZM24 42L24 43L25 43L25 42ZM33 42L33 43L32 43L32 44L33 44L33 43L34 43L34 42ZM36 42L36 43L35 43L35 44L37 44L37 42ZM42 42L42 43L43 43L43 42ZM11 44L11 45L13 45L13 44ZM46 44L46 45L43 45L43 46L44 46L44 47L43 47L43 48L44 48L44 47L46 47L46 48L47 48L47 47L48 47L48 46L47 46L47 44ZM25 45L25 46L26 46L26 45ZM46 46L46 47L47 47L47 46ZM20 47L20 48L21 48L21 49L22 49L22 48L21 48L21 47ZM23 48L23 49L25 49L25 48ZM0 0L0 7L7 7L7 0ZM1 1L1 6L6 6L6 1ZM2 2L2 5L5 5L5 2ZM42 0L42 7L49 7L49 0ZM43 1L43 6L48 6L48 1ZM44 2L44 5L47 5L47 2ZM0 42L0 49L7 49L7 42ZM1 43L1 48L6 48L6 43ZM2 44L2 47L5 47L5 44Z" fill="#000000"/></g></g></svg>
