<?xml version="1.0" encoding="UTF-8"?>
<svg xmlns="http://www.w3.org/2000/svg" version="1.1" width="300" height="300" viewBox="0 0 300 300"><rect x="0" y="0" width="300" height="300" fill="#ffffff"/><g transform="scale(5.882)"><g transform="translate(1,1)"><path fill-rule="evenodd" d="M8 0L8 3L9 3L9 5L8 5L8 9L9 9L9 10L8 10L8 11L10 11L10 10L12 10L12 9L14 9L14 11L12 11L12 13L13 13L13 14L12 14L12 15L13 15L13 14L14 14L14 13L15 13L15 12L17 12L17 11L15 11L15 10L17 10L17 9L18 9L18 10L21 10L21 11L18 11L18 14L19 14L19 12L20 12L20 13L22 13L22 9L26 9L26 10L24 10L24 11L23 11L23 13L25 13L25 14L22 14L22 15L21 15L21 14L20 14L20 15L19 15L19 16L14 16L14 18L16 18L16 19L14 19L14 20L13 20L13 18L12 18L12 20L13 20L13 21L14 21L14 22L15 22L15 21L18 21L18 22L16 22L16 25L15 25L15 26L14 26L14 25L13 25L13 26L14 26L14 27L13 27L13 28L12 28L12 26L11 26L11 25L10 25L10 26L11 26L11 27L9 27L9 24L10 24L10 23L11 23L11 24L13 24L13 23L12 23L12 21L11 21L11 20L10 20L10 19L11 19L11 18L10 18L10 16L11 16L11 17L13 17L13 16L11 16L11 13L10 13L10 12L6 12L6 11L7 11L7 10L6 10L6 9L7 9L7 8L6 8L6 9L5 9L5 8L2 8L2 9L4 9L4 11L5 11L5 12L6 12L6 13L10 13L10 14L8 14L8 15L10 15L10 16L9 16L9 17L8 17L8 16L5 16L5 14L4 14L4 13L2 13L2 12L3 12L3 11L0 11L0 14L1 14L1 17L2 17L2 15L3 15L3 14L4 14L4 16L3 16L3 17L4 17L4 16L5 16L5 17L7 17L7 18L6 18L6 19L7 19L7 20L5 20L5 22L4 22L4 19L5 19L5 18L3 18L3 19L2 19L2 20L1 20L1 21L0 21L0 22L1 22L1 24L0 24L0 27L5 27L5 28L6 28L6 29L4 29L4 32L3 32L3 31L2 31L2 29L1 29L1 33L2 33L2 32L3 32L3 34L4 34L4 35L5 35L5 36L1 36L1 35L0 35L0 36L1 36L1 40L0 40L0 41L3 41L3 40L4 40L4 39L2 39L2 37L3 37L3 38L4 38L4 37L5 37L5 36L6 36L6 37L7 37L7 38L5 38L5 39L7 39L7 40L6 40L6 41L8 41L8 42L10 42L10 43L9 43L9 44L8 44L8 47L9 47L9 48L10 48L10 47L9 47L9 46L10 46L10 45L9 45L9 44L10 44L10 43L11 43L11 45L12 45L12 46L11 46L11 47L12 47L12 48L13 48L13 49L16 49L16 48L13 48L13 47L12 47L12 46L13 46L13 44L12 44L12 43L13 43L13 42L14 42L14 41L15 41L15 43L14 43L14 44L15 44L15 45L16 45L16 44L20 44L20 45L17 45L17 46L19 46L19 47L21 47L21 48L22 48L22 47L23 47L23 46L25 46L25 47L24 47L24 48L23 48L23 49L25 49L25 47L26 47L26 49L27 49L27 46L28 46L28 44L27 44L27 42L29 42L29 43L31 43L31 44L32 44L32 43L31 43L31 42L33 42L33 43L34 43L34 42L35 42L35 44L33 44L33 45L32 45L32 46L31 46L31 47L32 47L32 48L31 48L31 49L35 49L35 48L36 48L36 49L40 49L40 48L36 48L36 47L40 47L40 46L39 46L39 45L42 45L42 46L41 46L41 49L44 49L44 48L46 48L46 49L49 49L49 48L48 48L48 47L49 47L49 44L47 44L47 43L48 43L48 42L49 42L49 40L48 40L48 39L49 39L49 36L48 36L48 35L47 35L47 34L49 34L49 32L48 32L48 31L49 31L49 30L48 30L48 28L47 28L47 30L46 30L46 27L48 27L48 26L49 26L49 25L48 25L48 26L46 26L46 25L47 25L47 23L49 23L49 20L47 20L47 18L46 18L46 17L44 17L44 16L43 16L43 18L42 18L42 17L40 17L40 15L41 15L41 16L42 16L42 15L43 15L43 14L46 14L46 13L42 13L42 12L43 12L43 10L46 10L46 11L48 11L48 10L49 10L49 8L46 8L46 9L44 9L44 8L41 8L41 10L40 10L40 9L39 9L39 8L37 8L37 5L35 5L35 6L34 6L34 7L33 7L33 5L34 5L34 4L36 4L36 2L37 2L37 1L38 1L38 2L39 2L39 4L40 4L40 3L41 3L41 0L40 0L40 1L38 1L38 0L37 0L37 1L35 1L35 0L34 0L34 1L35 1L35 3L33 3L33 2L32 2L32 1L31 1L31 0L29 0L29 1L28 1L28 2L26 2L26 1L27 1L27 0L26 0L26 1L25 1L25 0L21 0L21 1L22 1L22 2L20 2L20 0L19 0L19 1L18 1L18 0L15 0L15 3L14 3L14 0L12 0L12 1L11 1L11 0L10 0L10 2L9 2L9 0ZM12 1L12 3L11 3L11 2L10 2L10 5L9 5L9 7L10 7L10 6L11 6L11 7L12 7L12 6L13 6L13 7L14 7L14 8L16 8L16 9L17 9L17 8L21 8L21 9L22 9L22 6L21 6L21 7L20 7L20 6L19 6L19 5L18 5L18 3L19 3L19 4L21 4L21 3L20 3L20 2L17 2L17 5L18 5L18 6L17 6L17 8L16 8L16 6L15 6L15 7L14 7L14 6L13 6L13 4L14 4L14 5L15 5L15 4L14 4L14 3L13 3L13 1ZM23 1L23 2L22 2L22 3L23 3L23 2L24 2L24 1ZM29 1L29 2L28 2L28 3L29 3L29 2L30 2L30 1ZM31 2L31 7L30 7L30 6L29 6L29 5L30 5L30 4L28 4L28 6L27 6L27 7L28 7L28 6L29 6L29 9L30 9L30 11L29 11L29 10L26 10L26 11L29 11L29 12L30 12L30 13L29 13L29 14L28 14L28 15L27 15L27 13L28 13L28 12L27 12L27 13L26 13L26 12L25 12L25 11L24 11L24 12L25 12L25 13L26 13L26 14L25 14L25 16L24 16L24 15L23 15L23 17L22 17L22 16L19 16L19 17L17 17L17 18L18 18L18 19L19 19L19 20L18 20L18 21L19 21L19 22L20 22L20 23L21 23L21 24L19 24L19 23L17 23L17 24L18 24L18 25L20 25L20 26L19 26L19 28L18 28L18 27L16 27L16 26L15 26L15 27L14 27L14 28L16 28L16 29L17 29L17 31L15 31L15 29L13 29L13 30L12 30L12 28L11 28L11 30L10 30L10 28L8 28L8 27L6 27L6 28L8 28L8 30L7 30L7 29L6 29L6 30L5 30L5 31L6 31L6 32L4 32L4 33L5 33L5 35L6 35L6 36L7 36L7 35L6 35L6 34L7 34L7 33L8 33L8 34L12 34L12 36L13 36L13 37L15 37L15 35L16 35L16 38L17 38L17 39L15 39L15 41L17 41L17 43L18 43L18 42L19 42L19 40L20 40L20 41L21 41L21 42L20 42L20 43L21 43L21 45L22 45L22 41L21 41L21 40L20 40L20 38L21 38L21 39L22 39L22 40L25 40L25 39L26 39L26 40L27 40L27 41L29 41L29 39L30 39L30 40L31 40L31 41L30 41L30 42L31 42L31 41L33 41L33 42L34 42L34 41L33 41L33 40L34 40L34 39L35 39L35 42L37 42L37 43L36 43L36 44L35 44L35 45L34 45L34 46L32 46L32 47L33 47L33 48L35 48L35 46L37 46L37 45L38 45L38 44L40 44L40 41L39 41L39 42L37 42L37 41L38 41L38 40L37 40L37 39L36 39L36 38L38 38L38 39L39 39L39 38L40 38L40 40L41 40L41 39L42 39L42 38L43 38L43 37L42 37L42 36L44 36L44 38L46 38L46 37L48 37L48 36L47 36L47 35L46 35L46 34L47 34L47 33L48 33L48 32L47 32L47 31L48 31L48 30L47 30L47 31L46 31L46 30L45 30L45 27L46 27L46 26L45 26L45 27L44 27L44 29L42 29L42 27L41 27L41 28L39 28L39 27L40 27L40 26L39 26L39 25L38 25L38 26L39 26L39 27L38 27L38 28L36 28L36 26L37 26L37 24L40 24L40 22L41 22L41 21L40 21L40 19L39 19L39 18L40 18L40 17L39 17L39 15L40 15L40 14L39 14L39 13L37 13L37 16L38 16L38 17L36 17L36 18L35 18L35 16L36 16L36 11L37 11L37 12L39 12L39 11L40 11L40 12L42 12L42 10L41 10L41 11L40 11L40 10L38 10L38 9L37 9L37 8L36 8L36 6L35 6L35 7L34 7L34 8L36 8L36 9L35 9L35 10L34 10L34 9L33 9L33 7L32 7L32 5L33 5L33 4L32 4L32 2ZM12 3L12 4L11 4L11 5L12 5L12 4L13 4L13 3ZM24 3L24 4L25 4L25 3ZM37 3L37 4L38 4L38 3ZM23 5L23 8L26 8L26 5ZM38 5L38 7L39 7L39 5ZM18 6L18 7L19 7L19 6ZM24 6L24 7L25 7L25 6ZM40 6L40 7L41 7L41 6ZM11 8L11 9L12 9L12 8ZM31 8L31 9L32 9L32 8ZM0 9L0 10L1 10L1 9ZM46 9L46 10L47 10L47 9ZM5 10L5 11L6 11L6 10ZM32 10L32 13L34 13L34 14L33 14L33 15L31 15L31 13L30 13L30 14L29 14L29 16L28 16L28 17L29 17L29 16L30 16L30 17L31 17L31 18L27 18L27 16L26 16L26 17L25 17L25 18L24 18L24 17L23 17L23 18L22 18L22 17L21 17L21 18L20 18L20 17L19 17L19 18L20 18L20 20L19 20L19 21L20 21L20 20L21 20L21 22L22 22L22 26L21 26L21 27L20 27L20 30L18 30L18 31L17 31L17 32L16 32L16 33L15 33L15 31L14 31L14 30L13 30L13 31L14 31L14 33L13 33L13 32L12 32L12 30L11 30L11 31L10 31L10 32L11 32L11 33L13 33L13 36L14 36L14 35L15 35L15 34L16 34L16 35L17 35L17 36L18 36L18 34L17 34L17 32L18 32L18 33L19 33L19 34L20 34L20 33L19 33L19 32L18 32L18 31L20 31L20 32L22 32L22 33L21 33L21 36L20 36L20 37L23 37L23 38L22 38L22 39L25 39L25 38L26 38L26 39L27 39L27 40L28 40L28 39L27 39L27 37L26 37L26 36L23 36L23 35L24 35L24 34L25 34L25 35L27 35L27 36L28 36L28 35L29 35L29 37L28 37L28 38L30 38L30 34L32 34L32 33L30 33L30 32L29 32L29 33L28 33L28 32L26 32L26 31L28 31L28 30L29 30L29 31L31 31L31 32L32 32L32 31L31 31L31 30L32 30L32 29L31 29L31 28L32 28L32 27L33 27L33 25L36 25L36 23L39 23L39 20L38 20L38 21L37 21L37 22L36 22L36 23L35 23L35 22L34 22L34 21L36 21L36 20L37 20L37 19L38 19L38 18L36 18L36 19L35 19L35 20L33 20L33 18L34 18L34 17L33 17L33 16L34 16L34 14L35 14L35 11L36 11L36 10L35 10L35 11L34 11L34 12L33 12L33 10ZM37 10L37 11L38 11L38 10ZM30 11L30 12L31 12L31 11ZM48 12L48 13L47 13L47 15L48 15L48 13L49 13L49 12ZM1 13L1 14L2 14L2 13ZM16 13L16 14L17 14L17 13ZM41 13L41 14L42 14L42 13ZM6 14L6 15L7 15L7 14ZM30 15L30 16L31 16L31 15ZM45 15L45 16L46 16L46 15ZM48 16L48 18L49 18L49 16ZM32 17L32 18L33 18L33 17ZM0 18L0 19L1 19L1 18ZM8 18L8 20L7 20L7 21L6 21L6 22L7 22L7 21L8 21L8 22L9 22L9 23L10 23L10 22L11 22L11 21L10 21L10 20L9 20L9 19L10 19L10 18ZM21 18L21 20L22 20L22 21L23 21L23 22L27 22L27 24L29 24L29 23L30 23L30 24L35 24L35 23L34 23L34 22L32 22L32 23L30 23L30 19L29 19L29 21L27 21L27 20L24 20L24 19L22 19L22 18ZM25 18L25 19L26 19L26 18ZM41 18L41 19L42 19L42 18ZM44 18L44 19L43 19L43 20L42 20L42 21L43 21L43 20L44 20L44 21L45 21L45 22L48 22L48 21L46 21L46 18ZM31 19L31 20L32 20L32 21L33 21L33 20L32 20L32 19ZM2 20L2 21L3 21L3 20ZM9 21L9 22L10 22L10 21ZM2 22L2 23L4 23L4 22ZM28 22L28 23L29 23L29 22ZM5 23L5 26L8 26L8 23ZM23 23L23 26L26 26L26 23ZM41 23L41 26L44 26L44 23ZM45 23L45 25L46 25L46 23ZM2 24L2 25L1 25L1 26L4 26L4 24ZM6 24L6 25L7 25L7 24ZM24 24L24 25L25 25L25 24ZM42 24L42 25L43 25L43 24ZM27 25L27 27L28 27L28 26L29 26L29 27L30 27L30 28L31 28L31 26L32 26L32 25ZM21 27L21 30L20 30L20 31L21 31L21 30L22 30L22 32L23 32L23 34L24 34L24 32L23 32L23 31L24 31L24 30L25 30L25 31L26 31L26 30L27 30L27 29L26 29L26 30L25 30L25 28L24 28L24 27ZM28 28L28 29L29 29L29 30L30 30L30 29L29 29L29 28ZM33 28L33 30L34 30L34 31L33 31L33 32L34 32L34 33L33 33L33 34L34 34L34 35L33 35L33 36L31 36L31 37L32 37L32 38L31 38L31 40L33 40L33 38L34 38L34 37L33 37L33 36L34 36L34 35L35 35L35 36L36 36L36 37L35 37L35 38L36 38L36 37L41 37L41 38L42 38L42 37L41 37L41 36L42 36L42 35L45 35L45 34L46 34L46 32L45 32L45 34L44 34L44 33L43 33L43 32L42 32L42 33L40 33L40 32L41 32L41 30L42 30L42 29L41 29L41 30L34 30L34 29L36 29L36 28ZM38 28L38 29L39 29L39 28ZM22 29L22 30L23 30L23 29ZM6 30L6 31L7 31L7 30ZM8 30L8 32L9 32L9 30ZM43 30L43 31L44 31L44 30ZM34 31L34 32L35 32L35 33L34 33L34 34L35 34L35 35L36 35L36 34L35 34L35 33L36 33L36 32L35 32L35 31ZM37 31L37 32L39 32L39 31ZM6 32L6 33L7 33L7 32ZM25 32L25 34L27 34L27 33L26 33L26 32ZM14 33L14 34L15 34L15 33ZM37 33L37 34L38 34L38 35L37 35L37 36L39 36L39 34L40 34L40 33ZM42 33L42 34L41 34L41 35L42 35L42 34L43 34L43 33ZM8 35L8 37L11 37L11 35L10 35L10 36L9 36L9 35ZM18 37L18 38L19 38L19 37ZM7 38L7 39L8 39L8 41L10 41L10 42L11 42L11 43L12 43L12 42L13 42L13 41L12 41L12 40L13 40L13 39L12 39L12 38L9 38L9 39L8 39L8 38ZM9 39L9 40L10 40L10 41L11 41L11 40L12 40L12 39L11 39L11 40L10 40L10 39ZM18 39L18 40L17 40L17 41L18 41L18 40L19 40L19 39ZM43 39L43 40L46 40L46 41L45 41L45 42L48 42L48 41L47 41L47 40L46 40L46 39ZM36 40L36 41L37 41L37 40ZM23 41L23 44L26 44L26 41ZM41 41L41 44L44 44L44 41ZM24 42L24 43L25 43L25 42ZM42 42L42 43L43 43L43 42ZM15 43L15 44L16 44L16 43ZM29 44L29 45L30 45L30 44ZM36 44L36 45L37 45L37 44ZM46 44L46 45L45 45L45 46L44 46L44 45L43 45L43 46L42 46L42 47L43 47L43 48L44 48L44 47L46 47L46 48L47 48L47 47L48 47L48 46L47 46L47 44ZM25 45L25 46L26 46L26 45ZM14 46L14 47L16 47L16 46ZM21 46L21 47L22 47L22 46ZM29 46L29 47L30 47L30 46ZM46 46L46 47L47 47L47 46ZM19 48L19 49L20 49L20 48ZM0 0L0 7L7 7L7 0ZM1 1L1 6L6 6L6 1ZM2 2L2 5L5 5L5 2ZM42 0L42 7L49 7L49 0ZM43 1L43 6L48 6L48 1ZM44 2L44 5L47 5L47 2ZM0 42L0 49L7 49L7 42ZM1 43L1 48L6 48L6 43ZM2 44L2 47L5 47L5 44Z" fill="#000000"/></g></g></svg>
